<svg width="140" height="100" viewBox="0 0 140 100" fill="none" xmlns="http://www.w3.org/2000/svg">
<path d="M52.47 3H86.426C87.9918 3.76012 88.8498 5.1063 89 7.03852V7.40407C88.896 35.8942 88.87 64.3814 88.922 92.8657C88.9278 94.9952 88.0091 96.3733 86.166 97H52.5133C51.3 96.4894 50.4622 95.5987 50 94.328V5.5763C50.5142 4.32296 51.3376 3.4642 52.47 3ZM87.1973 6.5337C87.1973 6.00047 86.9864 5.48908 86.611 5.11203C86.2355 4.73497 85.7263 4.52315 85.1953 4.52315H53.614C53.083 4.52315 52.5738 4.73497 52.1984 5.11203C51.8229 5.48908 51.612 6.00047 51.612 6.5337V93.4489C51.612 93.9821 51.8229 94.4935 52.1984 94.8706C52.5738 95.2476 53.083 95.4594 53.614 95.4594H85.1953C85.7263 95.4594 86.2355 95.2476 86.611 94.8706C86.9864 94.4935 87.1973 93.9821 87.1973 93.4489V6.5337Z" fill="#494A52"/>
<path d="M70.1067 25.1421C70.1703 19.8329 70.179 14.8137 70.1327 10.0847C70.127 9.68435 70.3263 9.49287 70.7307 9.51027C75.1854 9.71046 80.8361 8.18731 81.7027 14.5062C82.0061 16.7692 81.9194 20.7381 79.5274 21.9392C79.2732 22.0668 79.2616 22.2148 79.4927 22.3831C80.995 23.4681 81.7547 24.9826 81.7721 26.9264C81.7894 29.4969 81.8501 32.2298 81.9541 35.1253C81.9552 35.1649 81.9485 35.2043 81.9342 35.2412C81.9199 35.2781 81.8984 35.3118 81.8709 35.3402C81.8434 35.3686 81.8105 35.3912 81.7742 35.4066C81.7379 35.422 81.6988 35.4299 81.6594 35.4299L78.5481 35.4125C78.3634 35.4125 78.1861 35.3394 78.0547 35.2091C77.9233 35.0788 77.8484 34.9017 77.8461 34.7162L77.6987 26.4825C77.6884 26.0022 77.5108 25.5411 77.197 25.1798C76.8833 24.8186 76.4534 24.5803 75.9827 24.5068L75.2894 24.4023C74.2956 24.2514 73.8161 24.6808 73.8507 25.6905L74.1714 34.4725C74.1945 35.105 73.8912 35.4212 73.2614 35.4212L68.1654 35.4647C67.6107 35.4647 67.2872 35.1891 67.1947 34.6379L66.5274 30.6342C66.4581 30.2222 66.2183 30.0162 65.8081 30.0162L61.9167 29.9901C61.7992 29.9892 61.6852 30.0319 61.5959 30.1103C61.5066 30.1888 61.4482 30.2976 61.4314 30.4166L60.7381 35.221C60.7277 35.2871 60.6939 35.3472 60.643 35.3904C60.5921 35.4335 60.5274 35.4568 60.4607 35.456H56.9421C56.9138 35.4567 56.8858 35.4509 56.8601 35.4388C56.8343 35.4268 56.8115 35.4089 56.7933 35.3864C56.775 35.3639 56.7618 35.3374 56.7546 35.3088C56.7473 35.2802 56.7462 35.2502 56.7514 35.221L61.0934 10.1108C61.1627 9.72207 61.391 9.52768 61.7781 9.52768H66.6661C67.0474 9.53348 67.2641 9.72206 67.3161 10.0934C68.0499 15.0893 68.9079 20.1114 69.8901 25.1595C70.0287 25.8674 70.101 25.8616 70.1067 25.1421ZM64.1181 13.0005C64.1007 12.8844 64.0401 12.8525 63.9361 12.9047C63.8552 12.9511 63.809 13.0179 63.7974 13.1049C63.3121 17.48 62.7516 21.6693 62.1161 25.6731C62.0641 26.027 62.2143 26.204 62.5667 26.204L65.3661 26.2127C65.4372 26.2134 65.5077 26.1987 65.5726 26.1695C65.6376 26.1403 65.6955 26.0974 65.7424 26.0437C65.7893 25.99 65.8241 25.9267 65.8444 25.8582C65.8647 25.7898 65.8701 25.7177 65.8601 25.6469L64.1181 13.0005ZM73.8247 13.5227V20.3812C73.8247 20.4189 73.8321 20.4563 73.8465 20.4911C73.8609 20.526 73.882 20.5576 73.9085 20.5843C73.9351 20.611 73.9666 20.6321 74.0013 20.6466C74.036 20.661 74.0732 20.6684 74.1107 20.6684H75.6101C76.1709 20.6684 76.7088 20.4392 77.1054 20.0311C77.5019 19.623 77.7247 19.0696 77.7247 18.4925V15.4114C77.7247 14.8343 77.5019 14.2808 77.1054 13.8728C76.7088 13.4647 76.1709 13.2355 75.6101 13.2355H74.1107C74.0349 13.2355 73.9621 13.2657 73.9085 13.3196C73.8549 13.3735 73.8247 13.4465 73.8247 13.5227Z" fill="#494A52"/>
<path d="M60.9547 59.1651H66.952C67.0463 59.1651 67.1367 59.2027 67.2033 59.2696C67.2699 59.3365 67.3074 59.4273 67.3074 59.5219L67.2987 62.5247C67.2987 62.6193 67.2613 62.7101 67.1946 62.777C67.128 62.844 67.0376 62.8816 66.9434 62.8816L56.8727 62.8554C56.7785 62.8554 56.6881 62.8178 56.6214 62.7509C56.5548 62.684 56.5174 62.5932 56.5174 62.4986L56.526 37.3449C56.526 37.2502 56.5635 37.1595 56.6301 37.0926C56.6967 37.0256 56.7871 36.988 56.8814 36.988L60.244 36.9967C60.3383 36.9967 60.4287 37.0343 60.4953 37.1013C60.5619 37.1682 60.5994 37.259 60.5994 37.3536V58.8082C60.5994 58.9029 60.6368 58.9936 60.7034 59.0606C60.7701 59.1275 60.8605 59.1651 60.9547 59.1651Z" fill="#494A52"/>
<path d="M76.3033 59.2172L76.676 59.1737C77.1067 59.1187 77.5026 58.9071 77.7897 58.5787C78.0769 58.2503 78.2355 57.8275 78.236 57.3894L78.2447 37.3622C78.2447 37.1069 78.3689 36.9792 78.6173 36.9792L81.824 36.988C81.8741 36.9891 81.9235 37.0001 81.9693 37.0204C82.0151 37.0407 82.0565 37.0699 82.0911 37.1062C82.1257 37.1426 82.1529 37.1855 82.171 37.2324C82.1891 37.2793 82.1978 37.3293 82.1967 37.3796C82.1158 42.9558 82.1273 48.8424 82.2313 55.0394C82.318 60.5402 79.8913 64.0739 74.0153 62.5942C71.4096 61.9386 70.1009 60.0267 70.0893 56.8585C70.0662 50.4236 70.0604 43.9132 70.072 37.3274C70.072 37.242 70.1058 37.1601 70.1659 37.0997C70.2261 37.0393 70.3076 37.0054 70.3927 37.0054L73.6687 36.9967C73.9518 36.9967 74.0933 37.1417 74.0933 37.4318L74.102 57.2676C74.102 58.753 74.8358 59.4029 76.3033 59.2172Z" fill="#494A52"/>
<path d="M79.8046 64.2306H76.5113C76.339 64.2306 76.1993 64.3709 76.1993 64.5439V89.9936C76.1993 90.1666 76.339 90.3069 76.5113 90.3069H79.8046C79.977 90.3069 80.1166 90.1666 80.1166 89.9936V64.5439C80.1166 64.3709 79.977 64.2306 79.8046 64.2306Z" fill="#494A52"/>
<path d="M67.4547 79.053C67.5818 73.883 67.6021 69.1104 67.5154 64.7354C67.5154 64.65 67.5483 64.5681 67.6068 64.5077C67.6653 64.4473 67.7446 64.4133 67.8274 64.4133L71.4674 64.4307C71.7216 64.4307 71.8487 64.5584 71.8487 64.8137V89.7672C71.8487 90.1502 71.661 90.3417 71.2854 90.3417L67.3594 90.333C67.1989 90.3335 67.0425 90.2832 66.9132 90.1892C66.7838 90.0953 66.6881 89.9627 66.6401 89.8107L61.6567 73.3781C61.1483 71.6954 60.8941 71.736 60.8941 73.5L60.8854 90.0022C60.8854 90.2285 60.7727 90.3417 60.5474 90.3417H56.8987C56.8091 90.3417 56.7231 90.3059 56.6597 90.2422C56.5963 90.1786 56.5607 90.0922 56.5607 90.0022V64.805C56.5607 64.7057 56.6 64.6105 56.6699 64.5404C56.7398 64.4702 56.8346 64.4307 56.9334 64.4307L62.0987 64.4133C62.5205 64.4133 62.7921 64.6164 62.9134 65.0226L67.1167 79.0965C67.3247 79.7986 67.4374 79.7841 67.4547 79.053Z" fill="#494A52"/>
</svg>
