<svg width="140" height="100" viewBox="0 0 140 100" fill="none" xmlns="http://www.w3.org/2000/svg">
<path d="M53.29 52.532L53.26 42.432C53.26 42.0787 53.44 41.892 53.8 41.872L55.25 41.802C55.34 41.7965 55.4301 41.8098 55.5148 41.841C55.5995 41.8723 55.677 41.9207 55.7426 41.9835C55.8082 42.0463 55.8604 42.122 55.8961 42.206C55.9318 42.29 55.9501 42.3806 55.95 42.472L55.96 59.022C55.96 59.4953 55.7934 59.562 55.46 59.222L43.82 47.472C43.4534 47.1053 43.2734 47.1787 43.28 47.692L43.37 58.192C43.3701 58.2375 43.361 58.2826 43.3432 58.3245C43.3255 58.3664 43.2996 58.4043 43.267 58.436C43.2343 58.4677 43.1956 58.4926 43.1532 58.5091C43.1108 58.5255 43.0655 58.5334 43.02 58.532H40.98C40.7734 58.5253 40.67 58.4187 40.67 58.212L40.68 41.472C40.68 40.932 40.87 40.8553 41.25 41.242L52.61 52.802C53.0634 53.262 53.29 53.172 53.29 52.532Z" fill="#494A52"/>
<path d="M98.0899 49.2622L93.6199 58.9022C93.5959 58.9506 93.5589 58.9915 93.5129 59.02C93.467 59.0486 93.414 59.0637 93.3599 59.0637C93.3058 59.0637 93.2528 59.0486 93.2068 59.02C93.1609 58.9915 93.1238 58.9506 93.0999 58.9022L88.7599 49.2822C88.4999 48.7022 88.3099 48.7255 88.1899 49.3522L86.5999 57.7022C86.4932 58.2822 86.3199 58.3022 86.0799 57.7622C85.3799 56.1822 84.3699 54.8922 84.8399 53.0122C85.7399 49.3722 86.4732 45.6955 87.0399 41.9822C87.2199 40.7622 87.5632 40.7155 88.0699 41.8422L93.0399 52.9622C93.2466 53.4288 93.4599 53.4322 93.6799 52.9722L99.2199 41.1922C99.2435 41.145 99.2814 41.1066 99.3281 41.0823C99.3749 41.058 99.4281 41.0491 99.4803 41.0568C99.5324 41.0646 99.5807 41.0886 99.6184 41.1255C99.656 41.1624 99.681 41.2102 99.6899 41.2622L102.72 57.9922C102.793 58.3788 102.633 58.5688 102.24 58.5622L100.73 58.5322C100.357 58.5255 100.137 58.3355 100.07 57.9622L98.6699 49.3422C98.5632 48.6955 98.3699 48.6688 98.0899 49.2622Z" fill="#494A52"/>
<path d="M71.3599 55.0321C71.1666 56.0854 70.7899 57.0921 70.2299 58.0521C70.0366 58.3788 69.7499 58.5421 69.3699 58.5421L67.9399 58.5521C67.4799 58.5588 67.3499 58.3554 67.5499 57.9421L75.4699 41.5021C75.503 41.4372 75.5536 41.3828 75.616 41.3451C75.6784 41.3075 75.7501 41.2881 75.823 41.2891C75.8959 41.2901 75.967 41.3116 76.0283 41.351C76.0897 41.3904 76.1387 41.4462 76.1699 41.5121L83.7699 58.2021C83.7911 58.2447 83.8008 58.2921 83.7978 58.3396C83.7948 58.3871 83.7794 58.4329 83.753 58.4725C83.7266 58.5121 83.6902 58.544 83.6475 58.565C83.6048 58.586 83.5574 58.5954 83.5099 58.5921L81.5699 58.5121C81.2366 58.4988 80.9999 58.3388 80.8599 58.0321L79.4799 54.9921C79.3332 54.6788 79.0899 54.5221 78.7499 54.5221L71.9799 54.5121C71.6332 54.5121 71.4266 54.6854 71.3599 55.0321ZM73.2399 51.7321C73.2164 51.7803 73.2054 51.8336 73.2079 51.8872C73.2105 51.9407 73.2264 51.9928 73.2543 52.0386C73.2821 52.0844 73.3211 52.1224 73.3675 52.1493C73.4139 52.1761 73.4663 52.1908 73.5199 52.1921H78.0799C78.1335 52.1908 78.1859 52.1761 78.2323 52.1493C78.2787 52.1224 78.3177 52.0844 78.3455 52.0386C78.3734 51.9928 78.3893 51.9407 78.3918 51.8872C78.3943 51.8336 78.3834 51.7803 78.3599 51.7321L76.0899 47.1221C76.0641 47.0669 76.0232 47.0202 75.9718 46.9875C75.9204 46.9548 75.8608 46.9374 75.7999 46.9374C75.739 46.9374 75.6793 46.9548 75.628 46.9875C75.5766 47.0202 75.5356 47.0669 75.5099 47.1221L73.2399 51.7321Z" fill="#494A52"/>
<path d="M12 42.2521C12 42.2008 12.0101 42.1501 12.0297 42.1028C12.0493 42.0555 12.078 42.0125 12.1142 41.9763C12.1504 41.9401 12.1934 41.9113 12.2408 41.8917C12.2881 41.8721 12.3388 41.8621 12.39 41.8621H17.05C19.2486 41.8621 21.3572 42.6912 22.9119 44.1671C24.4666 45.643 25.34 47.6448 25.34 49.7321V50.6521C25.34 52.7393 24.4666 54.7411 22.9119 56.217C21.3572 57.6929 19.2486 58.5221 17.05 58.5221H12.39C12.3388 58.5221 12.2881 58.512 12.2408 58.4924C12.1934 58.4728 12.1504 58.444 12.1142 58.4078C12.078 58.3716 12.0493 58.3286 12.0297 58.2813C12.0101 58.234 12 58.1833 12 58.1321V42.2521ZM15.17 56.1721C20.87 56.1854 23.3267 53.6921 22.54 48.6921C21.9 44.6321 17.5 43.8621 13.93 44.1421C13.902 44.1442 13.8753 44.1541 13.8527 44.1707C13.8301 44.1873 13.8126 44.2099 13.8021 44.2359C13.7917 44.2619 13.7888 44.2904 13.7937 44.318C13.7987 44.3456 13.8112 44.3712 13.83 44.3921L14.18 44.8221C14.3933 45.0954 14.5033 45.4054 14.51 45.7521V55.5121C14.51 55.9521 14.73 56.1721 15.17 56.1721Z" fill="#494A52"/>
<path d="M30.23 44.252C29.9367 44.252 29.8667 44.3753 30.02 44.622C30.5467 45.4687 30.6867 46.412 30.44 47.452C30.419 47.5397 30.4183 47.6311 30.4381 47.7193C30.4579 47.8074 30.4976 47.8901 30.5543 47.9613C30.611 48.0324 30.6832 48.09 30.7656 48.13C30.848 48.1699 30.9383 48.1911 31.03 48.192L37.02 48.202C37.22 48.202 37.32 48.302 37.32 48.502L37.29 49.982C37.2834 50.3353 37.1034 50.512 36.75 50.512L30.85 50.522C30.61 50.522 30.4934 50.642 30.5 50.882L30.51 55.782C30.51 56.0153 30.6234 56.132 30.85 56.132L37.17 56.102C37.2505 56.102 37.3279 56.1333 37.3858 56.1892C37.4436 56.2452 37.4774 56.3215 37.48 56.402L37.49 58.262C37.4967 58.442 37.4067 58.532 37.22 58.532H28.47C28.09 58.532 27.9 58.3387 27.9 57.952V42.452C27.9 42.2823 27.9664 42.1195 28.0845 41.9995C28.2027 41.8794 28.3629 41.812 28.53 41.812L37.03 41.832C37.3234 41.832 37.4734 41.9753 37.48 42.262L37.49 43.762C37.4967 44.1087 37.3234 44.282 36.97 44.282L30.23 44.252Z" fill="#494A52"/>
<path d="M63.9001 44.662L64.3801 45.212C64.4197 45.2597 64.441 45.32 64.4401 45.382L64.4501 58.292C64.4501 58.361 64.4227 58.4271 64.3739 58.4759C64.3252 58.5246 64.259 58.552 64.1901 58.552L62.0501 58.522C61.9811 58.522 61.915 58.4946 61.8662 58.4459C61.8175 58.3971 61.7901 58.331 61.7901 58.262V44.532C61.7901 44.4631 61.7627 44.3969 61.7139 44.3482C61.6652 44.2994 61.599 44.272 61.5301 44.272L57.9501 44.282C57.8828 44.2821 57.8182 44.256 57.7697 44.2094C57.7212 44.1628 57.6927 44.0992 57.6901 44.032L57.6501 42.082C57.6487 42.047 57.6545 42.0121 57.6669 41.9794C57.6794 41.9467 57.6983 41.9169 57.7226 41.8917C57.7469 41.8665 57.776 41.8464 57.8082 41.8327C57.8404 41.819 57.8751 41.812 57.9101 41.812H68.0001C68.069 41.812 68.1352 41.8394 68.1839 41.8882C68.2327 41.9369 68.2601 42.0031 68.2601 42.072L68.2801 44.032C68.2815 44.0678 68.2755 44.1036 68.2624 44.137C68.2493 44.1704 68.2295 44.2007 68.2041 44.2261C68.1788 44.2514 68.1485 44.2713 68.1151 44.2843C68.0817 44.2974 68.0459 44.3034 68.0101 44.302L64.1001 44.232C64.05 44.2314 64.0008 44.2452 63.9584 44.2719C63.916 44.2986 63.8822 44.3369 63.8611 44.3823C63.8399 44.4278 63.8324 44.4783 63.8393 44.5279C63.8462 44.5776 63.8673 44.6241 63.9001 44.662Z" fill="#494A52"/>
<path d="M107.49 44.092C107.097 44.052 107.013 44.1953 107.24 44.522C107.853 45.3887 108.013 46.3787 107.72 47.492C107.699 47.5759 107.697 47.6636 107.715 47.7483C107.732 47.833 107.769 47.9127 107.822 47.9811C107.875 48.0495 107.943 48.105 108.02 48.1433C108.098 48.1815 108.183 48.2016 108.27 48.202L113.98 48.182C114.333 48.182 114.507 48.3587 114.5 48.712L114.49 50.142C114.49 50.402 114.357 50.532 114.09 50.532L108.24 50.522C108.18 50.522 108.12 50.5342 108.064 50.5578C108.008 50.5814 107.957 50.616 107.915 50.6597C107.872 50.7033 107.838 50.7551 107.815 50.8122C107.792 50.8692 107.78 50.9303 107.78 50.992L107.8 55.722C107.8 56.0153 107.947 56.1587 108.24 56.152L113.91 56.082C114.45 56.0753 114.733 56.3453 114.76 56.892L114.81 57.972C114.813 58.0446 114.8 58.1169 114.774 58.1847C114.748 58.2525 114.707 58.3144 114.656 58.3667C114.605 58.419 114.543 58.4606 114.475 58.489C114.407 58.5174 114.334 58.532 114.26 58.532H105.76C105.617 58.532 105.479 58.4751 105.378 58.3738C105.277 58.2726 105.22 58.1352 105.22 57.992L105.23 42.192C105.23 42.0912 105.27 41.9946 105.341 41.9233C105.413 41.852 105.509 41.812 105.61 41.812L114.43 41.832C114.663 41.832 114.78 41.952 114.78 42.192V43.962C114.778 44.0312 114.75 44.0971 114.702 44.1469C114.654 44.1968 114.589 44.2271 114.52 44.232C112.053 44.372 109.71 44.3253 107.49 44.092Z" fill="#494A52"/>
<path d="M122.71 44.712L123.19 45.372C123.227 45.4209 123.249 45.4804 123.25 45.542L123.26 58.292C123.26 58.331 123.252 58.3695 123.237 58.4054C123.222 58.4412 123.199 58.4736 123.171 58.5007C123.143 58.5278 123.11 58.5489 123.074 58.5629C123.038 58.5769 122.999 58.5834 122.96 58.582L120.91 58.482C120.835 58.4794 120.764 58.4477 120.711 58.3936C120.659 58.3395 120.63 58.2672 120.63 58.192V44.562C120.63 44.4851 120.599 44.4113 120.545 44.357C120.491 44.3026 120.417 44.272 120.34 44.272H116.86C116.785 44.2721 116.712 44.2429 116.658 44.1906C116.604 44.1384 116.573 44.0672 116.57 43.992L116.51 42.122C116.509 42.0831 116.515 42.0443 116.529 42.008C116.543 41.9716 116.564 41.9385 116.591 41.9105C116.618 41.8825 116.651 41.8602 116.687 41.845C116.722 41.8298 116.761 41.822 116.8 41.822H126.79C126.865 41.822 126.937 41.8512 126.992 41.9034C127.046 41.9556 127.077 42.0269 127.08 42.102L127.14 43.992C127.141 44.0309 127.135 44.0697 127.121 44.1061C127.107 44.1424 127.086 44.1756 127.059 44.2036C127.032 44.2316 126.999 44.2538 126.963 44.269C126.927 44.2842 126.889 44.292 126.85 44.292L122.95 44.252C122.896 44.2511 122.843 44.2652 122.797 44.2927C122.75 44.3202 122.713 44.3601 122.688 44.4078C122.663 44.4556 122.652 44.5094 122.656 44.5631C122.66 44.6168 122.678 44.6684 122.71 44.712Z" fill="#494A52"/>
</svg>
