<svg width="140" height="100" viewBox="0 0 140 100" fill="none" xmlns="http://www.w3.org/2000/svg">
<g id="Septima">
<g id="Group 96">
<path id="Vector" d="M17.9899 42.3359C18.0037 42.3359 18.0169 42.3414 18.0266 42.3511C18.0364 42.3609 18.0419 42.3741 18.0419 42.3879C18.0473 44.1579 18.05 46.0075 18.05 47.9369C18.05 48.4982 18.5197 48.9358 19.0641 48.9504C19.4043 48.9602 19.7618 48.9661 20.1367 48.9683C20.7347 48.9716 21.271 48.5421 21.271 47.9174C21.2678 46.1724 21.2673 44.3385 21.2694 42.4156C21.2694 42.394 21.278 42.3733 21.2932 42.3581C21.3085 42.3428 21.3291 42.3342 21.3507 42.3342C23.0874 42.3342 24.8989 42.3348 26.7852 42.3359C27.1925 42.3359 27.5002 42.1678 27.7083 41.8316C27.9732 41.4005 27.848 40.836 27.8789 40.3512C27.9195 39.7086 27.5279 39.1099 26.8502 39.1099C25.0961 39.1132 23.2721 39.1143 21.3783 39.1132C21.3068 39.1132 21.271 39.0774 21.271 39.0058C21.2678 37.2055 21.2667 35.3732 21.2678 33.5089C21.2678 32.8972 20.7754 32.4661 20.1708 32.471C19.7418 32.4742 19.3517 32.4786 19.0007 32.484C18.4823 32.4921 18.0419 32.9867 18.0419 33.517C18.044 35.3824 18.043 37.2174 18.0386 39.0221C18.0386 39.0774 18.0105 39.1051 17.9541 39.1051C16.3138 39.117 14.4823 39.117 12.4595 39.1051C11.9021 39.1018 11.4828 39.5703 11.447 40.1007C11.4221 40.4651 11.4194 40.8517 11.4389 41.2606C11.4665 41.8446 11.9086 42.3375 12.5082 42.3359C14.3696 42.3326 16.1968 42.3326 17.9899 42.3359Z" stroke="#494A52" stroke-width="2"/>
<path id="Vector_2" d="M21.848 50.1021C21.8343 50.1315 21.8142 50.1572 21.789 50.1772C21.7639 50.1973 21.7346 50.2111 21.7033 50.2176C16.0982 51.4312 10.7336 47.5302 10.0608 41.8673C9.9454 40.8863 9.98602 39.4824 10.2542 38.4413C11.0592 35.3037 12.9628 33.0609 15.9649 31.7128C16.7808 31.3452 17.8322 31.1142 18.7651 31.0377C21.257 30.8349 23.4688 31.4498 25.4006 32.8825C26.3063 33.5538 27.0539 34.3314 27.6433 35.2153C29.1557 37.4798 29.6498 39.9959 29.1254 42.7637C29.1135 42.8276 29.075 42.8602 29.01 42.8613C25.2624 42.9605 21.9471 45.0005 22.056 49.1732C22.0641 49.5181 21.9894 49.7963 21.848 50.1021ZM17.9899 42.3358C18.0037 42.3358 18.0169 42.3413 18.0267 42.3511C18.0364 42.3608 18.0419 42.3741 18.0419 42.3879C18.0473 44.1578 18.05 46.0075 18.05 47.9369C18.05 48.4981 18.5197 48.9357 19.0641 48.9504C19.4043 48.9601 19.7618 48.9661 20.1367 48.9683C20.7348 48.9715 21.2711 48.542 21.2711 47.9173C21.2678 46.1723 21.2673 44.3384 21.2694 42.4155C21.2694 42.394 21.278 42.3733 21.2932 42.358C21.3085 42.3428 21.3291 42.3342 21.3507 42.3342C23.0874 42.3342 24.8989 42.3347 26.7852 42.3358C27.1926 42.3358 27.5002 42.1677 27.7083 41.8315C27.9732 41.4004 27.848 40.8359 27.8789 40.3511C27.9195 39.7085 27.5279 39.1099 26.8502 39.1099C25.0961 39.1131 23.2722 39.1142 21.3783 39.1131C21.3068 39.1131 21.2711 39.0773 21.2711 39.0058C21.2678 37.2054 21.2667 35.3731 21.2678 33.5088C21.2678 32.8972 20.7754 32.466 20.1708 32.4709C19.7418 32.4742 19.3518 32.4785 19.0007 32.4839C18.4823 32.4921 18.0419 32.9866 18.0419 33.517C18.0441 35.3823 18.043 37.2174 18.0386 39.022C18.0386 39.0773 18.0105 39.105 17.9541 39.105C16.3138 39.1169 14.4823 39.1169 12.4595 39.105C11.9021 39.1017 11.4828 39.5703 11.447 40.1006C11.4221 40.465 11.4194 40.8516 11.4389 41.2605C11.4665 41.8445 11.9086 42.3374 12.5083 42.3358C14.3696 42.3326 16.1968 42.3326 17.9899 42.3358Z" fill="#494A52"/>
<path id="Vector_3" d="M17.9899 42.3359C16.1968 42.3326 14.3696 42.3326 12.5082 42.3359C11.9086 42.3375 11.4665 41.8446 11.4389 41.2606C11.4194 40.8517 11.4221 40.4651 11.447 40.1007C11.4828 39.5703 11.9021 39.1018 12.4595 39.1051C14.4823 39.117 16.3138 39.117 17.9541 39.1051C18.0105 39.1051 18.0386 39.0774 18.0386 39.0221C18.043 37.2174 18.044 35.3824 18.0419 33.517C18.0419 32.9867 18.4823 32.4921 19.0007 32.484C19.3517 32.4786 19.7418 32.4742 20.1708 32.471C20.7754 32.4661 21.2678 32.8972 21.2678 33.5089C21.2667 35.3732 21.2678 37.2055 21.271 39.0058C21.271 39.0774 21.3068 39.1132 21.3783 39.1132C23.2721 39.1143 25.0961 39.1132 26.8502 39.1099C27.5279 39.1099 27.9195 39.7086 27.8789 40.3512C27.848 40.836 27.9732 41.4005 27.7083 41.8316C27.5002 42.1678 27.1925 42.3359 26.7852 42.3359C24.8989 42.3348 23.0874 42.3342 21.3507 42.3342C21.3291 42.3342 21.3085 42.3428 21.2932 42.3581C21.278 42.3733 21.2694 42.394 21.2694 42.4156C21.2673 44.3385 21.2678 46.1724 21.271 47.9174C21.271 48.5421 20.7347 48.9716 20.1367 48.9683C19.7618 48.9661 19.4043 48.9602 19.0641 48.9504C18.5197 48.9358 18.05 48.4982 18.05 47.9369C18.05 46.0075 18.0473 44.1579 18.0419 42.3879C18.0419 42.3741 18.0364 42.3609 18.0266 42.3511C18.0169 42.3414 18.0037 42.3359 17.9899 42.3359Z" fill="white"/>
<path id="Vector_4" d="M22.5127 59.4921L24.523 56.572C24.5674 56.508 24.6237 56.4939 24.692 56.5297C26.653 57.5579 28.7072 57.9055 30.8546 57.5725C31.7874 57.4277 32.7446 56.7786 32.3416 55.7033C32.2202 55.3769 31.938 55.1399 31.4949 54.9924C30.3605 54.615 29.1904 54.4686 28.0544 54.1497C25.3355 53.3851 22.7158 52.0251 22.9628 48.7097C23.0863 47.0591 23.7759 45.8081 25.0316 44.9567C26.9233 43.6748 29.5284 43.6699 31.8166 43.9286C33.4916 44.1195 35.0182 44.6189 36.3963 45.4269C36.4548 45.4616 36.4646 45.5071 36.4256 45.5635L34.3876 48.4885C34.3682 48.5161 34.34 48.5362 34.3077 48.5454C34.2754 48.5546 34.2411 48.5523 34.2105 48.5389C32.6644 47.8698 31.0377 47.578 29.3302 47.6637C28.8513 47.6876 28.4011 47.815 27.9797 48.046C27.1833 48.482 27.2158 49.5719 27.9082 50.0388C28.2321 50.2568 28.6221 50.4173 29.0783 50.5203C31.0414 50.9661 32.9949 51.3712 34.7013 52.3619C36.2755 53.2761 36.9868 54.7077 36.8351 56.6566C36.6856 58.5947 35.7468 59.9525 34.0187 60.7301C33.1509 61.1222 32.1823 61.3629 31.2267 61.4492C28.5062 61.6932 25.6264 61.428 23.2261 60.094C22.9726 59.953 22.7386 59.786 22.524 59.593C22.4915 59.5626 22.4877 59.529 22.5127 59.4921Z" fill="#494A52"/>
<path id="Vector_5" d="M42.6905 48.155L42.6921 50.7205C42.6921 50.7369 42.6986 50.7526 42.7102 50.7642C42.7218 50.7758 42.7375 50.7823 42.7539 50.7823H50.4945C50.5108 50.7823 50.5266 50.7888 50.5381 50.8004C50.5497 50.812 50.5562 50.8277 50.5562 50.8441V54.3417C50.5562 54.3581 50.5497 54.3739 50.5381 54.3855C50.5266 54.397 50.5108 54.4036 50.4945 54.4036L42.749 54.4133C42.7326 54.4133 42.7169 54.4198 42.7053 54.4314C42.6938 54.443 42.6873 54.4587 42.6873 54.4751L42.6905 57.1854C42.6905 57.2018 42.697 57.2175 42.7086 57.2291C42.7202 57.2407 42.7359 57.2472 42.7523 57.2472L51.1803 57.2488C51.1967 57.2488 51.2124 57.2553 51.2239 57.2669C51.2355 57.2785 51.242 57.2943 51.242 57.3106L51.2404 61.0132C51.2404 61.0296 51.2339 61.0453 51.2223 61.0569C51.2107 61.0685 51.195 61.075 51.1787 61.075H38.3302C38.3139 61.075 38.2981 61.0685 38.2866 61.0569C38.275 61.0453 38.2685 61.0296 38.2685 61.0132V44.3321C38.2685 44.3157 38.275 44.3 38.2866 44.2884C38.2981 44.2768 38.3139 44.2703 38.3302 44.2703H51.0015C51.0179 44.2703 51.0336 44.2768 51.0452 44.2884C51.0568 44.3 51.0633 44.3157 51.0633 44.3321L51.06 48.0314C51.06 48.0478 51.0535 48.0635 51.0419 48.0751C51.0303 48.0867 51.0146 48.0932 50.9983 48.0932H42.7523C42.7359 48.0932 42.7202 48.0997 42.7086 48.1113C42.697 48.1229 42.6905 48.1387 42.6905 48.155Z" fill="#494A52"/>
<path id="Vector_6" d="M57.2892 56.6028V60.987C57.2892 61.0434 57.261 61.0716 57.2047 61.0716H52.9761C52.9089 61.0716 52.8753 61.038 52.8753 60.9707L52.8737 44.3628C52.8737 44.2977 52.9067 44.2652 52.9728 44.2652C55.1603 44.2782 57.4311 44.2766 59.7854 44.2603C60.8732 44.2527 61.7828 44.3238 62.5141 44.4734C64.526 44.8834 66.2535 46.0286 66.9621 47.9775C67.7129 50.0419 67.4968 52.7343 65.9756 54.4213C64.6219 55.9212 62.5872 56.4596 60.5655 56.4857C59.4214 56.5009 58.3678 56.5019 57.4046 56.4889C57.3277 56.4878 57.2892 56.5258 57.2892 56.6028ZM57.2957 48.1337L57.2795 52.6139C57.2795 52.6256 57.2841 52.6367 57.2923 52.645C57.3005 52.6532 57.3117 52.6578 57.3233 52.6578L60.663 52.6692C61.2318 52.6711 61.7779 52.4643 62.1814 52.0943C62.5849 51.7242 62.8127 51.2212 62.8147 50.6959L62.818 50.0907C62.819 49.8305 62.7644 49.5725 62.6575 49.3316C62.5505 49.0908 62.3933 48.8717 62.1946 48.6869C61.996 48.5022 61.76 48.3553 61.5 48.2548C61.24 48.1543 60.9611 48.1021 60.6793 48.1012L57.3396 48.0898C57.3338 48.0898 57.3281 48.0909 57.3228 48.0931C57.3175 48.0953 57.3126 48.0986 57.3086 48.1027C57.3045 48.1067 57.3013 48.1116 57.2991 48.1169C57.2969 48.1222 57.2957 48.1279 57.2957 48.1337Z" fill="#494A52"/>
<path id="Vector_7" d="M78.4161 48.1453V61.0197C78.4161 61.0335 78.4107 61.0468 78.4009 61.0565C78.3912 61.0663 78.3779 61.0718 78.3641 61.0718H74.0542C74.0404 61.0718 74.0272 61.0663 74.0175 61.0565C74.0077 61.0468 74.0022 61.0335 74.0022 61.0197L74.0006 48.1453C74.0006 48.1315 73.9951 48.1182 73.9854 48.1085C73.9756 48.0987 73.9624 48.0932 73.9486 48.0932H68.532C68.5182 48.0932 68.505 48.0877 68.4952 48.078C68.4855 48.0682 68.48 48.055 68.48 48.0412V44.3223C68.48 44.3085 68.4855 44.2953 68.4952 44.2855C68.505 44.2757 68.5182 44.2703 68.532 44.2703H83.8864C83.9002 44.2703 83.9134 44.2757 83.9232 44.2855C83.9329 44.2953 83.9384 44.3085 83.9384 44.3223L83.94 48.0412C83.94 48.055 83.9345 48.0682 83.9248 48.078C83.915 48.0877 83.9018 48.0932 83.888 48.0932H78.4681C78.4543 48.0932 78.4411 48.0987 78.4314 48.1085C78.4216 48.1182 78.4161 48.1315 78.4161 48.1453Z" fill="#494A52"/>
<path id="Vector_8" d="M89.5533 44.2751H85.2369C85.2019 44.2751 85.1735 44.3036 85.1735 44.3386V61.0067C85.1735 61.0418 85.2019 61.0702 85.2369 61.0702H89.5533C89.5883 61.0702 89.6167 61.0418 89.6167 61.0067V44.3386C89.6167 44.3036 89.5883 44.2751 89.5533 44.2751Z" fill="#494A52"/>
<path id="Vector_9" d="M107.016 51.6478C107.016 51.638 107.012 51.6285 107.006 51.621C107 51.6134 106.991 51.6082 106.982 51.6063C106.972 51.6044 106.962 51.6058 106.953 51.6104C106.945 51.615 106.938 51.6225 106.934 51.6315L103.174 60.9791C103.149 61.0409 103.103 61.0718 103.037 61.0718H99.9786C99.9136 61.0718 99.8692 61.042 99.8453 60.9823L96.0522 51.5681C96.0143 51.4737 95.9954 51.4775 95.9954 51.5795L96.0019 60.9905C96.0019 61.012 95.9933 61.0327 95.9781 61.048C95.9628 61.0632 95.9422 61.0718 95.9206 61.0718H91.6546C91.6004 61.0718 91.5733 61.0447 91.5733 60.9905V44.3565C91.5733 44.3023 91.6004 44.2751 91.6546 44.2751H97.315C97.3457 44.2752 97.3758 44.2844 97.4016 44.3018C97.4273 44.3192 97.4475 44.3438 97.4596 44.3728L101.477 54.3792C101.498 54.4301 101.518 54.4301 101.539 54.3792L105.564 44.3532C105.586 44.3012 105.625 44.2751 105.681 44.2751H111.319C111.351 44.2751 111.382 44.288 111.405 44.3109C111.428 44.3338 111.441 44.3648 111.441 44.3972V61.0311C111.441 61.0582 111.427 61.0718 111.4 61.0718H107.092C107.037 61.0718 107.009 61.0441 107.009 60.9888L107.016 51.6478Z" fill="#494A52"/>
<path id="Vector_10" d="M118.25 58.1354L117.13 61.0393C117.127 61.0488 117.12 61.0571 117.112 61.0629C117.104 61.0687 117.094 61.0718 117.083 61.0718H112.424C112.416 61.0719 112.407 61.0699 112.4 61.0661C112.393 61.0622 112.386 61.0565 112.382 61.0496C112.377 61.0426 112.374 61.0346 112.373 61.0263C112.372 61.018 112.374 61.0096 112.377 61.0019L119.198 44.3061C119.201 44.2968 119.208 44.2889 119.216 44.2834C119.225 44.2779 119.235 44.275 119.245 44.2752H123.844C123.854 44.275 123.864 44.2779 123.872 44.2834C123.881 44.2889 123.887 44.2968 123.891 44.3061L130.709 61.0019C130.712 61.0096 130.713 61.018 130.712 61.0263C130.711 61.0346 130.709 61.0426 130.704 61.0496C130.699 61.0565 130.693 61.0622 130.685 61.0661C130.678 61.0699 130.67 61.0719 130.661 61.0718H125.997C125.987 61.0718 125.977 61.0687 125.969 61.0629C125.96 61.0571 125.954 61.0488 125.95 61.0393L124.843 58.1354C124.84 58.1259 124.833 58.1176 124.825 58.1118C124.816 58.106 124.806 58.1029 124.796 58.1029H118.297C118.287 58.1029 118.277 58.106 118.269 58.1118C118.26 58.1176 118.254 58.1259 118.25 58.1354ZM119.685 54.4085C119.682 54.4166 119.681 54.4255 119.682 54.4342C119.683 54.4429 119.686 54.4512 119.691 54.4584C119.696 54.4657 119.703 54.4715 119.71 54.4756C119.718 54.4796 119.727 54.4817 119.736 54.4817L123.334 54.4882C123.342 54.4882 123.351 54.4862 123.359 54.4821C123.367 54.4781 123.373 54.4722 123.378 54.4649C123.383 54.4577 123.386 54.4494 123.387 54.4407C123.388 54.432 123.387 54.4231 123.384 54.415L121.593 49.79C121.589 49.7802 121.582 49.7718 121.573 49.7659C121.565 49.7599 121.554 49.7568 121.544 49.7568C121.533 49.7568 121.523 49.7599 121.514 49.7659C121.505 49.7718 121.498 49.7802 121.494 49.79L119.685 54.4085Z" fill="#494A52"/>
<path id="Vector_11" d="M90.0993 66.7427C89.6356 66.6592 89.2299 66.4792 88.8821 66.2026C88.5343 65.9271 88.368 65.5568 88.3832 65.0915C88.4092 64.3334 88.9731 63.8405 89.6898 63.7429C90.5164 63.6301 91.2705 63.7521 91.952 64.1089C91.9671 64.1165 91.9803 64.1273 91.9908 64.1405C92.0014 64.1537 92.009 64.169 92.0131 64.1855C92.0173 64.202 92.0179 64.2192 92.0149 64.236C92.0119 64.2528 92.0054 64.2688 91.9959 64.283L91.5863 64.8882C91.5473 64.9456 91.4959 64.9608 91.432 64.9337C90.9509 64.7222 90.1773 64.5303 89.6735 64.8085C89.6324 64.8301 89.6037 64.8632 89.5874 64.9077C89.4433 65.284 89.5885 65.5335 90.023 65.656C90.6763 65.8382 91.2792 65.9147 91.835 66.3718C92.3762 66.8159 92.3859 67.7269 91.9569 68.2394C91.7759 68.4552 91.4915 68.6141 91.1037 68.716C90.173 68.9589 89.2553 68.8418 88.3507 68.3646C88.2542 68.3147 88.2364 68.2448 88.297 68.1548L88.6708 67.6C88.7326 67.51 88.8117 67.4905 88.9081 67.5415C89.4682 67.8375 90.0961 67.9162 90.7916 67.7774C90.8643 67.7631 90.9317 67.7296 90.9866 67.6803C91.0416 67.631 91.082 67.5679 91.1037 67.4975C91.2678 66.9623 90.4634 66.8078 90.0993 66.7427Z" fill="#494A52"/>
<path id="Vector_12" d="M112.819 64.9337C112.813 64.9706 112.798 65.0004 112.773 65.0232C112.737 65.0546 112.698 65.0584 112.656 65.0346C111.927 64.623 110.646 64.4034 110.121 65.2347C109.821 65.7097 109.751 66.2444 109.912 66.8387C110.077 67.4579 110.48 67.7904 111.121 67.8359C111.704 67.8782 112.2 67.7773 112.611 67.5333C112.685 67.4889 112.747 67.5013 112.798 67.5707L113.227 68.1548C113.257 68.196 113.253 68.2328 113.214 68.2654C112.466 68.8819 111.257 68.9421 110.384 68.703C109.666 68.5067 109.172 68.0794 108.902 67.4211C108.478 66.3848 108.607 64.9955 109.544 64.257C110.475 63.5216 112.318 63.4826 113.198 64.2716C113.251 64.3182 113.256 64.3692 113.212 64.4245L112.83 64.9093C112.825 64.9168 112.821 64.9251 112.819 64.9337Z" fill="#494A52"/>
<path id="Vector_13" d="M125.683 66.4847C125.684 66.7893 125.625 67.0912 125.509 67.373C125.394 67.6549 125.224 67.9112 125.01 68.1274C124.795 68.3435 124.54 68.5153 124.26 68.6329C123.979 68.7504 123.678 68.8115 123.373 68.8126L122.779 68.8146C122.164 68.8168 121.574 68.5744 121.138 68.1409C120.701 67.7074 120.455 67.1182 120.453 66.5029L120.451 66.0507C120.45 65.7461 120.509 65.4442 120.625 65.1623C120.74 64.8805 120.91 64.6241 121.124 64.408C121.339 64.1918 121.594 64.02 121.875 63.9025C122.155 63.7849 122.456 63.7239 122.761 63.7228L123.356 63.7207C123.97 63.7186 124.561 63.9609 124.997 64.3944C125.433 64.828 125.679 65.4172 125.681 66.0324L125.683 66.4847ZM124.528 66.0097C124.527 65.6559 124.386 65.3169 124.136 65.0671C123.885 64.8174 123.546 64.6775 123.193 64.6781L122.939 64.6785C122.586 64.6791 122.247 64.8203 121.998 65.0709C121.748 65.3215 121.608 65.661 121.609 66.0148L121.61 66.5094C121.61 66.8632 121.751 67.2022 122.002 67.4519C122.252 67.7017 122.591 67.8416 122.945 67.841L123.198 67.8406C123.552 67.8399 123.89 67.6988 124.14 67.4482C124.389 67.1976 124.529 66.858 124.529 66.5043L124.528 66.0097Z" fill="#494A52"/>
<g id="Group 52">
<path id="Vector_14" d="M51.1721 64.0943C51.2393 64.1268 51.2631 64.1789 51.2436 64.2505C51.1786 64.4864 50.9251 64.6718 50.8162 64.9093C50.811 64.9211 50.8034 64.9318 50.794 64.9406C50.7845 64.9494 50.7734 64.9562 50.7612 64.9606C50.7491 64.965 50.7362 64.967 50.7233 64.9662C50.7104 64.9655 50.6978 64.9622 50.6862 64.9565C50.1965 64.7125 49.6986 64.6268 49.1927 64.6995C48.5816 64.7857 48.671 65.5064 49.2154 65.6463C50.0004 65.848 51.3314 66.053 51.4711 67.0876C51.7263 68.9601 49.5015 68.9861 48.3265 68.6884C48.0426 68.6157 47.7858 68.4877 47.5562 68.3045C47.502 68.26 47.4949 68.209 47.535 68.1515L47.9559 67.548C47.9895 67.4981 48.0329 67.4873 48.086 67.5155C48.7024 67.8354 49.346 67.9238 50.0166 67.7806C50.4018 67.6993 50.4944 67.2064 50.1548 67.0079C49.9706 66.9016 49.7647 66.8284 49.5372 66.7883C49.1732 66.7254 48.8205 66.611 48.4792 66.445C47.6878 66.0627 47.3563 65.1615 47.8406 64.3969C48.4922 63.3688 50.2718 63.6518 51.1721 64.0943Z" fill="#494A52"/>
<path id="Vector_15" d="M54.6369 66.9525C54.5671 66.9084 54.4899 66.8781 54.4094 66.863C53.6602 66.7248 52.4917 66.4368 52.2496 65.5714C52.1141 65.0887 52.1835 64.6701 52.4576 64.3155C53.1743 63.3849 54.8644 63.6599 55.7648 64.104C55.7798 64.1114 55.7931 64.1219 55.8037 64.1348C55.8144 64.1478 55.8221 64.1628 55.8264 64.179C55.8307 64.1952 55.8315 64.2121 55.8287 64.2287C55.8259 64.2452 55.8197 64.2609 55.8103 64.2748L55.3877 64.8849C55.3422 64.9521 55.2826 64.9684 55.209 64.9337C54.7377 64.7124 54.0616 64.5611 53.5676 64.7612C53.4321 64.8154 53.3547 64.9076 53.3352 65.0378C53.2908 65.3371 53.4397 65.5372 53.7821 65.6381C54.0811 65.727 54.3829 65.8083 54.6873 65.8821C54.9896 65.9558 55.294 66.1071 55.6006 66.3359C56.2279 66.8061 56.2003 67.8261 55.677 68.3304C54.9197 69.0608 52.885 68.9616 52.1082 68.2881C52.0681 68.2534 52.0627 68.2144 52.0919 68.171L52.5015 67.5723C52.5491 67.5029 52.6098 67.4883 52.6835 67.5284C53.2409 67.8293 53.9056 67.9091 54.5329 67.7968C55.0107 67.7122 55.0643 67.2209 54.6369 66.9525Z" fill="#494A52"/>
<path id="Vector_16" d="M38.2421 66.4968C38.2415 66.8012 38.1811 67.1026 38.0642 67.3836C37.9474 67.6647 37.7763 67.9199 37.5609 68.1348C37.3455 68.3497 37.0899 68.52 36.8087 68.636C36.5275 68.752 36.2263 68.8115 35.9222 68.8109L35.3111 68.8099C35.007 68.8093 34.706 68.7488 34.4252 68.6318C34.1444 68.5149 33.8894 68.3436 33.6748 68.128C33.4601 67.9124 33.29 67.6565 33.1741 67.3751C33.0582 67.0936 32.9988 66.792 32.9993 66.4876L33.0001 66.0386C33.0006 65.7342 33.0611 65.4328 33.1779 65.1518C33.2948 64.8707 33.4658 64.6155 33.6813 64.4006C33.8967 64.1857 34.1523 64.0154 34.4335 63.8994C34.7146 63.7834 35.0159 63.724 35.32 63.7245L35.931 63.7256C36.2352 63.7261 36.5362 63.7866 36.817 63.9036C37.0977 64.0206 37.3527 64.1918 37.5674 64.4074C37.7821 64.623 37.9522 64.8789 38.0681 65.1604C38.184 65.4418 38.2434 65.7434 38.2428 66.0478L38.2421 66.4968ZM37.078 66.0121C37.0767 65.657 36.9346 65.3169 36.6829 65.0667C36.4312 64.8165 36.0906 64.6767 35.7358 64.6779L35.4856 64.6788C35.3099 64.6794 35.1361 64.7146 34.9741 64.7825C34.812 64.8503 34.6649 64.9495 34.5412 65.0742C34.4174 65.199 34.3194 65.3469 34.2528 65.5096C34.1861 65.6723 34.1521 65.8465 34.1527 66.0223L34.1544 66.5071C34.1557 66.8622 34.2978 67.2022 34.5495 67.4524C34.8012 67.7026 35.1419 67.8425 35.4966 67.8412L35.7469 67.8404C35.9225 67.8398 36.0963 67.8045 36.2583 67.7367C36.4204 67.6688 36.5675 67.5697 36.6912 67.4449C36.815 67.3202 36.913 67.1722 36.9797 67.0096C37.0463 66.8469 37.0803 66.6727 37.0797 66.4969L37.078 66.0121Z" fill="#494A52"/>
<path id="Vector_17" d="M63.6972 66.4938C63.6972 66.798 63.6373 67.0992 63.521 67.3803C63.4047 67.6613 63.2343 67.9167 63.0194 68.1318C62.8045 68.3469 62.5494 68.5176 62.2686 68.634C61.9878 68.7504 61.6869 68.8103 61.383 68.8103H60.7719C60.468 68.8103 60.1671 68.7504 59.8863 68.634C59.6055 68.5176 59.3504 68.3469 59.1355 68.1318C58.9206 67.9167 58.7502 67.6613 58.6339 67.3803C58.5176 67.0992 58.4577 66.798 58.4577 66.4938V66.0415C58.4577 65.4271 58.7015 64.8379 59.1355 64.4035C59.5695 63.969 60.1581 63.725 60.7719 63.725H61.383C61.9967 63.725 62.5854 63.969 63.0194 64.4035C63.4534 64.8379 63.6972 65.4271 63.6972 66.0415V66.4938ZM62.5429 66.0297C62.5439 65.8537 62.5101 65.6792 62.4437 65.5162C62.3772 65.3532 62.2794 65.2049 62.1557 65.0798C62.032 64.9547 61.8849 64.8551 61.7228 64.7869C61.5606 64.7187 61.3867 64.6831 61.2108 64.6822L60.9573 64.6809C60.7815 64.68 60.6072 64.7137 60.4443 64.7802C60.2815 64.8467 60.1334 64.9447 60.0084 65.0685C59.8834 65.1924 59.784 65.3396 59.7158 65.5019C59.6477 65.6642 59.6121 65.8383 59.6112 66.0143L59.6087 66.4926C59.6078 66.6686 59.6415 66.8431 59.7079 67.0061C59.7744 67.1691 59.8723 67.3174 59.996 67.4425C60.1197 67.5676 60.2668 67.6672 60.4289 67.7354C60.591 67.8036 60.7649 67.8392 60.9408 67.8401L61.1943 67.8414C61.3702 67.8423 61.5445 67.8086 61.7073 67.7421C61.8701 67.6756 62.0183 67.5776 62.1433 67.4538C62.2683 67.3299 62.3677 67.1827 62.4358 67.0204C62.504 66.8581 62.5395 66.684 62.5404 66.508L62.5429 66.0297Z" fill="#494A52"/>
<path id="Vector_18" d="M24.5538 67.3316L24.5555 68.6802C24.5555 68.703 24.5441 68.7144 24.5213 68.7144L23.4715 68.7193C23.4368 68.7193 23.4195 68.7025 23.4195 68.6688L23.4211 63.9137C23.4211 63.8541 23.4504 63.8237 23.5089 63.8226C24.5479 63.7998 25.393 63.8118 26.0441 63.8584C26.9314 63.9218 27.5766 64.6685 27.523 65.5714C27.4569 66.6863 26.7938 67.2394 25.5338 67.2307C25.2456 67.2297 24.9536 67.2286 24.6579 67.2275C24.5885 67.2275 24.5538 67.2622 24.5538 67.3316ZM24.5571 64.8524L24.5538 66.2026C24.5538 66.2225 24.5617 66.2415 24.5757 66.2555C24.5898 66.2696 24.6088 66.2774 24.6286 66.2774L25.6362 66.2791C25.7348 66.2793 25.8325 66.2612 25.9237 66.2258C26.0148 66.1905 26.0977 66.1385 26.1676 66.073C26.2375 66.0074 26.293 65.9295 26.3309 65.8437C26.3688 65.758 26.3884 65.666 26.3886 65.573V65.4884C26.3891 65.3008 26.3104 65.1206 26.1699 64.9876C26.0294 64.8546 25.8386 64.7796 25.6394 64.7792L24.6319 64.7775C24.612 64.7775 24.593 64.7854 24.579 64.7995C24.565 64.8135 24.5571 64.8325 24.5571 64.8524Z" fill="#494A52"/>
<path id="Vector_19" d="M31.5095 66.9379L32.4569 68.6802C32.4586 68.6833 32.4594 68.6869 32.4593 68.6904C32.4592 68.694 32.4583 68.6975 32.4565 68.7005C32.4547 68.7036 32.4522 68.7062 32.4491 68.7081C32.4461 68.7099 32.4426 68.7109 32.439 68.7111L31.3209 68.7208C31.2841 68.7208 31.257 68.7046 31.2397 68.672L30.3897 67.1022C30.3572 67.0404 30.3058 67.0095 30.2353 67.0095H29.5755C29.5062 67.0095 29.4715 67.0442 29.4715 67.1136L29.4699 68.6818C29.4699 68.7035 29.4596 68.7143 29.439 68.7143L28.3859 68.7192C28.3513 68.7192 28.3339 68.7019 28.3339 68.6672V63.8844C28.3339 63.8758 28.3356 63.8674 28.3389 63.8595C28.3421 63.8516 28.3469 63.8444 28.353 63.8384C28.359 63.8323 28.3662 63.8275 28.3741 63.8243C28.3819 63.821 28.3904 63.8193 28.3989 63.8193C29.1183 63.8139 29.8664 63.8161 30.6433 63.8258C31.4948 63.8356 32.2944 64.2813 32.4114 65.1809C32.51 65.9455 32.2218 66.4921 31.5468 66.8207C31.4938 66.8468 31.4813 66.8858 31.5095 66.9379ZM29.4699 64.8474L29.4732 66.0675C29.4732 66.0835 29.4795 66.0988 29.4908 66.1101C29.502 66.1214 29.5173 66.1277 29.5333 66.1277L30.5864 66.1245C30.6806 66.1242 30.7739 66.1073 30.8609 66.0748C30.9478 66.0423 31.0268 65.9947 31.0932 65.9349C31.1596 65.8751 31.2122 65.8041 31.2479 65.7261C31.2837 65.6481 31.3019 65.5645 31.3014 65.4803V65.4217C31.3006 65.2519 31.2245 65.0894 31.0899 64.9699C30.9552 64.8503 30.773 64.7835 30.5831 64.784L29.53 64.7873C29.5221 64.7873 29.5143 64.7888 29.507 64.7918C29.4997 64.7949 29.4931 64.7993 29.4875 64.8049C29.4819 64.8105 29.4775 64.8171 29.4745 64.8244C29.4715 64.8317 29.4699 64.8395 29.4699 64.8474Z" fill="#494A52"/>
<path id="Vector_20" d="M40.126 65.8171H42.3606C42.3752 65.8171 42.3893 65.8229 42.3996 65.8333C42.41 65.8437 42.4158 65.8578 42.4158 65.8724V66.7281C42.4158 66.7354 42.4144 66.7426 42.4116 66.7493C42.4088 66.756 42.4048 66.7621 42.3996 66.7672C42.3945 66.7724 42.3884 66.7764 42.3817 66.7792C42.375 66.782 42.3678 66.7834 42.3606 66.7834L40.1292 66.7851C40.1146 66.7851 40.1005 66.7909 40.0902 66.8013C40.0798 66.8116 40.074 66.8257 40.074 66.8404L40.0772 68.6591C40.0772 68.6738 40.0714 68.6879 40.0611 68.6982C40.0507 68.7086 40.0366 68.7144 40.022 68.7144L38.9949 68.7177C38.9802 68.7177 38.9662 68.7119 38.9558 68.7015C38.9455 68.6911 38.9396 68.6771 38.9396 68.6624V63.8715C38.9396 63.8568 38.9455 63.8427 38.9558 63.8324C38.9662 63.822 38.9802 63.8162 38.9949 63.8162L42.5215 63.8194C42.5287 63.8194 42.5359 63.8208 42.5426 63.8236C42.5493 63.8264 42.5554 63.8305 42.5605 63.8356C42.5657 63.8408 42.5697 63.8468 42.5725 63.8536C42.5753 63.8603 42.5767 63.8675 42.5767 63.8747L42.5751 64.7386C42.5751 64.7532 42.5693 64.7673 42.5589 64.7777C42.5485 64.788 42.5345 64.7939 42.5198 64.7939L40.1357 64.7841C40.1285 64.7841 40.1213 64.7855 40.1146 64.7883C40.1079 64.7911 40.1018 64.7952 40.0967 64.8003C40.0915 64.8054 40.0875 64.8115 40.0847 64.8182C40.0819 64.825 40.0805 64.8322 40.0805 64.8394L40.0707 65.7618C40.0707 65.7691 40.0722 65.7763 40.0749 65.783C40.0777 65.7897 40.0818 65.7958 40.0869 65.8009C40.0921 65.8061 40.0981 65.8101 40.1048 65.8129C40.1116 65.8157 40.1187 65.8171 40.126 65.8171Z" fill="#494A52"/>
<path id="Vector_21" d="M44.4815 65.7471L46.7079 65.7536C46.7161 65.7536 46.7243 65.7553 46.7319 65.7585C46.7395 65.7617 46.7464 65.7664 46.7522 65.7723C46.7579 65.7782 46.7624 65.7852 46.7654 65.7929C46.7684 65.8006 46.7699 65.8088 46.7697 65.8171L46.7567 66.6728C46.7567 66.681 46.755 66.6892 46.7518 66.6968C46.7486 66.7044 46.7439 66.7113 46.738 66.7171C46.7321 66.7228 46.7251 66.7274 46.7174 66.7304C46.7097 66.7334 46.7015 66.7348 46.6933 66.7346L44.4896 66.7216C44.4732 66.7216 44.4575 66.7281 44.4459 66.7397C44.4343 66.7513 44.4278 66.767 44.4278 66.7834L44.4213 67.6911C44.4213 67.7075 44.4278 67.7233 44.4394 67.7349C44.451 67.7465 44.4667 67.753 44.4831 67.753L46.8802 67.7513C46.8965 67.7513 46.9123 67.7578 46.9238 67.7694C46.9354 67.781 46.9419 67.7968 46.9419 67.8132V68.6558C46.9419 68.6722 46.9354 68.688 46.9238 68.6995C46.9123 68.7111 46.8965 68.7177 46.8802 68.7177H43.3487C43.3323 68.7177 43.3166 68.7111 43.3051 68.6995C43.2935 68.688 43.287 68.6722 43.287 68.6558L43.2853 63.8796C43.2853 63.8632 43.2918 63.8474 43.3034 63.8359C43.315 63.8243 43.3307 63.8177 43.3471 63.8177L46.8525 63.8194C46.8689 63.8194 46.8846 63.8259 46.8962 63.8375C46.9078 63.8491 46.9143 63.8648 46.9143 63.8812L46.9159 64.7304C46.9159 64.7468 46.9094 64.7625 46.8978 64.7741C46.8863 64.7857 46.8705 64.7922 46.8542 64.7922L44.4863 64.7841C44.4699 64.7841 44.4542 64.7906 44.4427 64.8022C44.4311 64.8138 44.4246 64.8295 44.4246 64.8459L44.4197 65.6853C44.4197 65.7017 44.4262 65.7174 44.4378 65.729C44.4494 65.7406 44.4651 65.7471 44.4815 65.7471Z" fill="#494A52"/>
<path id="Vector_22" d="M57.7361 63.8177H56.6863C56.6566 63.8177 56.6326 63.8418 56.6326 63.8714V68.664C56.6326 68.6936 56.6566 68.7177 56.6863 68.7177H57.7361C57.7657 68.7177 57.7897 68.6936 57.7897 68.664V63.8714C57.7897 63.8418 57.7657 63.8177 57.7361 63.8177Z" fill="#494A52"/>
<path id="Vector_23" d="M65.5515 65.6316L65.5483 68.6835C65.5483 68.7041 65.538 68.7144 65.5174 68.7144L64.4448 68.7176C64.4242 68.7176 64.4139 68.7073 64.4139 68.6867L64.4123 63.8877C64.4123 63.8698 64.4193 63.8527 64.4317 63.8399C64.4442 63.8271 64.4611 63.8198 64.4789 63.8193C64.9112 63.8128 65.3386 63.8145 65.7612 63.8242C65.8868 63.8275 65.9567 63.886 65.9708 63.9999C65.9784 64.0606 65.9979 64.117 66.0293 64.1691C66.5797 65.0703 67.0813 65.9488 67.5342 66.8045C67.6599 67.042 67.7227 67.0263 67.7227 66.7573L67.726 63.8665C67.726 63.8329 67.7428 63.8161 67.7764 63.8161L68.8099 63.8145C68.8446 63.8145 68.8619 63.8318 68.8619 63.8665V68.6363C68.8619 68.6905 68.8349 68.7176 68.7807 68.7176H67.5066C67.447 68.7176 67.402 68.6916 67.3717 68.6395C66.8072 67.6613 66.2292 66.651 65.6377 65.6088C65.5802 65.509 65.5515 65.5166 65.5515 65.6316Z" fill="#494A52"/>
<path id="Vector_24" d="M73.4335 66.2579C73.7747 67.0518 74.103 67.856 74.4183 68.6704C74.4281 68.6986 74.4183 68.7127 74.3891 68.7127L73.2644 68.7192C73.2395 68.7192 73.2227 68.7078 73.2141 68.6851L72.9004 67.8245C72.8777 67.7616 72.8322 67.7301 72.7639 67.7301H70.986C70.9253 67.7301 70.8852 67.7589 70.8657 67.8164L70.5439 68.6997C70.5407 68.7095 70.5337 68.7144 70.5228 68.7144L69.3527 68.716C69.3489 68.7163 69.3451 68.7157 69.3416 68.714C69.3381 68.7124 69.3351 68.7098 69.3329 68.7066C69.3306 68.7033 69.3291 68.6995 69.3286 68.6955C69.3281 68.6914 69.3286 68.6873 69.33 68.6834L71.2883 63.9007C71.3099 63.8464 71.35 63.8193 71.4085 63.8193L72.3917 63.821C72.4611 63.821 72.5023 63.8551 72.5153 63.9234C72.5998 64.3708 72.8809 64.8686 73.0451 65.2997C73.1696 65.6272 73.2991 65.9466 73.4335 66.2579ZM71.3094 66.7118C71.3063 66.72 71.3052 66.7289 71.3062 66.7377C71.3072 66.7465 71.3103 66.7549 71.3153 66.7622C71.3202 66.7695 71.3268 66.7756 71.3346 66.7798C71.3423 66.7841 71.3509 66.7864 71.3598 66.7866H72.4031C72.4119 66.7864 72.4206 66.7841 72.4283 66.7798C72.4361 66.7756 72.4427 66.7695 72.4476 66.7622C72.4526 66.7549 72.4557 66.7465 72.4567 66.7377C72.4577 66.7289 72.4566 66.72 72.4535 66.7118L71.9334 65.3469C71.9296 65.3362 71.9225 65.3269 71.9132 65.3203C71.9039 65.3138 71.8928 65.3103 71.8814 65.3103C71.8701 65.3103 71.859 65.3138 71.8497 65.3203C71.8403 65.3269 71.8333 65.3362 71.8294 65.3469L71.3094 66.7118Z" fill="#494A52"/>
<path id="Vector_25" d="M76.2076 67.7514L78.4731 67.753C78.4877 67.753 78.5018 67.7588 78.5121 67.7692C78.5225 67.7796 78.5283 67.7936 78.5283 67.8083L78.5267 68.6624C78.5267 68.6771 78.5209 68.6911 78.5105 68.7015C78.5002 68.7119 78.4861 68.7177 78.4714 68.7177H75.0749C75.0676 68.7177 75.0604 68.7163 75.0537 68.7135C75.047 68.7107 75.0409 68.7066 75.0358 68.7015C75.0307 68.6964 75.0266 68.6903 75.0238 68.6835C75.0211 68.6768 75.0196 68.6696 75.0196 68.6624L75.018 63.8731C75.018 63.8658 75.0194 63.8586 75.0222 63.8519C75.025 63.8452 75.0291 63.8391 75.0342 63.834C75.0393 63.8289 75.0454 63.8248 75.0521 63.822C75.0588 63.8192 75.066 63.8178 75.0733 63.8178L76.0971 63.8162C76.1118 63.8162 76.1258 63.822 76.1362 63.8324C76.1465 63.8427 76.1524 63.8568 76.1524 63.8715V67.6961C76.1524 67.7107 76.1582 67.7248 76.1685 67.7352C76.1789 67.7456 76.193 67.7514 76.2076 67.7514Z" fill="#494A52"/>
</g>
<path id="Vector_26" d="M81.2943 63.8861C81.2943 63.8667 81.302 63.848 81.3157 63.8343C81.3294 63.8206 81.348 63.8129 81.3674 63.8129H83.5159C84.1154 63.8129 84.6904 64.0504 85.1143 64.4733C85.5383 64.8961 85.7764 65.4696 85.7764 66.0676V66.4678C85.7764 67.0658 85.5383 67.6393 85.1143 68.0621C84.6904 68.485 84.1154 68.7225 83.5159 68.7225H81.3674C81.348 68.7225 81.3294 68.7148 81.3157 68.7011C81.302 68.6874 81.2943 68.6687 81.2943 68.6493V63.8861ZM82.4286 64.8589L82.4351 67.6798C82.4351 67.7022 82.444 67.7237 82.4599 67.7396C82.4757 67.7554 82.4972 67.7644 82.5196 67.7644L83.3403 67.7627C83.6775 67.7619 84.0006 67.6248 84.2386 67.3817C84.4766 67.1386 84.61 66.8093 84.6096 66.4662V66.066C84.6094 65.8958 84.5762 65.7273 84.5119 65.5702C84.4477 65.413 84.3536 65.2703 84.2351 65.1502C84.1166 65.0301 83.9761 64.9349 83.8214 64.8702C83.6668 64.8054 83.5011 64.7722 83.3338 64.7727L82.5131 64.7743C82.4907 64.7743 82.4692 64.7832 82.4534 64.7991C82.4375 64.8149 82.4286 64.8365 82.4286 64.8589Z" fill="#494A52"/>
<path id="Vector_27" d="M87.5137 63.8177H86.4899C86.4594 63.8177 86.4346 63.8425 86.4346 63.8731V68.6623C86.4346 68.6929 86.4594 68.7177 86.4899 68.7177H87.5137C87.5442 68.7177 87.569 68.6929 87.569 68.6623V63.8731C87.569 63.8425 87.5442 63.8177 87.5137 63.8177Z" fill="#494A52"/>
<path id="Vector_28" d="M93.9152 63.8177H92.8881C92.8576 63.8177 92.8328 63.8425 92.8328 63.8731V68.6623C92.8328 68.6929 92.8576 68.7177 92.8881 68.7177H93.9152C93.9457 68.7177 93.9704 68.6929 93.9704 68.6623V63.8731C93.9704 63.8425 93.9457 63.8177 93.9152 63.8177Z" fill="#494A52"/>
<path id="Vector_29" d="M96.0214 65.6382C95.9542 65.5221 95.9206 65.5308 95.9206 65.6642V68.677C95.9206 68.6874 95.9163 68.6973 95.9087 68.7046C95.9011 68.712 95.8908 68.7161 95.88 68.7161L94.8139 68.7177C94.7803 68.7177 94.7635 68.7009 94.7635 68.6673L94.7651 63.9187C94.7651 63.8514 94.7987 63.8178 94.8659 63.8178H96.1026C96.1741 63.8178 96.2278 63.8492 96.2635 63.9121L97.9455 66.8485C98.0311 66.9982 98.0739 66.9868 98.0739 66.8143V63.8764C98.0739 63.8373 98.0929 63.8178 98.1308 63.8178L99.1693 63.8162C99.2094 63.8162 99.2294 63.8362 99.2294 63.8764L99.231 68.6071C99.231 68.6808 99.1937 68.7177 99.1189 68.7177H97.8692C97.8107 68.7177 97.7668 68.6922 97.7375 68.6412L96.0214 65.6382Z" fill="#494A52"/>
<path id="Vector_30" d="M101.162 66.8387V68.664C101.162 68.6782 101.156 68.6919 101.146 68.702C101.136 68.712 101.122 68.7177 101.108 68.7177H100.078C100.071 68.7177 100.064 68.7163 100.057 68.7136C100.051 68.7109 100.045 68.707 100.04 68.702C100.035 68.697 100.031 68.6911 100.028 68.6846C100.026 68.678 100.024 68.6711 100.024 68.664V63.8698C100.024 63.8628 100.026 63.8558 100.028 63.8493C100.031 63.8428 100.035 63.8369 100.04 63.8319C100.045 63.8269 100.051 63.8229 100.057 63.8202C100.064 63.8176 100.071 63.8162 100.078 63.8162L103.609 63.821C103.623 63.821 103.637 63.8267 103.647 63.8368C103.657 63.8468 103.663 63.8605 103.663 63.8747L103.66 64.7434C103.66 64.7577 103.654 64.7713 103.644 64.7814C103.634 64.7915 103.62 64.7971 103.606 64.7971L101.215 64.7825C101.201 64.7825 101.187 64.7881 101.177 64.7982C101.167 64.8083 101.162 64.8219 101.162 64.8362L101.163 65.7634C101.163 65.7705 101.165 65.7775 101.167 65.784C101.17 65.7905 101.174 65.7964 101.179 65.8014C101.184 65.8064 101.19 65.8103 101.196 65.813C101.203 65.8157 101.21 65.8171 101.217 65.8171L103.461 65.8187C103.476 65.8187 103.489 65.8244 103.499 65.8345C103.509 65.8445 103.515 65.8582 103.515 65.8724V66.7265C103.515 66.7407 103.509 66.7544 103.499 66.7645C103.489 66.7745 103.476 66.7802 103.461 66.7802L101.215 66.7851C101.201 66.7851 101.187 66.7907 101.177 66.8008C101.167 66.8109 101.162 66.8245 101.162 66.8387Z" fill="#494A52"/>
<path id="Vector_31" d="M105.571 65.7488L107.796 65.7504C107.804 65.7504 107.812 65.7521 107.82 65.7554C107.828 65.7587 107.835 65.7635 107.841 65.7695C107.847 65.7756 107.852 65.7828 107.855 65.7907C107.858 65.7986 107.859 65.807 107.859 65.8155L107.838 66.6744C107.837 66.6909 107.831 66.7067 107.819 66.7182C107.807 66.7298 107.791 66.7362 107.774 66.7362L105.576 66.7167C105.559 66.7167 105.543 66.7234 105.531 66.7353C105.519 66.7472 105.512 66.7633 105.512 66.7801L105.507 67.6879C105.507 67.7047 105.514 67.7209 105.526 67.7328C105.538 67.7447 105.554 67.7513 105.571 67.7513L107.942 67.753C107.959 67.753 107.975 67.7596 107.987 67.7715C107.999 67.7834 108.005 67.7996 108.005 67.8164L108.008 68.6542C108.008 68.671 108.002 68.6872 107.99 68.6991C107.978 68.711 107.962 68.7177 107.945 68.7177H104.435C104.418 68.7177 104.402 68.711 104.39 68.6991C104.378 68.6872 104.371 68.671 104.371 68.6542V63.8812C104.371 63.8644 104.378 63.8482 104.39 63.8363C104.402 63.8244 104.418 63.8177 104.435 63.8177H107.922C107.939 63.8177 107.955 63.8244 107.967 63.8363C107.979 63.8482 107.986 63.8644 107.986 63.8812L107.978 64.7304C107.978 64.7387 107.976 64.747 107.973 64.7547C107.97 64.7624 107.965 64.7694 107.959 64.7752C107.953 64.7811 107.946 64.7858 107.938 64.789C107.931 64.7922 107.923 64.7938 107.914 64.7938L105.574 64.7808C105.557 64.7808 105.541 64.7875 105.529 64.7994C105.517 64.8113 105.511 64.8274 105.511 64.8443L105.507 65.6853C105.507 65.7021 105.514 65.7183 105.526 65.7302C105.538 65.7421 105.554 65.7488 105.571 65.7488Z" fill="#494A52"/>
<path id="Vector_32" d="M115.144 64.7792L113.679 64.7987C113.671 64.7987 113.664 64.7973 113.657 64.7944C113.65 64.7916 113.644 64.7874 113.638 64.7821C113.633 64.7768 113.629 64.7705 113.626 64.7636C113.623 64.7567 113.622 64.7493 113.622 64.7418L113.612 63.8764C113.612 63.8689 113.613 63.8615 113.616 63.8546C113.619 63.8477 113.623 63.8414 113.629 63.8361C113.634 63.8308 113.64 63.8266 113.647 63.8238C113.654 63.8209 113.661 63.8194 113.669 63.8194L117.886 63.8162C117.901 63.8162 117.916 63.8222 117.926 63.8328C117.937 63.8435 117.943 63.858 117.943 63.8731L117.935 64.7451C117.935 64.7525 117.933 64.7599 117.931 64.7668C117.928 64.7738 117.923 64.78 117.918 64.7853C117.913 64.7906 117.907 64.7948 117.9 64.7977C117.893 64.8005 117.885 64.802 117.878 64.802L116.414 64.7808C116.406 64.7808 116.399 64.7823 116.392 64.7852C116.385 64.788 116.379 64.7922 116.374 64.7975C116.368 64.8028 116.364 64.8091 116.361 64.816C116.358 64.8229 116.357 64.8303 116.357 64.8378V68.6591C116.357 68.6742 116.351 68.6887 116.34 68.6994C116.33 68.7101 116.315 68.7161 116.3 68.7161L115.257 68.7177C115.249 68.7177 115.242 68.7162 115.235 68.7134C115.228 68.7105 115.222 68.7063 115.216 68.701C115.211 68.6957 115.207 68.6895 115.204 68.6825C115.201 68.6756 115.2 68.6682 115.2 68.6608L115.201 64.8362C115.201 64.8211 115.195 64.8066 115.185 64.7959C115.174 64.7852 115.16 64.7792 115.144 64.7792Z" fill="#494A52"/>
<path id="Vector_33" d="M119.716 63.8177H118.686C118.656 63.8177 118.632 63.8418 118.632 63.8714V68.664C118.632 68.6936 118.656 68.7177 118.686 68.7177H119.716C119.746 68.7177 119.77 68.6936 119.77 68.664V63.8714C119.77 63.8418 119.746 63.8177 119.716 63.8177Z" fill="#494A52"/>
<path id="Vector_34" d="M127.427 65.6398L127.426 68.6477C127.426 68.6933 127.403 68.716 127.357 68.716L126.343 68.7177C126.309 68.7177 126.291 68.7008 126.291 68.6672L126.293 63.9186C126.293 63.8514 126.326 63.8177 126.392 63.8177H127.613C127.684 63.8177 127.738 63.8492 127.774 63.9121L129.495 66.9168C129.567 67.0426 129.603 67.0328 129.603 66.8875L129.6 63.8763C129.6 63.8373 129.62 63.8177 129.659 63.8177H130.648C130.673 63.8177 130.696 63.8273 130.713 63.8444C130.73 63.8615 130.739 63.8847 130.739 63.9088V68.6363C130.739 68.6905 130.712 68.7177 130.658 68.7177H129.394C129.326 68.7177 129.275 68.6878 129.241 68.6282L127.517 65.617C127.457 65.514 127.427 65.5215 127.427 65.6398Z" fill="#494A52"/>
</g>
</g>
</svg>
