<svg width="182" height="100" viewBox="0 0 182 100" fill="none" xmlns="http://www.w3.org/2000/svg">
<g id="Dentament">
<g id="Group 51">
<path id="Vector" d="M65.6387 54.0532L65.5918 38.2418C65.5918 37.6887 65.8736 37.3964 66.4371 37.3651L68.7071 37.2555C68.8479 37.247 68.9889 37.2678 69.1215 37.3166C69.2541 37.3655 69.3755 37.4414 69.4782 37.5397C69.5808 37.6379 69.6626 37.7565 69.7185 37.888C69.7743 38.0195 69.8031 38.1612 69.8029 38.3044L69.8186 64.2132C69.8186 64.9542 69.5577 65.0585 69.0358 64.5263L50.8136 46.1318C50.2396 45.5578 49.9578 45.6726 49.9682 46.4762L50.1091 62.9138C50.1092 62.9851 50.0949 63.0556 50.0672 63.1212C50.0395 63.1868 49.9988 63.2462 49.9477 63.2958C49.8966 63.3455 49.8361 63.3843 49.7697 63.4102C49.7033 63.436 49.6324 63.4482 49.5612 63.4461H46.3676C46.0441 63.4356 45.8823 63.2687 45.8823 62.9451L45.898 36.7389C45.898 35.8936 46.1954 35.7735 46.7903 36.3789L64.5742 54.4759C65.2839 55.196 65.6387 55.0551 65.6387 54.0532Z" fill="#2B2C2E"/>
<path id="Vector_2" d="M135.773 48.934L128.775 64.0252C128.738 64.1011 128.68 64.1651 128.608 64.2098C128.536 64.2544 128.453 64.2781 128.368 64.2781C128.284 64.2781 128.201 64.2544 128.129 64.2098C128.057 64.1651 127.999 64.1011 127.961 64.0252L121.167 48.9653C120.76 48.0573 120.463 48.0938 120.275 49.0749L117.786 62.1467C117.619 63.0546 117.347 63.0859 116.971 62.2406C115.876 59.7671 114.295 57.7476 115.03 54.8045C116.439 49.1062 117.587 43.3504 118.474 37.5372C118.756 35.6274 119.294 35.5543 120.087 37.3181L127.867 54.7263C128.191 55.4568 128.525 55.462 128.869 54.7419L137.542 36.3005C137.579 36.2267 137.638 36.1665 137.711 36.1285C137.785 36.0904 137.868 36.0765 137.95 36.0886C138.031 36.1008 138.107 36.1384 138.166 36.1962C138.225 36.2539 138.264 36.3288 138.278 36.4101L143.021 62.6006C143.136 63.206 142.885 63.5034 142.27 63.493L139.906 63.446C139.321 63.4356 138.977 63.1381 138.873 62.5537L136.681 49.0592C136.514 48.0469 136.211 48.0051 135.773 48.934Z" fill="#2B2C2E"/>
<path id="Vector_3" d="M93.9271 57.9672C93.6245 59.6161 93.0348 61.192 92.1581 62.6949C91.8555 63.2063 91.4067 63.462 90.8118 63.462L88.5732 63.4777C87.853 63.4881 87.6495 63.1698 87.9626 62.5227L100.361 36.7862C100.413 36.6845 100.492 36.5993 100.59 36.5404C100.688 36.4814 100.8 36.4511 100.914 36.4527C101.028 36.4543 101.14 36.4879 101.235 36.5496C101.331 36.6113 101.408 36.6987 101.457 36.8018L113.355 62.9297C113.388 62.9964 113.403 63.0706 113.398 63.1449C113.394 63.2193 113.37 63.2911 113.328 63.353C113.287 63.415 113.23 63.465 113.163 63.4978C113.096 63.5307 113.022 63.5454 112.948 63.5403L109.911 63.415C109.389 63.3942 109.018 63.1437 108.799 62.6636L106.639 57.9045C106.409 57.414 106.028 57.1688 105.496 57.1688L94.8977 57.1531C94.355 57.1531 94.0315 57.4244 93.9271 57.9672ZM96.8702 52.8011C96.8335 52.8765 96.8163 52.96 96.8202 53.0438C96.8242 53.1276 96.8491 53.2092 96.8927 53.2808C96.9364 53.3525 96.9973 53.4121 97.07 53.4541C97.1426 53.4961 97.2247 53.5192 97.3086 53.5212H104.447C104.531 53.5192 104.613 53.4961 104.686 53.4541C104.758 53.4121 104.819 53.3525 104.863 53.2808C104.907 53.2092 104.932 53.1276 104.936 53.0438C104.939 52.96 104.922 52.8765 104.886 52.8011L101.332 45.5842C101.292 45.4978 101.227 45.4247 101.147 45.3734C101.067 45.3222 100.973 45.295 100.878 45.295C100.783 45.295 100.689 45.3222 100.609 45.3734C100.528 45.4247 100.464 45.4978 100.424 45.5842L96.8702 52.8011Z" fill="#2B2C2E"/>
<path id="Vector_4" d="M1 37.9601C1 37.88 1.01579 37.8006 1.04647 37.7265C1.07716 37.6524 1.12213 37.5851 1.17882 37.5284C1.23552 37.4717 1.30282 37.4268 1.3769 37.3961C1.45097 37.3654 1.53036 37.3496 1.61054 37.3496H8.9057C12.3476 37.3496 15.6486 38.6476 18.0824 40.9582C20.5163 43.2687 21.8836 46.4024 21.8836 49.67V51.1102C21.8836 54.3778 20.5163 57.5115 18.0824 59.822C15.6486 62.1325 12.3476 63.4306 8.9057 63.4306H1.61054C1.53036 63.4306 1.45097 63.4148 1.3769 63.3841C1.30282 63.3534 1.23552 63.3084 1.17882 63.2517C1.12213 63.1951 1.07716 63.1278 1.04647 63.0537C1.01579 62.9796 1 62.9002 1 62.82V37.9601ZM5.96258 59.7517C14.8858 59.7726 18.7317 55.8693 17.5002 48.0419C16.4983 41.686 9.61016 40.4806 4.02138 40.9189C3.97762 40.9223 3.93567 40.9378 3.9003 40.9638C3.86492 40.9897 3.83752 41.0251 3.82122 41.0658C3.80492 41.1066 3.80037 41.1511 3.80808 41.1943C3.81579 41.2375 3.83545 41.2777 3.86484 41.3103L4.41276 41.9834C4.74673 42.4113 4.91893 42.8966 4.92937 43.4393V58.7185C4.92937 59.4073 5.27377 59.7517 5.96258 59.7517Z" fill="#2B2C2E"/>
<path id="Vector_5" d="M29.5387 41.091C29.0795 41.091 28.9699 41.2841 29.2099 41.6702C30.0344 42.9957 30.2536 44.4725 29.8674 46.1006C29.8345 46.2379 29.8335 46.3809 29.8645 46.519C29.8954 46.657 29.9576 46.7865 30.0464 46.8978C30.1351 47.0091 30.2482 47.0994 30.3771 47.1619C30.5061 47.2245 30.6475 47.2577 30.7911 47.259L40.1683 47.2747C40.4814 47.2747 40.638 47.4312 40.638 47.7443L40.591 50.0612C40.5806 50.6144 40.2988 50.891 39.7456 50.891L30.5093 50.9066C30.1336 50.9066 29.9509 51.0945 29.9614 51.4702L29.977 59.1411C29.977 59.5063 30.1544 59.689 30.5093 59.689L40.4031 59.642C40.5292 59.6419 40.6503 59.6909 40.7409 59.7786C40.8315 59.8662 40.8844 59.9857 40.8885 60.1117L40.9041 63.0235C40.9145 63.3052 40.7737 63.4461 40.4814 63.4461H26.7834C26.1886 63.4461 25.8911 63.1435 25.8911 62.5382V38.2731C25.8911 38.0074 25.995 37.7526 26.18 37.5647C26.3649 37.3768 26.6158 37.2712 26.8774 37.2712L40.184 37.3026C40.6432 37.3026 40.878 37.5269 40.8885 37.9757L40.9041 40.3239C40.9145 40.8666 40.6432 41.138 40.0901 41.138L29.5387 41.091Z" fill="#2B2C2E"/>
<path id="Vector_6" d="M82.2489 41.7329L83.0004 42.5939C83.0624 42.6686 83.0957 42.7629 83.0943 42.86L83.1099 63.0704C83.1099 63.1784 83.0671 63.2819 82.9907 63.3582C82.9144 63.4346 82.8109 63.4774 82.7029 63.4774L79.3528 63.4305C79.2448 63.4305 79.1413 63.3876 79.065 63.3113C78.9886 63.2349 78.9458 63.1314 78.9458 63.0235V41.5294C78.9458 41.4214 78.9029 41.3179 78.8265 41.2415C78.7502 41.1652 78.6467 41.1223 78.5387 41.1223L72.9343 41.138C72.829 41.1381 72.7278 41.0973 72.6519 41.0244C72.576 40.9514 72.5313 40.8518 72.5273 40.7466L72.4647 37.6939C72.4625 37.6392 72.4715 37.5846 72.491 37.5333C72.5105 37.4821 72.5402 37.4354 72.5782 37.3959C72.6162 37.3565 72.6618 37.3251 72.7122 37.3037C72.7626 37.2822 72.8169 37.2712 72.8717 37.2712H88.6674C88.7754 37.2712 88.8789 37.3141 88.9552 37.3905C89.0316 37.4668 89.0744 37.5703 89.0744 37.6783L89.1057 40.7466C89.108 40.8027 89.0985 40.8587 89.0781 40.9109C89.0576 40.9632 89.0265 41.0107 88.9868 41.0504C88.9472 41.0901 88.8997 41.1211 88.8474 41.1416C88.7951 41.1621 88.7392 41.1715 88.6831 41.1693L82.562 41.0597C82.4836 41.0587 82.4066 41.0804 82.3402 41.1222C82.2738 41.1639 82.2209 41.2239 82.1878 41.2951C82.1547 41.3662 82.1429 41.4453 82.1538 41.523C82.1646 41.6007 82.1976 41.6735 82.2489 41.7329Z" fill="#2B2C2E"/>
<path id="Vector_7" d="M150.488 40.8405C149.872 40.7779 149.742 41.0023 150.096 41.5137C151.057 42.8705 151.307 44.4203 150.848 46.1632C150.815 46.2945 150.812 46.4318 150.839 46.5644C150.867 46.6971 150.924 46.8217 151.007 46.9288C151.09 47.036 151.197 47.1228 151.318 47.1827C151.44 47.2426 151.573 47.2741 151.709 47.2747L160.648 47.2434C161.201 47.2434 161.472 47.5199 161.462 48.0731L161.446 50.3117C161.446 50.7187 161.237 50.9223 160.82 50.9223L151.662 50.9066C151.567 50.9066 151.474 50.9256 151.386 50.9626C151.299 50.9996 151.22 51.0538 151.153 51.1221C151.086 51.1904 151.033 51.2715 150.997 51.3608C150.96 51.4501 150.942 51.5458 150.942 51.6424L150.973 59.0471C150.973 59.5063 151.203 59.7307 151.662 59.7203L160.538 59.6107C161.384 59.6003 161.827 60.0229 161.869 60.8787L161.947 62.5695C161.951 62.683 161.932 62.7963 161.891 62.9025C161.849 63.0086 161.787 63.1055 161.706 63.1874C161.626 63.2692 161.53 63.3343 161.423 63.3788C161.316 63.4232 161.202 63.4461 161.086 63.4461H147.779C147.555 63.4461 147.34 63.3571 147.182 63.1985C147.023 63.04 146.934 62.825 146.934 62.6008L146.95 37.8661C146.95 37.7083 147.012 37.557 147.124 37.4455C147.236 37.3339 147.387 37.2712 147.545 37.2712L161.352 37.3026C161.717 37.3026 161.9 37.4904 161.9 37.8661V40.637C161.897 40.7453 161.853 40.8485 161.778 40.9265C161.703 41.0046 161.601 41.052 161.493 41.0597C157.632 41.2789 153.963 41.2058 150.488 40.8405Z" fill="#2B2C2E"/>
<path id="Vector_8" d="M174.315 41.8111L175.066 42.8443C175.125 42.9208 175.158 43.014 175.16 43.1105L175.176 63.0704C175.176 63.1313 175.163 63.1917 175.14 63.2478C175.116 63.3039 175.081 63.3547 175.037 63.3971C174.993 63.4394 174.941 63.4725 174.885 63.4944C174.828 63.5163 174.767 63.5265 174.706 63.5244L171.497 63.3678C171.379 63.3638 171.268 63.3142 171.186 63.2295C171.104 63.1447 171.058 63.0316 171.058 62.9138V41.5763C171.058 41.4559 171.011 41.3404 170.925 41.2553C170.84 41.1701 170.725 41.1223 170.604 41.1223H165.157C165.039 41.1224 164.926 41.0767 164.841 40.9949C164.756 40.9131 164.707 40.8016 164.703 40.684L164.609 37.7565C164.607 37.6956 164.617 37.6349 164.639 37.578C164.66 37.5211 164.694 37.4692 164.736 37.4253C164.778 37.3815 164.829 37.3466 164.885 37.3229C164.941 37.2991 165.002 37.2868 165.063 37.2869H180.702C180.82 37.2868 180.933 37.3325 181.017 37.4143C181.102 37.496 181.152 37.6075 181.156 37.7252L181.25 40.684C181.252 40.7449 181.242 40.8056 181.22 40.8625C181.198 40.9194 181.165 40.9713 181.122 41.0152C181.08 41.059 181.029 41.0938 180.973 41.1176C180.917 41.1414 180.857 41.1536 180.796 41.1536L174.69 41.091C174.606 41.0895 174.523 41.1116 174.451 41.1546C174.378 41.1977 174.319 41.2601 174.28 41.3349C174.241 41.4097 174.224 41.4938 174.23 41.5779C174.236 41.6621 174.265 41.7428 174.315 41.8111Z" fill="#2B2C2E"/>
</g>
</g>
</svg>
