<svg width="182" height="100" viewBox="0 0 182 100" fill="none" xmlns="http://www.w3.org/2000/svg">
<g id="Tenet">
<g id="Tenet_2">
<path id="Vector" d="M17.0154 34.1155L17.0208 51.6561C17.0208 51.7068 17.0006 51.7554 16.9648 51.7912C16.9289 51.8271 16.8803 51.8472 16.8296 51.8472L14.0159 51.8578C13.9652 51.8578 13.9166 51.8377 13.8808 51.8018C13.8449 51.766 13.8248 51.7174 13.8248 51.6667L13.8354 34.1102C13.8354 34.0595 13.8153 34.0109 13.7794 33.9751C13.7436 33.9392 13.695 33.9191 13.6443 33.9191L3.20174 33.9403C3.17664 33.9403 3.15179 33.9354 3.1286 33.9258C3.10541 33.9162 3.08434 33.9021 3.0666 33.8844C3.04885 33.8666 3.03477 33.8455 3.02517 33.8224C3.01556 33.7992 3.01062 33.7743 3.01062 33.7492L3 31.2647C3 31.214 3.02014 31.1654 3.05598 31.1295C3.09182 31.0937 3.14043 31.0735 3.19112 31.0735L27.7765 31.0576C27.8272 31.0576 27.8758 31.0778 27.9117 31.1136C27.9475 31.1494 27.9677 31.198 27.9677 31.2487L27.957 33.7439C27.957 33.7946 27.9369 33.8432 27.9011 33.8791C27.8652 33.9149 27.8166 33.935 27.7659 33.935L17.2066 33.9244C17.1815 33.9244 17.1566 33.9294 17.1334 33.939C17.1102 33.9486 17.0892 33.9626 17.0714 33.9804C17.0537 33.9981 17.0396 34.0192 17.03 34.0424C17.0204 34.0656 17.0154 34.0904 17.0154 34.1155Z" fill="black"/>
<path id="Vector_2" d="M43.2888 34.1421V39.7536C43.2888 39.8113 43.3118 39.8667 43.3526 39.9075C43.3934 39.9483 43.4488 39.9712 43.5065 39.9712L65.0765 39.95C65.1333 39.95 65.1879 39.9722 65.2285 40.0119C65.2692 40.0515 65.2927 40.1055 65.2941 40.1623L65.3525 42.6097C65.3532 42.6388 65.3481 42.6676 65.3375 42.6947C65.3269 42.7217 65.311 42.7463 65.2907 42.7671C65.2704 42.7879 65.2462 42.8044 65.2194 42.8156C65.1926 42.8269 65.1639 42.8327 65.1349 42.8327H43.4853C43.4275 42.8327 43.3722 42.8556 43.3313 42.8965C43.2905 42.9373 43.2676 42.9926 43.2676 43.0504L43.2835 48.784C43.2835 48.8417 43.3065 48.8971 43.3473 48.9379C43.3881 48.9787 43.4435 49.0016 43.5012 49.0016H65.1083C65.1661 49.0016 65.2214 49.0246 65.2622 49.0654C65.3031 49.1062 65.326 49.1616 65.326 49.2193L65.3313 51.6348C65.3313 51.6926 65.3084 51.7479 65.2675 51.7887C65.2267 51.8296 65.1714 51.8525 65.1136 51.8525L40.5282 51.8472C40.4705 51.8472 40.4151 51.8243 40.3743 51.7834C40.3335 51.7426 40.3105 51.6873 40.3105 51.6295L40.3212 31.2753C40.3212 31.2176 40.3441 31.1622 40.3849 31.1214C40.4257 31.0805 40.4811 31.0576 40.5388 31.0576L65.1083 31.0629C65.1661 31.0629 65.2214 31.0859 65.2622 31.1267C65.3031 31.1675 65.326 31.2229 65.326 31.2806L65.3101 33.7121C65.3101 33.7698 65.2871 33.8251 65.2463 33.866C65.2055 33.9068 65.1501 33.9297 65.0924 33.9297L43.5065 33.9244C43.4488 33.9244 43.3934 33.9473 43.3526 33.9882C43.3118 34.029 43.2888 34.0843 43.2888 34.1421Z" fill="black"/>
<path id="Vector_3" d="M101.246 47.7169L101.235 31.2488C101.235 31.1213 101.301 31.0559 101.432 31.0523L103.964 31.0417C104.12 31.0417 104.198 31.1178 104.198 31.27L104.203 51.4756C104.203 51.741 104.068 51.872 103.799 51.8684C102.902 51.8419 101.58 52.0914 100.842 51.4862C94.2594 46.0534 87.641 40.6012 80.9872 35.1295C80.9662 35.1125 80.9407 35.1017 80.9138 35.0986C80.8869 35.0954 80.8597 35.0999 80.8352 35.1115C80.8108 35.1232 80.7901 35.1416 80.7757 35.1645C80.7612 35.1874 80.7536 35.2139 80.7536 35.241L80.7377 51.6508C80.7377 51.7782 80.674 51.8419 80.5466 51.8419L77.9877 51.8578C77.9412 51.8578 77.8967 51.8399 77.8638 51.8081C77.831 51.7762 77.8125 51.733 77.8125 51.6879V31.4027C77.8125 31.1868 77.9204 31.0736 78.1363 31.0629C79.1503 31.0152 80.4829 30.8134 81.327 31.5248C87.9666 37.0708 94.4859 42.5248 100.885 47.8868C100.916 47.9139 100.955 47.9313 100.996 47.9368C101.037 47.9423 101.079 47.9358 101.117 47.9179C101.155 47.9001 101.187 47.8717 101.21 47.8361C101.233 47.8005 101.245 47.7592 101.246 47.7169Z" fill="black"/>
<path id="Vector_4" d="M138.456 42.8327L116.886 42.838C116.814 42.838 116.745 42.8095 116.695 42.7587C116.644 42.7079 116.615 42.6391 116.615 42.5673L116.642 40.2314C116.642 40.1596 116.67 40.0907 116.721 40.0399C116.772 39.9891 116.841 39.9606 116.913 39.9606L138.472 39.95C138.507 39.95 138.543 39.943 138.575 39.9294C138.608 39.9158 138.638 39.8958 138.663 39.8707C138.688 39.8455 138.708 39.8157 138.722 39.7829C138.736 39.75 138.743 39.7148 138.743 39.6792L138.759 34.2217C138.759 34.1499 138.73 34.081 138.679 34.0303C138.628 33.9795 138.56 33.951 138.488 33.951L116.897 33.9297C116.825 33.9297 116.756 33.9012 116.705 33.8504C116.654 33.7996 116.626 33.7308 116.626 33.659L116.636 31.3284C116.636 31.2566 116.665 31.1877 116.716 31.1369C116.767 31.0861 116.835 31.0576 116.907 31.0576L141.381 31.0629C141.453 31.0629 141.522 31.0915 141.573 31.1422C141.623 31.193 141.652 31.2619 141.652 31.3337L141.647 51.5817C141.647 51.6536 141.618 51.7224 141.567 51.7732C141.517 51.824 141.448 51.8525 141.376 51.8525H116.902C116.83 51.8525 116.761 51.824 116.71 51.7732C116.66 51.7224 116.631 51.6536 116.631 51.5817V49.2724C116.631 49.2006 116.66 49.1317 116.71 49.0809C116.761 49.0302 116.83 49.0016 116.902 49.0016H138.467C138.502 49.0016 138.537 48.9946 138.57 48.981C138.603 48.9674 138.633 48.9475 138.658 48.9223C138.683 48.8972 138.703 48.8673 138.717 48.8345C138.73 48.8016 138.737 48.7664 138.737 48.7309L138.727 43.1035C138.727 43.0317 138.698 42.9628 138.647 42.912C138.597 42.8612 138.528 42.8327 138.456 42.8327Z" fill="black"/>
<path id="Vector_5" d="M164.735 33.9298H154.229C154.178 33.9298 154.13 33.9096 154.094 33.8738C154.058 33.838 154.038 33.7894 154.038 33.7387L154.017 31.2594C154.017 31.2087 154.037 31.1601 154.073 31.1243C154.108 31.0884 154.157 31.0683 154.208 31.0683L178.809 31.063C178.834 31.063 178.859 31.0679 178.882 31.0775C178.905 31.0871 178.926 31.1012 178.944 31.119C178.962 31.1367 178.976 31.1578 178.986 31.181C178.995 31.2042 179 31.229 179 31.2541L178.99 33.7387C178.99 33.7894 178.969 33.838 178.934 33.8738C178.898 33.9096 178.849 33.9298 178.798 33.9298H168.308C168.283 33.9298 168.258 33.9347 168.235 33.9443C168.212 33.9539 168.191 33.968 168.173 33.9858C168.155 34.0035 168.141 34.0246 168.132 34.0478C168.122 34.071 168.117 34.0958 168.117 34.1209V51.6561C168.117 51.7068 168.097 51.7554 168.061 51.7913C168.025 51.8271 167.977 51.8472 167.926 51.8472L165.117 51.8526C165.067 51.8526 165.018 51.8324 164.982 51.7966C164.946 51.7607 164.926 51.7121 164.926 51.6614V34.1209C164.926 34.0958 164.921 34.071 164.912 34.0478C164.902 34.0246 164.888 34.0035 164.87 33.9858C164.853 33.968 164.832 33.9539 164.808 33.9443C164.785 33.9347 164.76 33.9298 164.735 33.9298Z" fill="black"/>
<path id="Vector_6" d="M103.735 66.9084C103.668 67.1774 103.666 67.5951 103.73 68.1613C103.739 68.2437 103.715 68.3262 103.663 68.3909C103.612 68.4555 103.536 68.4971 103.454 68.5064L103.29 68.5223C103.113 68.5436 103.024 68.4639 103.024 68.2834L102.998 64.4345C102.998 64.2823 103.072 64.2027 103.221 64.1956L103.497 64.1903C103.677 64.1868 103.764 64.2752 103.757 64.4557L103.698 65.5228C103.693 65.6111 103.713 65.6989 103.754 65.7767C103.796 65.8546 103.859 65.9195 103.936 65.9643C104.012 66.0092 104.1 66.0324 104.189 66.0313C104.278 66.0302 104.366 66.0049 104.442 65.9581L107.505 64.0576C107.527 64.0443 107.55 64.0355 107.575 64.0318C107.6 64.0282 107.625 64.0297 107.648 64.0363L108.083 64.185C108.107 64.1932 108.128 64.2079 108.145 64.2273C108.161 64.2468 108.171 64.2701 108.174 64.2947C108.178 64.3192 108.174 64.3439 108.163 64.3658C108.153 64.3878 108.136 64.4061 108.115 64.4186L105.503 66.1068C105.263 66.2625 105.261 66.4182 105.498 66.574L108.089 68.2675C108.114 68.2847 108.131 68.311 108.137 68.3407C108.143 68.3704 108.137 68.4013 108.121 68.4268L108.014 68.5754C107.969 68.6424 107.899 68.6893 107.82 68.7061C107.741 68.7229 107.658 68.7084 107.59 68.6657L104.378 66.643C104.32 66.6076 104.255 66.5864 104.187 66.5811C104.12 66.5758 104.052 66.5865 103.989 66.6124C103.927 66.6382 103.871 66.6785 103.827 66.73C103.783 66.7814 103.751 66.8426 103.735 66.9084Z" fill="black"/>
<path id="Vector_7" d="M20.1521 65.5016C20.1628 64.723 19.9593 64.6628 19.5416 65.3211L17.6835 68.2463C17.6429 68.3099 17.5876 68.3628 17.5223 68.4006C17.457 68.4384 17.3836 68.4601 17.3082 68.4637C17.2329 68.4674 17.1577 68.4529 17.0891 68.4215C17.0204 68.3902 16.9603 68.3428 16.9137 68.2835C16.2165 67.3951 15.606 66.4661 15.0822 65.4963C14.7212 64.8238 14.5283 64.8699 14.5035 65.6343L14.4239 68.3843C14.4239 68.4693 14.3814 68.5117 14.2965 68.5117H14.1106C14.0702 68.5125 14.03 68.5052 13.9924 68.4904C13.9548 68.4755 13.9204 68.4534 13.8913 68.4253C13.8623 68.3972 13.839 68.3637 13.8229 68.3266C13.8068 68.2895 13.7981 68.2496 13.7974 68.2091L13.7603 64.5407C13.7603 64.3107 13.8735 64.1815 14.1 64.1532C14.5884 64.1001 15.0556 64.2169 15.3158 64.6681C15.8431 65.5812 16.4324 66.5032 17.0836 67.434C17.1094 67.4697 17.1439 67.4981 17.1839 67.5164C17.2239 67.5347 17.268 67.5424 17.3118 67.5386C17.3556 67.5349 17.3977 67.5199 17.434 67.495C17.4703 67.4702 17.4996 67.4364 17.5189 67.3969C18.0251 66.3563 18.5701 65.4928 19.1541 64.8062C20.1663 63.6276 20.722 63.8134 20.8211 65.3636C20.8671 66.1033 20.8034 67.1137 20.6299 68.395C20.6235 68.4304 20.6049 68.4623 20.5776 68.4848C20.5502 68.5073 20.516 68.5187 20.4813 68.5171L20.322 68.5064C20.1875 68.4994 20.1203 68.4286 20.1203 68.2941L20.1521 65.5016Z" fill="black"/>
<path id="Vector_8" d="M26.9543 64.1533L26.9331 64.1531C26.7718 64.1523 26.6404 64.2823 26.6396 64.4436L26.6198 68.2235C26.6189 68.3847 26.749 68.5161 26.9102 68.517L26.9315 68.5171C27.0927 68.5179 27.2242 68.3879 27.225 68.2266L27.2448 64.4468C27.2456 64.2855 27.1156 64.1541 26.9543 64.1533Z" fill="black"/>
<path id="Vector_9" d="M33.7116 65.2044L33.6957 68.257C33.6957 68.441 33.6037 68.5383 33.4196 68.549L33.1967 68.5596C33.0657 68.5667 33.0002 68.5029 33.0002 68.3685L32.979 64.6788C32.9795 64.5566 33.016 64.4373 33.0839 64.3357C33.1519 64.2342 33.2483 64.155 33.361 64.1079C33.4738 64.0609 33.5979 64.0482 33.7179 64.0713C33.8379 64.0945 33.9483 64.1525 34.0355 64.2381L37.3588 67.519C37.603 67.7562 37.7216 67.7048 37.7145 67.3651L37.6614 64.4293C37.6607 64.3944 37.6671 64.3598 37.6802 64.3276C37.6934 64.2953 37.713 64.2661 37.7378 64.2417C37.7627 64.2174 37.7923 64.1983 37.8248 64.1858C37.8574 64.1734 37.8921 64.1677 37.9269 64.1691L38.2083 64.1851C38.2613 64.1878 38.3113 64.2108 38.3478 64.2493C38.3844 64.2879 38.4047 64.339 38.4047 64.3921L38.4206 68.1083C38.4221 68.2246 38.3889 68.3387 38.3252 68.436C38.2615 68.5333 38.1701 68.6093 38.0629 68.6544C37.9557 68.6994 37.8375 68.7114 37.7234 68.6889C37.6093 68.6663 37.5045 68.6102 37.4225 68.5277L33.9824 65.0929C33.9601 65.071 33.9319 65.0562 33.9013 65.0503C33.8707 65.0443 33.8391 65.0475 33.8102 65.0593C33.7814 65.0712 33.7567 65.0913 33.7392 65.117C33.7216 65.1428 33.7121 65.1732 33.7116 65.2044Z" fill="black"/>
<path id="Vector_10" d="M44.2925 64.4876C44.2925 64.4026 44.3259 64.3211 44.3854 64.2605C44.445 64.1999 44.526 64.1652 44.611 64.1638L48.1149 64.1319C48.3056 64.1299 48.4948 64.1685 48.6717 64.2453C48.8486 64.3222 49.0097 64.4359 49.1459 64.5799C49.282 64.7239 49.3904 64.8954 49.4649 65.0846C49.5394 65.2737 49.5786 65.4767 49.5801 65.6821L49.5907 67.0093C49.5939 67.4225 49.4447 67.8199 49.176 68.1145C48.9073 68.4091 48.541 68.5768 48.1573 68.5808L44.6535 68.6126C44.6105 68.6133 44.5678 68.6055 44.5279 68.5895C44.488 68.5735 44.4517 68.5498 44.4211 68.5196C44.3904 68.4895 44.3661 68.4536 44.3495 68.4139C44.3329 68.3743 44.3243 68.3317 44.3243 68.2888L44.2925 64.4876ZM45.0198 65.045V67.7101C45.0198 67.7641 45.0409 67.816 45.0785 67.8547C45.1162 67.8933 45.1675 67.9158 45.2215 67.9171L48.0671 67.9224C48.1696 67.9232 48.2712 67.9014 48.3662 67.8583C48.4612 67.8152 48.5476 67.7517 48.6206 67.6713C48.6935 67.5909 48.7516 67.4953 48.7914 67.39C48.8313 67.2846 48.8521 67.1715 48.8528 67.0571V65.7193C48.8542 65.4884 48.7733 65.2664 48.6279 65.1022C48.4825 64.9379 48.2846 64.8448 48.0777 64.8433L45.2322 64.838C45.2045 64.8373 45.177 64.8421 45.1513 64.8522C45.1255 64.8623 45.1021 64.8774 45.0823 64.8967C45.0625 64.916 45.0468 64.9391 45.036 64.9646C45.0253 64.99 45.0198 65.0174 45.0198 65.045Z" fill="black"/>
<path id="Vector_11" d="M56.4279 66.0325L59.0187 66.0006C59.1956 66.0006 59.3036 66.0856 59.3425 66.2555L59.385 66.4466C59.4062 66.5457 59.3655 66.597 59.2629 66.6005L56.3695 66.6695C56.1855 66.6766 56.0917 66.7722 56.0882 66.9562L56.0616 68.3472C56.0581 68.5312 55.9643 68.6338 55.7803 68.6551C55.7201 68.6621 55.6599 68.6533 55.5998 68.6285C55.5431 68.6073 55.5113 68.5666 55.5042 68.5064C55.3555 67.2252 55.3237 65.8697 55.4086 64.4398C55.4193 64.2452 55.5219 64.1478 55.7166 64.1478L59.4487 64.1691C59.4778 64.1697 59.5064 64.1776 59.5317 64.1921C59.5569 64.2065 59.5781 64.227 59.593 64.2516C59.6079 64.2761 59.6162 64.3039 59.6169 64.3322C59.6177 64.3605 59.611 64.3884 59.5973 64.4133L59.454 64.6681C59.4282 64.7161 59.3899 64.7562 59.3432 64.7842C59.2965 64.8123 59.243 64.8272 59.1886 64.8274L56.3483 64.8433C56.1643 64.8468 56.074 64.9406 56.0776 65.1247L56.0882 65.698C56.0889 65.7426 56.0982 65.7867 56.1157 65.8276C56.1331 65.8686 56.1584 65.9056 56.1899 65.9367C56.2215 65.9678 56.2587 65.9922 56.2996 66.0086C56.3404 66.0251 56.384 66.0332 56.4279 66.0325Z" fill="black"/>
<path id="Vector_12" d="M66.6372 67.9436L68.7343 67.9649C69.3395 67.972 69.6332 67.6729 69.6155 67.0677L69.5412 64.4239C69.5341 64.2504 69.6155 64.1655 69.7854 64.169L70.0933 64.1743C70.144 64.1743 70.1926 64.1945 70.2285 64.2303C70.2643 64.2662 70.2844 64.3148 70.2844 64.3655L70.3004 67.2323C70.3039 68.1277 69.8597 68.5754 68.9678 68.5754L66.4833 68.5701C65.6126 68.5701 65.1738 68.133 65.1667 67.2588L65.1401 64.4132C65.1401 64.2257 65.2339 64.1389 65.4215 64.1531L65.6179 64.169C65.6922 64.1731 65.7619 64.2064 65.8124 64.2619C65.8629 64.3173 65.8903 64.3906 65.8887 64.4663L65.8568 67.1473C65.8533 67.6711 66.1134 67.9366 66.6372 67.9436Z" fill="black"/>
<path id="Vector_13" d="M76.4003 67.981L79.4104 67.9279C79.4299 67.9272 79.4494 67.9303 79.4677 67.9371C79.486 67.944 79.5028 67.9543 79.5171 67.9676C79.5314 67.9809 79.5429 67.9969 79.5511 68.0147C79.5592 68.0325 79.5637 68.0517 79.5644 68.0712L79.5803 68.4269C79.5818 68.4473 79.579 68.4678 79.5722 68.4871C79.5654 68.5063 79.5547 68.524 79.5407 68.539C79.5267 68.5539 79.5099 68.5658 79.4911 68.5739C79.4723 68.5821 79.4521 68.5862 79.4316 68.5862L75.7738 68.5543C75.7344 68.5543 75.6966 68.5387 75.6687 68.5108C75.6408 68.4829 75.6252 68.4451 75.6252 68.4057L75.5986 64.3285C75.5985 64.3075 75.6028 64.2868 75.6113 64.2676C75.6197 64.2485 75.6321 64.2313 75.6476 64.2173C75.6632 64.2033 75.6815 64.1927 75.7014 64.1862C75.7213 64.1797 75.7424 64.1776 75.7632 64.1798L76.1083 64.217C76.1449 64.2209 76.1787 64.2383 76.2032 64.2658C76.2278 64.2932 76.2412 64.3288 76.241 64.3656L76.2516 67.8323C76.2516 67.8717 76.2673 67.9096 76.2952 67.9374C76.323 67.9653 76.3609 67.981 76.4003 67.981Z" fill="black"/>
<path id="Vector_14" d="M93.3889 65.3159C93.4031 65.7264 93.6296 65.9405 94.0685 65.9582C95.263 65.9954 98.1882 65.6025 97.5352 67.7155C97.1529 68.9524 94.318 68.6127 93.4102 68.4322C93.0067 68.3543 92.7395 68.1402 92.6085 67.7898C92.3041 66.9793 92.4917 66.8466 93.1713 67.3916C93.196 67.4093 93.3235 67.5279 93.5535 67.7473C93.6951 67.8818 93.8632 67.9473 94.0578 67.9438L96.3778 67.9331C96.5172 67.9321 96.6517 67.8812 96.7568 67.7897C96.862 67.6982 96.9309 67.572 96.9512 67.4341C97.0114 67.0023 96.8415 66.7687 96.4415 66.7333C95.4612 66.6484 94.525 66.5688 93.6331 66.4944C93.344 66.4687 93.076 66.3323 92.8851 66.1137C92.6941 65.8951 92.5951 65.6111 92.6085 65.3212C92.6404 64.6735 92.9925 64.3125 93.665 64.2382C94.6684 64.1214 96.5212 63.9356 97.3175 64.6788C97.452 64.8062 97.5139 64.9637 97.5033 65.1513C97.4962 65.2115 97.4838 65.2681 97.4661 65.3212C97.3954 65.5158 97.2786 65.5495 97.1158 65.422C96.3194 64.7814 95.1816 64.6133 93.7022 64.9177C93.4863 64.9637 93.3819 65.0964 93.3889 65.3159Z" fill="black"/>
<path id="Vector_15" d="M114.393 64.2064L114.308 64.2061C114.126 64.2055 113.978 64.3523 113.978 64.5341L113.965 68.1547C113.965 68.3365 114.111 68.4844 114.293 68.485L114.378 68.4853C114.56 68.486 114.708 68.3391 114.708 68.1573L114.721 64.5367C114.722 64.3549 114.575 64.207 114.393 64.2064Z" fill="black"/>
<path id="Vector_16" d="M120.995 65.2097L120.99 68.2464C120.989 68.3256 120.964 68.4028 120.918 68.4675C120.871 68.5322 120.805 68.5811 120.73 68.6074L120.576 68.6605C120.549 68.6706 120.52 68.674 120.491 68.6703C120.463 68.6667 120.436 68.6561 120.412 68.6395C120.388 68.6229 120.368 68.6007 120.354 68.5748C120.34 68.5489 120.332 68.5201 120.331 68.4906L120.273 64.6895C120.271 64.5609 120.308 64.4347 120.379 64.3271C120.449 64.2195 120.55 64.1352 120.668 64.0851C120.787 64.035 120.917 64.0213 121.044 64.0457C121.17 64.0701 121.286 64.1316 121.377 64.2223L124.669 67.4979C125.03 67.8553 125.198 67.7792 125.173 67.2696L125.03 64.4771C125.028 64.4439 125.034 64.4107 125.045 64.3796C125.057 64.3484 125.074 64.3199 125.097 64.2957C125.12 64.2714 125.147 64.252 125.178 64.2385C125.208 64.225 125.241 64.2176 125.274 64.217L125.47 64.2117C125.686 64.2081 125.794 64.3143 125.794 64.5302L125.8 68.0234C125.8 68.1526 125.761 68.2789 125.69 68.3864C125.618 68.4938 125.516 68.5775 125.396 68.627C125.277 68.6764 125.146 68.6894 125.019 68.6641C124.892 68.6389 124.776 68.5767 124.685 68.4853L121.329 65.077C121.106 64.8469 120.995 64.8912 120.995 65.2097Z" fill="black"/>
<path id="Vector_17" d="M132.42 65.2734C132.289 65.9246 132.269 66.5847 132.361 67.2536C132.386 67.4412 132.478 67.5881 132.637 67.6942C132.931 67.8854 133.255 67.9579 133.609 67.9119C133.789 67.8907 133.968 67.8977 134.145 67.9331C134.92 68.0924 135.538 67.896 135.998 67.3439C136.468 66.7847 136.672 66.8696 136.608 67.5987C136.573 68.0092 136.309 68.2729 135.817 68.3897C134.559 68.687 131.767 69.048 131.597 67.0731C131.506 65.9954 131.411 64.4134 132.834 64.2382C133.848 64.1161 136.051 63.8506 136.608 64.9814C136.739 65.2433 136.704 65.4751 136.502 65.6769C136.35 65.8255 136.21 65.8167 136.083 65.6503C135.998 65.5406 135.943 65.4185 135.918 65.284C135.892 65.1629 135.826 65.0545 135.73 64.9771C135.634 64.8997 135.515 64.8581 135.392 64.8593L132.887 64.8858C132.776 64.8873 132.668 64.9267 132.583 64.9973C132.498 65.0679 132.44 65.1654 132.42 65.2734Z" fill="black"/>
<path id="Vector_18" d="M146.329 67.7047L143.601 67.7101C143.413 67.7136 143.268 67.7932 143.165 67.949C143.002 68.1967 142.912 68.3259 142.894 68.3365C142.144 68.8355 141.978 68.6851 142.395 67.8852C143.008 66.7102 143.627 65.5688 144.253 64.461C144.321 64.342 144.418 64.2432 144.536 64.1748C144.655 64.1064 144.789 64.0708 144.926 64.0719C145.062 64.073 145.196 64.1107 145.313 64.1809C145.43 64.2512 145.526 64.3516 145.591 64.4716L147.513 67.9596C147.736 68.3666 147.621 68.5188 147.168 68.4161C146.938 68.363 146.793 68.2286 146.733 68.0127C146.676 67.8074 146.542 67.7047 146.329 67.7047ZM145.947 67.0624C145.979 67.0629 146.01 67.0549 146.038 67.0393C146.066 67.0237 146.089 67.0009 146.106 66.9734C146.122 66.9459 146.13 66.9145 146.13 66.8826C146.131 66.8507 146.122 66.8193 146.106 66.7916L145.05 64.9866C145.034 64.958 145.011 64.9342 144.982 64.9178C144.954 64.9015 144.922 64.8931 144.889 64.8937C144.856 64.8942 144.824 64.9036 144.797 64.9209C144.769 64.9382 144.746 64.9628 144.731 64.9919L143.786 66.7598C143.772 66.7869 143.765 66.8172 143.765 66.848C143.766 66.8787 143.774 66.9088 143.789 66.9353C143.805 66.9619 143.827 66.9841 143.853 66.9999C143.88 67.0156 143.91 67.0243 143.94 67.0252L145.947 67.0624Z" fill="black"/>
<path id="Vector_19" d="M153.613 67.2483L153.65 68.2623C153.652 68.3264 153.629 68.3888 153.587 68.437C153.545 68.4853 153.486 68.5157 153.422 68.5224L153.225 68.5436C153.202 68.5466 153.179 68.545 153.157 68.5388C153.134 68.5326 153.113 68.5221 153.095 68.5078C153.077 68.4934 153.061 68.4756 153.05 68.4554C153.039 68.4351 153.032 68.4128 153.029 68.3897C152.87 67.0625 152.852 65.7441 152.976 64.4346C152.99 64.2576 153.086 64.1674 153.262 64.1638L157.106 64.1532C157.29 64.1532 157.453 64.2098 157.595 64.3231C158.281 64.861 158.396 65.5477 157.94 66.3829C157.862 66.5245 157.864 66.6661 157.945 66.8076C158.196 67.243 158.281 67.7278 158.2 68.2623C158.189 68.3118 158.166 68.3525 158.131 68.3844L157.839 68.6339C157.821 68.6497 157.8 68.6604 157.777 68.6648C157.754 68.6692 157.73 68.6672 157.708 68.659C157.686 68.6507 157.667 68.6366 157.653 68.6181C157.638 68.5997 157.629 68.5776 157.626 68.5543L157.488 67.3438C157.46 67.0855 157.317 66.9581 157.058 66.9616H153.894C153.703 66.9616 153.609 67.0572 153.613 67.2483ZM157.511 65.3368C157.511 65.2733 157.499 65.2104 157.475 65.1517C157.451 65.0929 157.416 65.0395 157.371 64.9944C157.327 64.9493 157.273 64.9134 157.215 64.8889C157.156 64.8643 157.094 64.8514 157.03 64.8511L154.068 64.8356C154.005 64.8353 153.942 64.8474 153.883 64.8714C153.824 64.8954 153.771 64.9307 153.726 64.9753C153.681 65.0199 153.645 65.073 153.62 65.1315C153.595 65.19 153.583 65.2527 153.582 65.3162L153.58 65.794C153.579 65.8574 153.592 65.9203 153.616 65.979C153.64 66.0378 153.675 66.0912 153.72 66.1363C153.764 66.1814 153.817 66.2173 153.876 66.2419C153.934 66.2665 153.997 66.2793 154.06 66.2796L157.023 66.2951C157.086 66.2955 157.149 66.2833 157.208 66.2593C157.266 66.2354 157.32 66.2001 157.365 66.1554C157.41 66.1108 157.446 66.0577 157.471 65.9992C157.495 65.9408 157.508 65.878 157.508 65.8146L157.511 65.3368Z" fill="black"/>
<path id="Vector_20" d="M164.677 66.0166L167.814 66.0059C167.85 66.0058 167.885 66.0195 167.912 66.0441C167.938 66.0687 167.955 66.1025 167.957 66.1387L167.984 66.4572C167.986 66.4769 167.984 66.4968 167.978 66.5157C167.973 66.5346 167.963 66.5521 167.95 66.5671C167.937 66.582 167.921 66.5941 167.903 66.6026C167.885 66.6111 167.866 66.6158 167.846 66.6165L164.645 66.6908C164.625 66.6914 164.606 66.696 164.589 66.7042C164.571 66.7123 164.556 66.724 164.543 66.7384C164.53 66.7527 164.52 66.7696 164.514 66.7878C164.508 66.8061 164.505 66.8255 164.507 66.8447L164.56 67.7844C164.562 67.8197 164.578 67.8527 164.603 67.8772C164.629 67.9017 164.662 67.9159 164.698 67.9171L167.952 67.9702C167.99 67.9702 168.027 67.9853 168.053 68.0122C168.08 68.0391 168.095 68.0755 168.095 68.1136L168.085 68.4533C168.085 68.4913 168.07 68.5278 168.043 68.5547C168.016 68.5816 167.98 68.5967 167.941 68.5967L164.039 68.5861C164.001 68.5861 163.965 68.571 163.938 68.5441C163.911 68.5172 163.896 68.4807 163.896 68.4427L163.864 64.3071C163.864 64.2691 163.879 64.2326 163.906 64.2057C163.933 64.1789 163.97 64.1638 164.008 64.1638L168 64.1584C168.02 64.1584 168.039 64.1624 168.057 64.1703C168.075 64.1781 168.092 64.1897 168.105 64.2041C168.119 64.2186 168.129 64.2356 168.136 64.2543C168.142 64.2729 168.145 64.2927 168.143 64.3124L168.122 64.6946C168.119 64.7299 168.104 64.7629 168.078 64.7874C168.053 64.8119 168.019 64.8262 167.984 64.8274L164.608 64.8592C164.588 64.8592 164.568 64.8632 164.55 64.8711C164.532 64.8789 164.516 64.8904 164.502 64.9049C164.489 64.9193 164.478 64.9364 164.472 64.9551C164.465 64.9737 164.463 64.9935 164.464 65.0132L164.533 65.8838C164.536 65.92 164.552 65.9538 164.579 65.9784C164.605 66.003 164.64 66.0167 164.677 66.0166Z" fill="black"/>
</g>
</g>
</svg>
