<svg width="182" height="100" viewBox="0 0 182 100" fill="none" xmlns="http://www.w3.org/2000/svg">
<g id="and eight">
<g id="and eight_2">
<path id="Vector" d="M117.704 31.2399C123.91 34.3594 127.008 39.3457 127 46.1987C126.975 58.1809 117.982 63.3395 107.223 64.0711C107.159 64.0744 107.098 64.0961 107.046 64.1337C106.995 64.1713 106.955 64.2232 106.931 64.2837C106.907 64.3442 106.901 64.4107 106.912 64.4756C106.924 64.5406 106.953 64.6015 106.996 64.6513C111.074 69.091 115.161 73.4466 119.256 77.7181C119.264 77.7221 119.27 77.7286 119.272 77.7365C119.275 77.7445 119.274 77.7534 119.27 77.762C119.265 77.7706 119.258 77.7784 119.249 77.7842C119.239 77.7899 119.228 77.7933 119.218 77.7938C116.594 77.8863 113.542 77.9284 110.061 77.92C109.958 77.9202 109.855 77.899 109.76 77.8578C109.664 77.8166 109.578 77.7562 109.506 77.6803L91.5832 58.3827C91.4878 58.28 91.3581 58.2165 91.2201 58.2048C91.0821 58.1931 90.9459 58.2341 90.839 58.3196C83.8095 63.9618 76.3006 65.6897 68.3125 63.5035C60.3538 61.3341 55.3717 55.5952 55.0186 46.9933C54.7159 39.4508 58.1213 33.9138 64.5287 30.2309C64.9407 29.987 65.0121 29.6633 64.7431 29.2597C59.6223 21.7592 59.5172 14.8054 64.4278 8.39805C67.1773 4.816 71.4069 2.83579 77.1163 2.45741C77.2231 2.4505 77.3303 2.46561 77.431 2.5018C77.5318 2.538 77.6241 2.5945 77.7021 2.66782C77.7802 2.74113 77.8423 2.82969 77.8847 2.92801C77.9272 3.02634 77.9489 3.13232 77.9487 3.2394L77.9361 8.90256C77.9361 9.45752 77.6628 9.78125 77.1163 9.87375L74.7703 10.2647C74.2573 10.3488 73.7781 10.5254 73.3324 10.7945C65.5755 15.5747 68.4765 22.9532 73.5847 28.3389C78.2598 33.2747 82.4977 37.9247 86.2984 42.2887C86.3585 42.3584 86.4364 42.4103 86.5239 42.4389C86.6113 42.4675 86.7049 42.4716 86.7945 42.4508C86.8841 42.43 86.9664 42.3851 87.0323 42.321C87.0983 42.2569 87.1454 42.1759 87.1687 42.0869C88.5645 36.9661 91.6588 33.3504 96.4517 31.2399C96.5156 31.2118 96.5709 31.1672 96.6117 31.1105C96.6525 31.0539 96.6774 30.9874 96.6839 30.9179C96.6903 30.8484 96.678 30.7784 96.6483 30.7153C96.6186 30.6521 96.5725 30.5981 96.5148 30.5588C91.6546 27.271 89.3087 22.7935 89.4768 17.1261C89.994 -0.935443 118.701 -3.49585 123.658 13.1026C125.638 19.7244 123.456 26.5227 117.654 30.4579C117.233 30.7438 117.25 31.0044 117.704 31.2399ZM117.011 18.37C117.008 17.1046 116.748 15.852 116.244 14.6837C115.74 13.5155 115.002 12.4545 114.073 11.5613C113.144 10.6681 112.041 9.96021 110.829 9.47806C109.616 8.9959 108.316 8.74892 107.004 8.75121C105.693 8.75349 104.394 9.005 103.183 9.49137C101.972 9.97775 100.872 10.6895 99.9459 11.5859C99.0198 12.4823 98.2858 13.5459 97.7859 14.7159C97.2859 15.8859 97.0297 17.1394 97.0319 18.4048C97.0341 19.6703 97.2947 20.9229 97.7987 22.0911C98.3028 23.2593 99.0404 24.3203 99.9696 25.2135C100.899 26.1067 102.001 26.8146 103.214 27.2968C104.427 27.7789 105.726 28.0259 107.038 28.0236C108.35 28.0213 109.648 27.7698 110.86 27.2834C112.071 26.7971 113.171 26.0853 114.097 25.1889C115.023 24.2925 115.757 23.2289 116.257 22.0589C116.757 20.889 117.013 19.6354 117.011 18.37ZM119.406 45.2867C119.391 43.8076 119.054 42.3464 118.416 40.9865C117.777 39.6266 116.849 38.3946 115.684 37.3608C114.52 36.3271 113.142 35.5118 111.629 34.9616C110.115 34.4114 108.497 34.137 106.865 34.1541C103.571 34.1886 100.423 35.4082 98.1157 37.5448C95.808 39.6813 94.5292 42.5597 94.5604 45.5467C94.5759 47.0258 94.9126 48.487 95.5512 49.8469C96.1898 51.2068 97.1179 52.4388 98.2824 53.4726C99.4469 54.5063 100.825 55.3216 102.338 55.8718C103.851 56.422 105.47 56.6964 107.101 56.6793C110.396 56.6448 113.544 55.4252 115.851 53.2886C118.159 51.1521 119.438 48.2737 119.406 45.2867ZM85.693 51.9754L68.981 34.2291C68.9513 34.1974 68.9157 34.1719 68.8761 34.154C68.8364 34.1362 68.7937 34.1264 68.7503 34.1252C68.7069 34.1241 68.6636 34.1315 68.6231 34.1472C68.5826 34.1629 68.5456 34.1864 68.5143 34.2165L67.8584 34.8471C66.4837 36.1419 65.3411 37.656 64.4956 39.3031C63.6502 40.9502 63.1186 42.698 62.9313 44.4466C62.7439 46.1953 62.9043 47.9106 63.4035 49.4945C63.9026 51.0785 64.7307 52.5 65.8404 53.6781L66.1053 53.943C67.2143 55.1221 68.5836 56.0346 70.1347 56.6284C71.6859 57.2222 73.3886 57.4857 75.1455 57.4037C76.9025 57.3217 78.6792 56.8959 80.3743 56.1506C82.0694 55.4053 83.6495 54.3551 85.0245 53.0601L85.6804 52.4294C85.7407 52.37 85.7757 52.2896 85.778 52.2049C85.7804 52.1203 85.7499 52.038 85.693 51.9754Z" fill="#257487"/>
<path id="Vector_2" d="M81.2536 86.1941L81.3293 83.0661C81.3326 82.9557 81.373 82.8496 81.4439 82.765C81.5148 82.6803 81.6122 82.622 81.7203 82.5994L82.1869 82.5111C82.3331 82.4813 82.4841 82.4842 82.6291 82.5198C82.774 82.5553 82.9092 82.6225 83.025 82.7166C83.1408 82.8107 83.2343 82.9293 83.2988 83.0639C83.3632 83.1985 83.397 83.3457 83.3978 83.4949L83.4608 94.3672C83.4692 95.0062 83.1539 95.3089 82.5149 95.2753C81.4049 95.2164 80.2488 95.2375 79.0463 95.3384C73.5219 95.8176 72.9543 85.5508 80.3707 86.9004C80.9425 87.0097 81.2368 86.7742 81.2536 86.1941ZM81.324 90.6054C81.3392 90.1674 81.1799 89.7414 80.8811 89.4209C80.5822 89.1004 80.1683 88.9118 79.7303 88.8965L78.8984 88.8675C78.4604 88.8522 78.0344 89.0115 77.7139 89.3104C77.3934 89.6092 77.2048 90.0232 77.1895 90.4611L77.1471 91.6712C77.1318 92.1091 77.2911 92.5352 77.59 92.8557C77.8888 93.1762 78.3028 93.3648 78.7407 93.3801L79.5727 93.4091C80.0106 93.4244 80.4367 93.2651 80.7572 92.9662C81.0777 92.6673 81.2663 92.2534 81.2816 91.8155L81.324 90.6054Z" fill="#257487"/>
<path id="Vector_3" d="M113.795 86.976C115.266 86.5976 116.654 86.8625 117.957 87.7706C118.294 88.006 118.462 88.3256 118.462 88.7292L118.537 94.3419C118.546 94.9473 118.247 95.2584 117.642 95.2752L117.175 95.2878C117.088 95.2895 117.001 95.2738 116.92 95.2416C116.839 95.2094 116.765 95.1613 116.703 95.1003C116.641 95.0392 116.592 94.9663 116.558 94.8859C116.524 94.8055 116.507 94.7192 116.507 94.632L116.519 90.2301C116.528 89.4397 116.145 88.973 115.372 88.8301L114.287 88.6157C113.429 88.4475 112.996 88.8006 112.988 89.6751L112.95 94.3545C112.947 94.5746 112.862 94.7855 112.713 94.9446C112.563 95.1038 112.359 95.1994 112.143 95.2122L111.726 95.2374C111.037 95.2794 110.701 94.9557 110.717 94.2662L110.919 82.8516C110.92 82.7815 110.936 82.7125 110.966 82.6493C110.996 82.5861 111.04 82.5303 111.094 82.4858C111.148 82.4413 111.211 82.4092 111.279 82.3918C111.347 82.3744 111.418 82.372 111.487 82.3849L111.827 82.448C112.458 82.5657 112.773 82.9441 112.773 83.5831L112.761 86.1814C112.761 86.8961 113.105 87.161 113.795 86.976Z" fill="#257487"/>
<path id="Vector_4" d="M98.7472 85.2858C99.395 85.2858 99.9202 84.7606 99.9202 84.1128C99.9202 83.465 99.395 82.9398 98.7472 82.9398C98.0994 82.9398 97.5742 83.465 97.5742 84.1128C97.5742 84.7606 98.0994 85.2858 98.7472 85.2858Z" fill="#257487"/>
<path id="Vector_5" d="M124.313 86.8119C124.994 86.6858 125.633 86.8245 126.23 87.2281C126.954 87.7074 126.941 88.1615 126.193 88.5903C125.638 88.9098 125.062 89.0318 124.465 88.9561C123.96 88.8972 123.657 89.1158 123.557 89.6119C123.338 90.7051 123.426 91.7267 123.821 92.6769C123.964 93.0216 124.221 93.2234 124.591 93.2823L125.814 93.4715C126.201 93.5387 126.474 93.7489 126.634 94.1021C126.693 94.2366 126.71 94.3796 126.685 94.5309C126.609 94.985 126.344 95.2499 125.89 95.3256C124.385 95.5862 123.103 95.2078 122.043 94.1904C121.724 93.8877 121.551 93.5135 121.526 93.0679L121.387 89.9273C121.362 89.2882 121.038 88.8972 120.416 88.7543C120.105 88.6786 119.832 88.5357 119.596 88.3254C119.125 87.905 119.184 87.5855 119.773 87.3669C121.227 86.8203 121.812 85.7903 121.526 84.2767C121.425 83.747 121.644 83.4443 122.182 83.3686L122.585 83.3055C122.766 83.2773 122.952 83.3167 123.107 83.4164C123.262 83.5162 123.377 83.6695 123.43 83.8479C123.624 84.5542 123.657 85.2857 123.531 86.0425C123.43 86.6647 123.691 86.9212 124.313 86.8119Z" fill="#257487"/>
<path id="Vector_6" d="M102.91 94.9347C102.91 96.6374 104.727 97.7474 106.177 96.7005C106.799 96.2464 106.997 95.6662 106.77 94.9599C106.467 94.0266 105.82 93.5305 104.828 93.4716C103.432 93.3959 102.418 92.7359 101.788 91.4914C101.468 90.8608 101.401 90.2133 101.586 89.549C102.057 87.9009 103.154 87.0475 104.878 86.9886C106.089 86.955 107.316 86.6523 108.561 86.0805C108.644 86.0406 108.736 86.0266 108.827 86.0405C108.918 86.0544 109.002 86.0955 109.069 86.1583C109.136 86.2211 109.182 86.3028 109.202 86.3925C109.222 86.4822 109.214 86.5757 109.179 86.6607C108.473 88.5778 108.115 90.6211 108.107 92.7905C108.107 93.1857 108.22 93.5751 108.435 93.9131C111.626 98.8447 101.372 101.266 100.867 95.5906C100.833 95.1281 101.023 94.8044 101.435 94.6194L102.027 94.3545C102.616 94.1023 102.91 94.2957 102.91 94.9347ZM106.707 90.1923C106.707 89.7574 106.534 89.3404 106.227 89.0329C105.919 88.7254 105.502 88.5526 105.067 88.5526C104.632 88.5526 104.215 88.7254 103.908 89.0329C103.6 89.3404 103.427 89.7574 103.427 90.1923C103.427 90.4076 103.47 90.6208 103.552 90.8198C103.635 91.0187 103.755 91.1995 103.908 91.3517C104.06 91.504 104.241 91.6247 104.44 91.7071C104.639 91.7895 104.852 91.832 105.067 91.832C105.282 91.832 105.496 91.7895 105.695 91.7071C105.894 91.6247 106.074 91.504 106.227 91.3517C106.379 91.1995 106.5 91.0187 106.582 90.8198C106.664 90.6208 106.707 90.4076 106.707 90.1923Z" fill="#257487"/>
<path id="Vector_7" d="M64.1501 93.8876C64.1501 94.0682 64.1145 94.247 64.0454 94.4138C63.9763 94.5806 63.8751 94.7321 63.7474 94.8598C63.6197 94.9874 63.4682 95.0887 63.3014 95.1578C63.1346 95.2269 62.9558 95.2625 62.7753 95.2625L59.1554 95.2751C58.172 95.2782 57.2276 94.8734 56.5298 94.1496C55.832 93.4259 55.4381 92.4424 55.4346 91.4155V90.7597C55.4329 90.2511 55.5271 89.7472 55.7119 89.2768C55.8966 88.8063 56.1684 88.3785 56.5116 88.0177C56.8547 87.657 57.2626 87.3704 57.7119 87.1743C58.1612 86.9782 58.6431 86.8765 59.1302 86.8749L62.75 86.8623C63.1147 86.8623 63.4643 87.0071 63.7222 87.265C63.98 87.5228 64.1248 87.8725 64.1248 88.2371L64.1501 93.8876ZM62.0942 91.0876C62.0942 90.7861 62.0348 90.4876 61.9194 90.2091C61.8041 89.9306 61.635 89.6776 61.4218 89.4644C61.2087 89.2513 60.9556 89.0822 60.6771 88.9668C60.3986 88.8514 60.1001 88.7921 59.7986 88.7921C59.4972 88.7921 59.1987 88.8514 58.9202 88.9668C58.6417 89.0822 58.3886 89.2513 58.1754 89.4644C57.9623 89.6776 57.7932 89.9306 57.6778 90.2091C57.5625 90.4876 57.5031 90.7861 57.5031 91.0876C57.5031 91.6964 57.7449 92.2803 58.1754 92.7108C58.6059 93.1413 59.1898 93.3831 59.7986 93.3831C60.4074 93.3831 60.9913 93.1413 61.4218 92.7108C61.8523 92.2803 62.0942 91.6964 62.0942 91.0876Z" fill="#257487"/>
<path id="Vector_8" d="M68.262 89.6751C67.9341 91.0709 67.8584 92.5592 68.035 94.14C68.1191 94.922 67.7701 95.292 66.9882 95.2499L66.4836 95.2247C65.9203 95.1911 65.6596 94.8926 65.7016 94.3292C65.7857 93.1016 65.811 91.8739 65.7773 90.6463C65.6512 85.2732 73.6603 85.3993 73.5216 90.6967C73.488 91.8487 73.5216 92.9754 73.6225 94.077C73.6982 94.8758 73.3366 95.3046 72.5378 95.3635L72.1342 95.3887C71.554 95.4307 71.2597 95.1617 71.2513 94.5815L71.2008 90.2048C71.1924 89.3892 70.793 88.8889 70.0026 88.7039C69.8933 88.6787 69.784 88.6618 69.6747 88.6534C68.9095 88.5862 68.4386 88.9267 68.262 89.6751Z" fill="#257487"/>
<path id="Vector_9" d="M93.3873 92.0084C91.6804 93.3286 91.8864 93.7826 94.0053 93.3706C94.5182 93.2697 95.0186 93.2865 95.5063 93.4211C96.0528 93.5724 96.1705 93.8877 95.8594 94.367C95.6492 94.6949 95.3423 94.9136 94.9387 95.0229C84.9998 97.8482 86.8665 82.7884 95.481 87.657C95.6185 87.7353 95.7383 87.8411 95.833 87.968C95.9278 88.0949 95.9956 88.2402 96.0322 88.3949C96.0688 88.5496 96.0735 88.7106 96.046 88.8678C96.0184 89.025 95.9592 89.1753 95.872 89.3093C95.1573 90.3772 94.3291 91.2769 93.3873 92.0084ZM90.1471 91.7932C90.3763 92.0085 90.7607 92.0396 91.2159 91.8797C91.671 91.7198 92.1596 91.3821 92.574 90.9407C92.9885 90.4994 93.2949 89.9906 93.4259 89.5263C93.5569 89.062 93.5017 88.6802 93.2725 88.465C93.0433 88.2497 92.6588 88.2186 92.2037 88.3785C91.7486 88.5384 91.26 88.8761 90.8456 89.3175C90.4311 89.7588 90.1247 90.2676 89.9937 90.7319C89.8627 91.1962 89.9178 91.578 90.1471 91.7932Z" fill="#257487"/>
<path id="Vector_10" d="M99.4524 87.0124L98.0903 86.991C97.8884 86.9878 97.722 87.149 97.7189 87.351L97.6055 94.5646C97.6024 94.7666 97.7635 94.9329 97.9655 94.9361L99.3275 94.9575C99.5295 94.9606 99.6958 94.7995 99.699 94.5975L99.8123 87.3838C99.8155 87.1819 99.6543 87.0155 99.4524 87.0124Z" fill="#257487"/>
</g>
</g>
</svg>
