<svg width="182" height="100" viewBox="0 0 182 100" fill="none" xmlns="http://www.w3.org/2000/svg">
<g id="Aspects">
<g id="aspects">
<path id="Vector" d="M92.8949 30.2527C92.9483 30.6527 92.9249 31.026 92.8249 31.3727C92.7183 31.7527 92.4716 31.9827 92.0849 32.0627C91.3783 32.2027 90.7183 32.1827 90.1049 32.0027C89.8817 31.9382 89.6852 31.8042 89.5447 31.6204C89.4042 31.4366 89.3271 31.213 89.3249 30.9827V30.3827C89.3183 29.9494 89.1316 29.8494 88.7649 30.0827C84.0449 33.1827 79.7149 33.366 75.7749 30.6327C71.4149 27.6127 73.7949 22.6727 78.4949 21.9227C81.7749 21.396 84.9983 20.966 88.1649 20.6327C88.3312 20.6153 88.4923 20.5652 88.6392 20.4853C88.786 20.4054 88.9156 20.2974 89.0206 20.1673C89.1256 20.0372 89.2038 19.8877 89.2509 19.7274C89.298 19.567 89.313 19.3989 89.2949 19.2327C89.0883 17.266 87.8916 16.1127 85.7049 15.7727C82.7783 15.326 80.3449 15.956 78.4049 17.6627C77.8983 18.1094 77.3216 18.2427 76.6749 18.0627L75.0049 17.6027C74.3183 17.4094 74.2183 17.0527 74.7049 16.5327C78.7449 12.2527 85.8449 12.1727 90.6949 14.6327C90.9683 14.7727 91.2449 14.776 91.5249 14.6427C96.2649 12.2927 103.455 12.1327 107.335 16.4427C107.915 17.0827 107.788 17.516 106.955 17.7427L105.865 18.0427C105.038 18.2694 104.295 18.106 103.635 17.5527C101.442 15.7327 98.7849 15.1994 95.6649 15.9527C94.1849 16.3127 93.1449 17.4927 92.9549 18.9927C92.9286 19.2092 92.9469 19.4289 93.0085 19.6381C93.0702 19.8473 93.174 20.0417 93.3135 20.2093C93.4531 20.377 93.6254 20.5143 93.82 20.6129C94.0146 20.7115 94.2272 20.7693 94.4449 20.7827C98.2783 21.0027 101.628 21.4527 104.495 22.1327C109.345 23.2827 110.195 28.8027 105.875 31.0927C102.482 32.8927 98.9549 32.956 95.2949 31.2827C94.6149 30.9727 94.0449 30.3127 93.3849 29.9227C93.3333 29.8893 93.2732 29.872 93.2119 29.8728C93.1505 29.8736 93.0905 29.8925 93.0389 29.9272C92.9873 29.962 92.9463 30.0111 92.9208 30.0688C92.8953 30.1265 92.8863 30.1903 92.8949 30.2527ZM79.0649 24.2327C78.6137 24.2989 78.1959 24.5088 77.8734 24.8312C77.551 25.1537 77.3411 25.5715 77.2749 26.0227C76.6049 30.5227 83.6749 29.9727 86.2249 29.0527C88.8249 28.1127 89.4649 25.9927 89.2849 23.3727C89.2583 22.9794 89.0516 22.8094 88.6649 22.8627L79.0649 24.2327ZM102.495 24.0927L93.4949 22.8927C93.1483 22.8527 92.9616 23.006 92.9349 23.3527C92.6349 26.8994 94.2116 28.976 97.6649 29.5827C100.155 30.0227 107.445 29.3527 104.095 25.0127C103.704 24.5067 103.129 24.176 102.495 24.0927Z" fill="black"/>
<path id="Vector_2" d="M138.765 43.9029L136.695 43.8929C136.049 43.8862 135.715 43.5596 135.695 42.9129L135.675 42.4629C135.669 42.2726 135.734 42.0868 135.858 41.9424C135.982 41.7979 136.156 41.7053 136.345 41.6829L139.175 41.3729C139.26 41.3618 139.342 41.3341 139.416 41.2914C139.49 41.2487 139.555 41.1918 139.607 41.124C139.659 41.0562 139.697 40.9788 139.719 40.8963C139.741 40.8137 139.746 40.7276 139.735 40.6429L139.405 38.2829C139.387 38.1482 139.397 38.0112 139.434 37.8808C139.472 37.7503 139.536 37.6293 139.623 37.5256C139.709 37.4219 139.817 37.3378 139.938 37.2788C140.059 37.2197 140.191 37.1871 140.325 37.1829L142.425 37.1129C143.139 37.0929 143.459 37.4362 143.385 38.1429L143.135 40.6929C143.127 40.7764 143.136 40.8607 143.161 40.9409C143.187 41.021 143.228 41.0954 143.283 41.1597C143.338 41.224 143.406 41.2768 143.481 41.3151C143.557 41.3535 143.64 41.3765 143.725 41.3829L148.095 41.6829C148.26 41.6951 148.415 41.7633 148.535 41.8761C148.655 41.989 148.733 42.1396 148.755 42.3029C148.795 42.5296 148.779 42.7496 148.705 42.9629C148.485 43.5896 148.045 43.9062 147.385 43.9129L143.935 43.9529C143.482 43.9529 143.255 44.1796 143.255 44.6329L143.335 55.8329C143.342 56.2462 143.519 56.5662 143.865 56.7929C144.812 57.3929 145.919 57.6829 147.185 57.6629C147.979 57.6562 148.489 58.0329 148.715 58.7929C148.742 58.8862 148.769 58.9796 148.795 59.0729C148.962 59.7796 148.689 60.1862 147.975 60.2929C144.235 60.8429 139.425 59.6729 139.465 55.1329C139.499 51.4329 139.515 47.9429 139.515 44.6629C139.515 44.1629 139.265 43.9096 138.765 43.9029Z" fill="black"/>
<path id="Vector_3" d="M26.0444 58.5128C24.8244 59.1428 23.6744 59.9528 22.3144 60.2728C18.6744 61.1328 12.5644 60.5828 11.2544 56.3228C9.96438 52.1528 13.8244 50.1528 17.3444 49.7928C20.0777 49.5061 22.811 49.1728 25.5444 48.7928C25.8519 48.7516 26.134 48.6001 26.3382 48.3665C26.5423 48.1329 26.6547 47.8331 26.6544 47.5228C26.6477 45.7161 25.671 44.5828 23.7244 44.1228C20.6644 43.4028 18.1177 43.9128 16.0844 45.6528C15.7612 45.9263 15.3767 46.1159 14.9649 46.2049C14.5532 46.2939 14.127 46.2794 13.7244 46.1628L12.7444 45.8828C11.6644 45.5695 11.561 45.0595 12.4344 44.3528C16.0344 41.4328 20.361 40.5795 25.4144 41.7928C28.7544 42.5928 30.4744 44.8928 30.4344 48.2328C30.381 52.2928 30.3677 56.0495 30.3944 59.5028C30.401 60.0095 30.151 60.2595 29.6444 60.2528L27.7544 60.2228C27.5423 60.2195 27.3379 60.1431 27.1757 60.0064C27.0135 59.8698 26.9035 59.6812 26.8644 59.4728L26.7544 58.8528C26.6744 58.4195 26.4377 58.3061 26.0444 58.5128ZM16.9444 52.5528C14.9444 53.0728 13.6844 55.4328 15.7144 56.8728C18.4344 58.8128 22.2644 58.2728 24.9444 56.5328C26.5844 55.4628 26.7544 53.4428 26.7344 51.6728C26.7277 51.3128 26.5477 51.1461 26.1944 51.1728C22.6277 51.4061 19.5444 51.8661 16.9444 52.5528Z" fill="black"/>
<path id="Vector_4" d="M40.8748 47.5829C41.6615 48.3229 42.5782 48.7896 43.6248 48.9829C45.8448 49.3896 48.0682 49.8696 50.2948 50.4229C56.1848 51.8929 56.0648 57.8629 50.6648 59.6629C46.1348 61.1729 38.8148 61.2029 36.2548 56.5129C36.0748 56.1796 36.1515 55.9262 36.4848 55.7529C37.2382 55.3529 38.0315 55.1729 38.8648 55.2129C39.2448 55.2329 39.5582 55.3862 39.8048 55.6729C42.1948 58.3729 47.4548 59.2529 50.3748 56.2829C50.5877 56.064 50.7422 55.795 50.8239 55.5009C50.9055 55.2067 50.9117 54.897 50.8418 54.6006C50.7719 54.3041 50.6283 54.0306 50.4243 53.8054C50.2202 53.5803 49.9624 53.4109 49.6748 53.3129C47.4348 52.5596 45.1748 51.9962 42.8948 51.6229C40.7948 51.2729 37.9148 50.3129 37.0848 48.1429C36.2048 45.8029 37.6148 43.6029 39.7348 42.6129C44.1248 40.5629 50.5548 40.4729 53.8048 44.6829C53.8718 44.7703 53.9182 44.8717 53.9405 44.9795C53.9627 45.0874 53.9603 45.1989 53.9333 45.3056C53.9064 45.4124 53.8557 45.5117 53.7849 45.5961C53.7142 45.6805 53.6253 45.7478 53.5248 45.7929C50.8148 47.0329 50.3348 44.8329 48.2848 44.2129C45.5382 43.3729 43.1182 43.7196 41.0248 45.2529C40.8443 45.3826 40.6948 45.5508 40.5871 45.7454C40.4794 45.9401 40.4161 46.1564 40.4018 46.379C40.3875 46.6016 40.4224 46.8249 40.5042 47.033C40.586 47.2411 40.7125 47.4289 40.8748 47.5829Z" fill="black"/>
<path id="Vector_5" d="M64.0149 58.3228L64.0349 66.5328C64.0349 66.9328 63.8316 67.1328 63.4249 67.1328L60.9649 67.1028C60.5249 67.0962 60.3049 66.8728 60.3049 66.4328L60.2949 42.1328C60.2949 41.7062 60.5083 41.4962 60.9349 41.5028L63.0749 41.5228C63.7549 41.5228 64.0583 41.8628 63.9849 42.5428L63.8749 43.5428C63.8083 44.1228 64.0249 44.2595 64.5249 43.9528C65.1049 43.5862 65.6549 43.1895 66.1749 42.7628C68.4649 40.8428 72.6449 41.0028 75.2749 41.9128C79.2216 43.2728 81.3383 45.9395 81.6249 49.9128C82.2149 57.9328 75.3249 62.0728 68.1349 60.1028C66.6849 59.7128 65.8749 58.8828 64.7449 57.9728C64.2516 57.5662 64.0083 57.6828 64.0149 58.3228ZM78.0949 50.8828C78.0949 48.9839 77.3406 47.1627 75.9978 45.82C74.655 44.4772 72.8339 43.7228 70.9349 43.7228C69.036 43.7228 67.2148 44.4772 65.872 45.82C64.5293 47.1627 63.7749 48.9839 63.7749 50.8828C63.7749 52.7818 64.5293 54.603 65.872 55.9457C67.2148 57.2885 69.036 58.0428 70.9349 58.0428C72.8339 58.0428 74.655 57.2885 75.9978 55.9457C77.3406 54.603 78.0949 52.7818 78.0949 50.8828Z" fill="black"/>
<path id="Vector_6" d="M89.9048 52.5728C90.3181 54.4061 91.1947 55.7294 92.5347 56.5428C96.2548 58.8028 99.8181 58.5361 103.225 55.7428C104.225 54.9228 105.555 55.2228 106.595 55.7228C106.666 55.7582 106.728 55.8079 106.779 55.8689C106.829 55.9299 106.867 56.0008 106.888 56.077C106.91 56.1532 106.916 56.2331 106.905 56.3116C106.894 56.3901 106.866 56.4654 106.825 56.5328C103.765 61.3228 95.7647 61.3228 91.4547 59.3528C83.6447 55.7728 84.6747 44.5328 92.9247 41.9528C99.5747 39.8728 107.455 42.4728 107.575 50.6328C107.588 51.4128 107.205 51.8028 106.425 51.8028L90.4947 51.8228C89.9881 51.8294 89.7914 52.0794 89.9048 52.5728ZM90.1548 49.3528L103.655 49.3928C103.695 49.3928 103.733 49.377 103.761 49.3488C103.789 49.3207 103.805 49.2825 103.805 49.2428V49.1828C103.808 47.7859 103.104 46.444 101.846 45.4521C100.587 44.4602 98.8786 43.8993 97.0947 43.8928H96.7548C95.8704 43.8895 94.9943 44.0228 94.1764 44.2849C93.3584 44.547 92.6148 44.9329 91.9879 45.4205C91.361 45.908 90.8632 46.4877 90.5229 47.1264C90.1827 47.7651 90.0066 48.4503 90.0048 49.1428V49.2028C90.0048 49.2425 90.0206 49.2807 90.0487 49.3088C90.0768 49.337 90.115 49.3528 90.1548 49.3528Z" fill="black"/>
<path id="Vector_7" d="M128.374 46.2728C124.944 41.8228 117.184 43.6628 115.904 49.0528C114.054 56.8528 123.584 61.0928 128.484 55.4628C129.404 54.4028 130.864 54.5328 132.064 54.8928C132.137 54.9156 132.205 54.9538 132.261 55.0049C132.318 55.056 132.363 55.1186 132.392 55.1883C132.422 55.258 132.436 55.3331 132.433 55.4082C132.43 55.4833 132.41 55.5566 132.374 55.6228C128.334 63.4128 114.264 61.9028 112.274 53.1828C109.514 41.1528 127.094 37.1628 132.294 45.9228C132.748 46.6828 132.531 47.0762 131.644 47.1028L130.214 47.1428C129.861 47.155 129.51 47.0823 129.19 46.931C128.87 46.7797 128.591 46.5541 128.374 46.2728Z" fill="black"/>
<path id="Vector_8" d="M166.874 56.2429C167.071 56.0162 167.209 55.745 167.276 55.4528C167.344 55.1607 167.339 54.8564 167.262 54.5666C167.185 54.2768 167.038 54.0102 166.835 53.7899C166.631 53.5696 166.377 53.4025 166.094 53.3029C163.928 52.5495 161.698 51.9962 159.404 51.6429C157.224 51.3129 153.864 50.1429 153.364 47.6329C152.984 45.7262 153.654 44.2329 155.374 43.1529C159.564 40.5129 166.644 40.2229 170.164 44.5529C170.718 45.2395 170.564 45.6829 169.704 45.8829L169.014 46.0429C168.168 46.2429 167.418 46.0595 166.764 45.4929C164.311 43.3729 161.344 43.1695 157.864 44.8829C157.586 45.0198 157.349 45.2279 157.177 45.486C157.005 45.7441 156.904 46.0431 156.885 46.3528C156.865 46.6624 156.928 46.9716 157.067 47.2491C157.206 47.5266 157.415 47.7625 157.674 47.9329C161.074 50.1629 170.584 49.1929 171.124 54.4329C171.331 56.4329 170.441 57.9562 168.454 59.0029C164.124 61.2929 155.944 61.6429 152.754 56.6729C152.706 56.598 152.673 56.514 152.657 56.426C152.642 56.3379 152.645 56.2477 152.665 56.1608C152.686 56.0738 152.724 55.9919 152.777 55.9201C152.83 55.8483 152.897 55.788 152.974 55.7429C154.574 54.8162 155.844 54.9595 156.784 56.1729C158.784 58.7329 164.724 58.7029 166.874 56.2429Z" fill="black"/>
<path id="Vector_9" d="M77.9055 78.1347C78.3469 78.2078 78.7493 77.9976 78.8043 77.6652C78.8593 77.3329 78.5461 77.0042 78.1048 76.9311C77.6634 76.8581 77.2611 77.0683 77.206 77.4006C77.151 77.733 77.4642 78.0617 77.9055 78.1347Z" fill="black"/>
<path id="Vector_10" d="M69.7949 83.7228C69.7082 84.2028 69.7249 84.7228 69.8449 85.2828C69.8724 85.4189 69.8502 85.5603 69.7823 85.6815C69.7144 85.8026 69.6053 85.8953 69.4749 85.9428L69.2249 86.0328C68.6582 86.2395 68.3782 86.0428 68.3849 85.4428L68.4549 77.6628C68.4556 77.6079 68.4683 77.5538 68.4919 77.5041C68.5156 77.4544 68.5498 77.4101 68.5923 77.3743C68.6348 77.3384 68.6846 77.3117 68.7384 77.296C68.7923 77.2802 68.849 77.2757 68.9049 77.2828L69.3349 77.3528C69.7416 77.4128 69.9282 77.6462 69.8949 78.0528L69.6949 80.1428C69.4949 82.2428 70.1415 82.5462 71.6349 81.0528C72.5349 80.1462 73.4916 79.6328 74.5049 79.5128C75.2649 79.4128 75.3349 79.5895 74.7149 80.0428L72.3449 81.7328C72.2473 81.8031 72.1669 81.8946 72.1096 82.0003C72.0522 82.106 72.0195 82.2232 72.0137 82.3434C72.0079 82.4635 72.0293 82.5833 72.0763 82.6941C72.1232 82.8048 72.1945 82.9035 72.2849 82.9828C73.5115 84.0561 74.1449 84.6161 74.1849 84.6628C75.7649 86.4028 75.5149 86.7228 73.4349 85.6228C72.7349 85.2495 71.9849 84.5128 71.1849 83.4128C71.0979 83.2895 70.9767 83.195 70.836 83.1409C70.6954 83.0868 70.5416 83.0756 70.3937 83.1086C70.2457 83.1416 70.1102 83.2173 70.0037 83.3265C69.8973 83.4357 69.8247 83.5735 69.7949 83.7228Z" fill="black"/>
<path id="Vector_11" d="M61.0349 81.6228C62.0082 82.0228 62.9649 82.3162 63.9049 82.5028C66.7915 83.0762 67.0349 84.2095 64.6349 85.9028C63.4549 86.7295 61.9682 86.5962 60.1749 85.5028C58.8615 84.7028 58.9649 84.4095 60.4849 84.6228C60.9515 84.6895 61.4049 84.8628 61.8449 85.1428C62.1322 85.3259 62.4652 85.423 62.8049 85.4228C63.5982 85.4228 64.1849 85.1728 64.5649 84.6728C64.9715 84.1328 64.8515 83.7728 64.2049 83.5928L60.5249 82.5728C60.3078 82.5116 60.1118 82.3919 59.9581 82.2268C59.8045 82.0617 59.6992 81.8576 59.6538 81.6367C59.6084 81.4158 59.6246 81.1867 59.7006 80.9743C59.7766 80.762 59.9096 80.5747 60.0849 80.4328C61.9649 78.9195 63.8515 78.9662 65.7449 80.5728C65.7782 80.6062 65.7815 80.6428 65.7549 80.6828L65.5949 80.9128C65.4349 81.1462 65.2349 81.1928 64.9949 81.0528C63.5682 80.2062 62.2282 80.1662 60.9749 80.9328C60.5349 81.1995 60.5549 81.4295 61.0349 81.6228Z" fill="black"/>
<path id="Vector_12" d="M78.1163 79.453L78.0163 79.4527C77.7015 79.4516 77.4454 79.7059 77.4443 80.0207L77.425 85.5406C77.4239 85.8554 77.6782 86.1115 77.993 86.1126L78.093 86.113C78.4078 86.1141 78.6639 85.8598 78.665 85.545L78.6843 80.025C78.6854 79.7102 78.4311 79.4541 78.1163 79.453Z" fill="black"/>
<path id="Vector_13" d="M82.7749 81.7828L82.8449 85.4128C82.8516 85.7662 82.6816 85.9695 82.335 86.0228L82.0149 86.0728C81.6416 86.1262 81.4516 85.9628 81.4449 85.5828L81.4249 80.2028C81.4183 79.7295 81.6449 79.5528 82.1049 79.6728C83.6249 80.0728 84.6449 79.0728 86.2549 79.5228C89.2549 80.3828 88.1049 83.1628 88.3749 85.4128C88.3855 85.492 88.3783 85.5725 88.354 85.6485C88.3296 85.7246 88.2887 85.7943 88.2342 85.8526C88.1797 85.911 88.1129 85.9565 88.0387 85.9859C87.9645 86.0154 87.8846 86.028 87.8049 86.0228L87.3849 86.0028C86.9449 85.9762 86.7483 85.7428 86.795 85.3028L87.0949 82.3928C87.1349 81.9662 87.0216 81.5862 86.7549 81.2528C85.9816 80.2795 84.865 80.1262 83.405 80.7928C82.9783 80.9862 82.7683 81.3162 82.7749 81.7828Z" fill="black"/>
<path id="Vector_14" d="M95.7651 84.9228C96.2184 84.5095 96.7517 84.3295 97.3651 84.3828C97.9451 84.4295 98.0184 84.6495 97.5851 85.0428C93.0551 89.2028 87.5951 82.4728 92.3751 79.9328C94.0751 79.0262 95.7884 79.2262 97.5151 80.5328C97.5712 80.5758 97.6162 80.6316 97.6462 80.6957C97.6762 80.7597 97.6903 80.83 97.6874 80.9006C97.6844 80.9713 97.6645 81.0402 97.6293 81.1015C97.5941 81.1628 97.5446 81.2147 97.4851 81.2528C97.2851 81.3728 97.0784 81.3895 96.8651 81.3028C96.4384 81.1362 96.0184 80.9428 95.6051 80.7228C92.0051 78.8128 90.1951 85.0128 94.3551 85.3928C94.6108 85.4147 94.8678 85.3842 95.1103 85.3034C95.3528 85.2226 95.5757 85.093 95.7651 84.9228Z" fill="black"/>
<path id="Vector_15" d="M104.705 81.9728C105.345 81.7994 105.445 81.4628 105.005 80.9628C104.818 80.7494 104.591 80.5894 104.325 80.4828C103.698 80.2294 103.085 80.2661 102.485 80.5928C101.938 80.8861 101.378 80.9894 100.805 80.9028C100.065 80.7894 100.018 80.5494 100.665 80.1828C102.791 78.9761 104.705 79.0961 106.405 80.5428C106.685 80.7761 106.825 81.0761 106.825 81.4428L106.785 85.4328C106.778 86.0061 106.508 86.1894 105.975 85.9828C105.488 85.7961 104.988 85.8028 104.475 86.0028C103.101 86.5294 101.778 86.4294 100.505 85.7028C100.218 85.5361 100.051 85.2894 100.005 84.9628C99.7847 83.3628 100.498 82.5061 102.145 82.3928C103.018 82.3328 103.871 82.1928 104.705 81.9728ZM105.318 83.8428C105.294 83.6949 105.216 83.5573 105.087 83.4378C104.959 83.3184 104.782 83.2193 104.568 83.1463C104.355 83.0734 104.107 83.028 103.841 83.0126C103.574 82.9973 103.293 83.0124 103.014 83.0571C102.451 83.1472 101.93 83.3523 101.566 83.6272C101.202 83.9021 101.024 84.2242 101.072 84.5228C101.095 84.6706 101.174 84.8082 101.302 84.9277C101.431 85.0472 101.607 85.1462 101.821 85.2192C102.035 85.2921 102.282 85.3376 102.549 85.3529C102.815 85.3682 103.096 85.3531 103.375 85.3085C103.938 85.2183 104.459 85.0132 104.823 84.7383C105.188 84.4634 105.365 84.1413 105.318 83.8428Z" fill="black"/>
<path id="Vector_16" d="M110.785 81.1127L110.875 85.7027C110.875 85.7578 110.855 85.8109 110.818 85.8516C110.781 85.8924 110.73 85.9177 110.675 85.9227L109.655 86.0527C109.624 86.0569 109.593 86.0547 109.564 86.0462C109.534 86.0377 109.507 86.023 109.483 86.0033C109.46 85.9835 109.441 85.959 109.427 85.9313C109.414 85.9037 109.406 85.8735 109.405 85.8427L109.265 79.9827C109.262 79.926 109.281 79.8704 109.319 79.8275C109.356 79.7846 109.408 79.7578 109.465 79.7527L113.525 79.4527C113.567 79.4491 113.609 79.4575 113.646 79.477C113.683 79.4965 113.714 79.5263 113.735 79.5627L113.915 79.8827C113.931 79.9123 113.941 79.9452 113.942 79.979C113.944 80.0127 113.937 80.0463 113.924 80.0773C113.91 80.1082 113.89 80.1356 113.864 80.1574C113.838 80.1791 113.808 80.1947 113.775 80.2027L110.955 80.8927C110.906 80.9042 110.862 80.9324 110.831 80.9725C110.8 81.0126 110.784 81.0621 110.785 81.1127Z" fill="black"/>
<path id="Vector_17" d="M116.765 83.8627C117.395 85.4327 119.385 85.8427 120.745 84.9027C121.172 84.6027 121.642 84.4627 122.155 84.4827C122.795 84.5161 122.869 84.7361 122.375 85.1427C119.925 87.1627 115.155 86.7227 115.305 82.6927C115.435 79.2727 119.625 78.4927 121.825 80.4227C123.692 82.0494 123.392 82.9494 120.925 83.1227C119.725 83.2027 118.525 83.1961 117.325 83.1027C116.732 83.0561 116.545 83.3094 116.765 83.8627ZM116.965 82.2127L121.325 82.2327C121.354 82.2327 121.382 82.2211 121.403 82.2005C121.424 82.1799 121.435 82.1519 121.435 82.1227V82.0627C121.436 81.8455 121.382 81.6301 121.275 81.4289C121.168 81.2278 121.01 81.0448 120.812 80.8906C120.613 80.7364 120.376 80.6139 120.116 80.5302C119.856 80.4464 119.577 80.4031 119.295 80.4027H118.995C118.429 80.4019 117.886 80.574 117.485 80.8814C117.084 81.1888 116.858 81.6063 116.855 82.0427V82.1027C116.855 82.1319 116.867 82.1599 116.887 82.1805C116.908 82.2011 116.936 82.2127 116.965 82.2127Z" fill="black"/>
</g>
</g>
</svg>
