<svg width="176" height="71" viewBox="0 0 176 71" fill="none" xmlns="http://www.w3.org/2000/svg">
<g id="Logo">
<g id="Group 46">
<g id="Vector">
<path d="M37.2441 40.9243C37.2441 36.3134 33.4544 32.5754 28.7795 32.5754C24.1046 32.5754 20.3148 36.3134 20.3148 40.9243C20.3148 45.5353 24.1046 49.2733 28.7795 49.2733C33.4544 49.2733 37.2441 45.5353 37.2441 40.9243Z" fill="#2B2C2E"/>
<path d="M38.5142 7.52954C38.5142 4.07131 35.6719 1.26785 32.1657 1.26785C28.6595 1.26785 25.8172 4.07131 25.8172 7.52954C25.8172 10.9878 28.6595 13.7912 32.1657 13.7912C35.6719 13.7912 38.5142 10.9878 38.5142 7.52954Z" fill="#2B2C2E"/>
<path d="M12.697 47.1863C12.697 43.7281 9.85464 40.9246 6.34848 40.9246C2.84231 40.9246 0 43.7281 0 47.1863C0 50.6445 2.84231 53.448 6.34848 53.448C9.85464 53.448 12.697 50.6445 12.697 47.1863Z" fill="#2B2C2E"/>
<path d="M56.2896 63.4692C56.2896 60.0109 53.4473 57.2075 49.9412 57.2075C46.435 57.2075 43.5927 60.0109 43.5927 63.4692C43.5927 66.9274 46.435 69.7308 49.9412 69.7308C53.4473 69.7308 56.2896 66.9274 56.2896 63.4692Z" fill="#2B2C2E"/>
<path fill-rule="evenodd" clip-rule="evenodd" d="M22.4315 43.4323L9.31125 47.1894L8.60323 44.784L21.7234 41.0269L22.4315 43.4323Z" fill="#2B2C2E"/>
<path fill-rule="evenodd" clip-rule="evenodd" d="M33.4357 43.4316L49.9416 60.9643L48.0807 62.6686L31.5748 45.136L33.4357 43.4316Z" fill="#2B2C2E"/>
<path fill-rule="evenodd" clip-rule="evenodd" d="M33.1544 10.3718L30.6834 34.1732L28.1572 33.9181L30.6282 10.1166L33.1544 10.3718Z" fill="#2B2C2E"/>
</g>
<path id="Vector_2" d="M66.284 37.8445V35.6925H80.6843V37.8445H66.284ZM75.0932 22.6729L85.157 42.8481H82.3751L72.9114 23.5337H74.2751L64.7839 42.8481H62.002L72.0658 22.6729H75.0932ZM89.7143 32.1956H98.4961C99.8417 32.1956 100.914 31.8639 101.714 31.2003C102.533 30.5367 102.942 29.6491 102.942 28.5372C102.942 27.4073 102.533 26.5196 101.714 25.874C100.914 25.2105 99.8417 24.8787 98.4961 24.8787H89.3597L90.505 23.5337V42.8481H87.9414V22.6729H98.5779C99.9598 22.6729 101.169 22.9239 102.205 23.4261C103.242 23.9103 104.051 24.5918 104.633 25.4705C105.233 26.3492 105.533 27.3714 105.533 28.5372C105.533 29.6848 105.233 30.6981 104.633 31.5768C104.051 32.4556 103.242 33.146 102.205 33.6482C101.169 34.1325 99.9598 34.3745 98.5779 34.3745H89.7143V32.1956ZM94.2416 33.4062H97.4052L105.942 42.8481H102.751L94.2416 33.4062ZM112.844 22.6729V41.261L111.235 39.7277H126.645V42.8481H109.244V22.6729H112.844ZM132.543 38.5979V34.8855H146.725V38.5979H132.543ZM142.716 22.6729L152.289 42.8481H147.352L138.98 24.529H140.507L132.134 42.8481H127.198L136.771 22.6729H142.716ZM167.609 32.8948L168.046 31.9804C169.627 32.0163 170.937 32.2672 171.973 32.7335C173.009 33.1819 173.773 33.8007 174.264 34.5897C174.755 35.361 175 36.2486 175 37.2528C175 38.3288 174.737 39.2882 174.209 40.1311C173.7 40.9739 172.946 41.6375 171.946 42.1218C170.946 42.6061 169.691 42.8481 168.182 42.8481H153.836L155.418 32.4915L153.836 22.6729H167.664C169.555 22.6729 171.018 23.1122 172.055 23.991C173.109 24.8518 173.637 26.0444 173.637 27.5686C173.637 28.3935 173.437 29.1916 173.037 29.9629C172.655 30.734 172.018 31.3887 171.127 31.9266C170.255 32.4467 169.082 32.7694 167.609 32.8948ZM158.418 41.6914L156.645 39.4855H167.227C168.209 39.4855 168.964 39.2614 169.491 38.8131C170.036 38.3468 170.309 37.7011 170.309 36.8762C170.309 36.0334 170 35.3698 169.382 34.8855C168.764 34.3836 167.855 34.1325 166.655 34.1325H158.036V30.8505H166.109C166.927 30.8505 167.6 30.6265 168.127 30.1781C168.673 29.7118 168.945 29.0662 168.945 28.2413C168.945 27.6137 168.718 27.0935 168.264 26.681C167.809 26.2506 167.155 26.0354 166.3 26.0354H156.645L158.418 23.8296L159.864 32.4915L158.418 41.6914Z" fill="#2B2C2E"/>
</g>
</g>
</svg>
