<svg width="182" height="100" viewBox="0 0 182 100" fill="none" xmlns="http://www.w3.org/2000/svg">
<g id="Ozon">
<g id="Group 32">
<path id="Vector" d="M64 49.5C64 50.8789 63.7284 52.2443 63.2007 53.5182C62.6731 54.7921 61.8996 55.9496 60.9246 56.9246C59.9496 57.8996 58.7921 58.6731 57.5182 59.2007C56.2443 59.7284 54.8789 60 53.5 60C50.7152 60 48.0445 58.8937 46.0754 56.9246C44.1062 54.9555 43 52.2848 43 49.5C43 46.7152 44.1062 44.0445 46.0754 42.0754C48.0445 40.1062 50.7152 39 53.5 39C54.8789 39 56.2443 39.2716 57.5182 39.7993C58.7921 40.3269 59.9496 41.1004 60.9246 42.0754C61.8996 43.0504 62.6731 44.2079 63.2007 45.4818C63.7284 46.7557 64 48.1211 64 49.5ZM59.0984 49.4943C59.0984 48.0095 58.5086 46.5855 57.4587 45.5356C56.4088 44.4857 54.9848 43.8959 53.5 43.8959C52.0152 43.8959 50.5912 44.4857 49.5413 45.5356C48.4914 46.5855 47.9016 48.0095 47.9016 49.4943C47.9016 50.9791 48.4914 52.4031 49.5413 53.453C50.5912 54.5029 52.0152 55.0927 53.5 55.0927C54.9848 55.0927 56.4088 54.5029 57.4587 53.453C58.5086 52.4031 59.0984 50.9791 59.0984 49.4943Z" fill="#2B2C2E"/>
<path id="Vector_2" d="M116.412 49.4943C116.412 52.2774 114.864 54.9465 112.109 56.9144C109.354 58.8824 105.618 59.9879 101.722 59.9879C97.8256 59.9879 94.0892 58.8824 91.3342 56.9144C88.5793 54.9465 87.0316 52.2774 87.0316 49.4943C87.0316 48.1162 87.4116 46.7517 88.1498 45.4785C88.8881 44.2054 89.9701 43.0486 91.3342 42.0741C94.0892 40.1062 97.8256 39.0006 101.722 39.0006C103.651 39.0006 105.561 39.2721 107.343 39.7994C109.126 40.3268 110.745 41.0997 112.109 42.0741C113.473 43.0486 114.555 44.2054 115.294 45.4785C116.032 46.7517 116.412 48.1162 116.412 49.4943ZM94.6299 53.2185C98.469 55.5871 103.982 55.6874 107.997 53.6831C109.584 52.8904 111.725 51.2225 111.491 49.1852C111.378 48.2046 110.692 47.2691 109.961 46.6256C108.723 45.5371 107.178 44.818 105.592 44.4042C101.856 43.4294 97.338 43.8121 94.1164 46.1166C92.8166 47.0457 91.4787 48.661 92.081 50.3739C92.505 51.5804 93.5566 52.5559 94.6299 53.2185Z" fill="#2B2C2E"/>
<path id="Vector_3" d="M74.936 54.6217C77.6533 54.6196 80.3728 54.6194 83.0947 54.6211C83.3752 54.6215 83.6585 54.6786 83.9445 54.7925C84.8826 55.1663 85.4843 56.0193 85.5204 57.0392C85.5598 58.1378 84.7836 59.1539 83.7357 59.444C83.5068 59.507 83.1296 59.5385 82.6041 59.5385C77.2141 59.5381 71.8242 59.5366 66.4346 59.5341C65.9834 59.5341 65.593 59.1133 65.7238 58.6665C65.7534 58.5649 65.845 58.4128 65.9986 58.2102C69.488 53.605 72.9757 49.0021 76.4618 44.4016C76.4636 44.3991 76.4646 44.3962 76.4649 44.3932C76.4652 44.3901 76.4646 44.3871 76.4633 44.3844C76.462 44.3817 76.46 44.3794 76.4575 44.3779C76.4549 44.3763 76.452 44.3755 76.4491 44.3756C74.3686 44.376 72.289 44.376 70.2103 44.3756C69.5955 44.3756 69.1751 44.3458 68.9492 44.2861C67.803 43.984 67.0496 42.8695 67.1619 41.6789C67.259 40.6514 68.02 39.7514 69.0488 39.5254C69.2282 39.4861 69.5335 39.4664 69.9646 39.4664C74.8783 39.4664 79.7919 39.4664 84.7055 39.4664C84.945 39.4664 85.1117 39.4853 85.2056 39.5229C85.5179 39.6479 85.7026 40.03 85.6137 40.3562C85.5888 40.4472 85.5168 40.5714 85.3979 40.7288C81.9089 45.3483 78.4176 49.9709 74.924 54.5963C74.9221 54.5987 74.921 54.6016 74.9207 54.6045C74.9204 54.6075 74.9209 54.6105 74.9221 54.6132C74.9234 54.6158 74.9254 54.6181 74.9278 54.6196C74.9303 54.6211 74.9331 54.6218 74.936 54.6217Z" fill="#2B2C2E"/>
<path id="Vector_4" d="M124.824 48.9059C124.818 51.4213 124.817 53.9367 124.822 56.4521C124.823 57.0619 124.794 57.4824 124.735 57.7139C124.588 58.2885 124.264 58.7469 123.763 59.0892C122.378 60.0355 120.449 59.3608 120.004 57.7266C119.943 57.5023 119.913 57.1526 119.913 56.6775C119.913 51.2565 119.913 45.8358 119.913 40.4153C119.913 40.1441 119.938 39.9543 119.989 39.846C120.168 39.4645 120.686 39.3446 121.033 39.6188C125.445 43.1078 129.853 46.5993 134.257 50.0934C134.283 50.1137 134.295 50.1073 134.295 50.0743C134.296 47.5585 134.296 45.0355 134.295 42.5052C134.294 41.9065 134.326 41.486 134.391 41.2435C134.566 40.5843 134.967 40.0869 135.591 39.7514C136.974 39.0088 138.697 39.7565 139.115 41.2702C139.172 41.4775 139.201 41.7745 139.201 42.1613C139.201 47.6702 139.201 53.1791 139.201 58.6881C139.201 58.895 139.174 59.0496 139.119 59.152C138.967 59.4364 138.606 59.5887 138.296 59.4967C138.204 59.4696 138.083 59.3962 137.933 59.2764C133.575 55.8132 129.215 52.3515 124.855 48.8913C124.834 48.8752 124.824 48.8801 124.824 48.9059Z" fill="#2B2C2E"/>
</g>
</g>
</svg>
