<svg width="182" height="100" viewBox="0 0 182 100" fill="none" xmlns="http://www.w3.org/2000/svg">
<g id="Wildberries">
<g id="Group 31">
<path id="Vector" d="M175.652 51.8444C174.616 51.4277 173.353 51.0039 171.864 50.5729C171.292 50.4074 170.689 50.168 170.054 49.8546C168.697 49.1855 167.698 48.5768 167.061 47.3028C166.503 46.1838 166.432 44.7371 166.687 43.5009C166.896 42.4814 167.419 41.6031 168.192 40.8734C169.889 39.2693 172.17 38.7778 174.461 39.0878C177.107 39.4444 179.228 41.0285 180.381 43.4618C180.388 43.4771 180.39 43.4946 180.384 43.5108C180.379 43.5269 180.368 43.5405 180.353 43.5488L177.57 45.1227C177.563 45.1268 177.555 45.1293 177.547 45.1302C177.539 45.131 177.531 45.1302 177.523 45.1277C177.515 45.1252 177.508 45.1211 177.502 45.1157C177.496 45.1103 177.491 45.1037 177.488 45.0963C176.686 43.3102 175.3 42.3764 173.331 42.2949C171.731 42.2281 169.874 43.0787 169.985 44.9589C170.059 46.1951 171.012 46.8076 172.038 47.2234C172.769 47.52 173.513 47.7838 174.268 48.0148C175.418 48.3676 176.546 48.7814 177.65 49.2561C179.459 50.0336 180.966 51.7184 180.999 53.77C181.031 55.7837 180.477 57.4421 178.83 58.6745C177.042 60.0116 174.728 60.3014 172.542 60.0973C169.435 59.8087 166.818 58.2083 165.714 55.2028C165.705 55.1762 165.705 55.1472 165.714 55.1208C165.724 55.0943 165.743 55.0721 165.767 55.0578L168.577 53.4373C168.617 53.4146 168.646 53.4243 168.664 53.4663C168.768 53.7049 168.872 53.9317 168.977 54.1468C170.078 56.4075 172.37 57.0477 174.713 56.7629C176.282 56.5726 177.684 55.7585 177.546 53.9603C177.461 52.8551 176.65 52.2477 175.652 51.8444Z" fill="#2B2C2E"/>
<path id="Vector_2" d="M9.69194 59.7556H5.5586C5.54988 59.7553 5.54147 59.7522 5.53466 59.7467C5.52784 59.7413 5.52298 59.7338 5.5208 59.7253L0.00128052 39.419C-0.000258493 39.4131 -0.000412439 39.4068 0.000830575 39.4008C0.00207359 39.3948 0.00467983 39.3891 0.00845086 39.3843C0.0122219 39.3794 0.0170574 39.3755 0.0225858 39.3727C0.0281142 39.37 0.0341892 39.3686 0.0403453 39.3686L3.62929 39.3712C3.63802 39.3714 3.64642 39.3745 3.65324 39.38C3.66005 39.3854 3.66492 39.3929 3.6671 39.4014L7.84832 54.8182C7.8504 54.827 7.85532 54.8347 7.8623 54.8403C7.86929 54.8459 7.87794 54.8491 7.8869 54.8492C7.89585 54.8494 7.9046 54.8465 7.91176 54.8411C7.91893 54.8358 7.92409 54.8281 7.92645 54.8195L12.4089 39.3938C12.4113 39.3854 12.4165 39.378 12.4235 39.3728C12.4306 39.3676 12.4391 39.3648 12.4479 39.3649L15.7974 39.3712C15.8062 39.3711 15.8148 39.3739 15.8218 39.3791C15.8289 39.3843 15.834 39.3917 15.8365 39.4001L20.3353 54.9115C20.3375 54.9202 20.3426 54.9279 20.3496 54.9333C20.3567 54.9388 20.3654 54.9418 20.3743 54.9418C20.3833 54.9418 20.392 54.9388 20.3991 54.9333C20.4062 54.9279 20.4112 54.9202 20.4134 54.9115L24.6198 39.3989C24.622 39.3904 24.6269 39.3829 24.6337 39.3774C24.6405 39.372 24.6489 39.3689 24.6576 39.3686L28.2315 39.3712C28.2376 39.3711 28.2437 39.3726 28.2492 39.3753C28.2548 39.378 28.2596 39.3819 28.2634 39.3868C28.2671 39.3916 28.2697 39.3973 28.271 39.4033C28.2722 39.4094 28.2721 39.4156 28.2705 39.4216L22.7624 59.7253C22.7602 59.7338 22.7553 59.7413 22.7485 59.7467C22.7417 59.7522 22.7333 59.7553 22.7246 59.7556H18.5459C18.5371 59.7556 18.5285 59.7529 18.5215 59.7476C18.5144 59.7424 18.5093 59.735 18.5068 59.7266L14.168 44.7331C14.1658 44.7245 14.1608 44.7168 14.1537 44.7113C14.1466 44.7058 14.1379 44.7028 14.129 44.7028C14.12 44.7028 14.1113 44.7058 14.1043 44.7113C14.0972 44.7168 14.0921 44.7245 14.0899 44.7331L9.73101 59.7266C9.72854 59.735 9.72339 59.7424 9.71634 59.7476C9.70928 59.7529 9.70072 59.7556 9.69194 59.7556Z" fill="#2B2C2E"/>
<path id="Vector_3" d="M41.6647 56.5348L49.9402 56.5336C49.9569 56.5336 49.9729 56.5402 49.9848 56.552C49.9966 56.5638 50.0032 56.5799 50.0032 56.5966L49.9957 59.6928C49.9957 59.7095 49.989 59.7255 49.9772 59.7373C49.9654 59.7492 49.9494 59.7558 49.9326 59.7558H38.2472C38.2304 59.7558 38.2144 59.7492 38.2026 59.7373C38.1908 59.7255 38.1841 59.7095 38.1841 59.6928L38.1867 39.4306C38.1867 39.4139 38.1933 39.3979 38.2051 39.3861C38.2169 39.3742 38.233 39.3676 38.2497 39.3676L41.5387 39.3764C41.5554 39.3764 41.5714 39.3831 41.5833 39.3949C41.5951 39.4067 41.6017 39.4227 41.6017 39.4394V56.4718C41.6017 56.4885 41.6083 56.5046 41.6202 56.5164C41.632 56.5282 41.648 56.5348 41.6647 56.5348Z" fill="#2B2C2E"/>
<path id="Vector_4" d="M52.4165 39.505C52.4165 39.4742 52.4287 39.4447 52.4504 39.423C52.4722 39.4012 52.5017 39.389 52.5324 39.389L60.5294 39.3613C63.1615 39.3523 65.6893 40.3906 67.557 42.2478C69.4247 44.1051 70.4791 46.6292 70.4885 49.2649L70.491 49.8018C70.4955 51.107 70.2432 52.4003 69.7486 53.6078C69.2539 54.8154 68.5266 55.9136 67.6081 56.8396C66.6896 57.7657 65.598 58.5016 64.3956 59.0051C63.1931 59.5087 61.9034 59.7702 60.6 59.7747L52.603 59.8037C52.5722 59.8037 52.5427 59.7915 52.521 59.7697C52.4993 59.748 52.487 59.7185 52.487 59.6877L52.4165 39.505ZM64.3893 43.821C63.3572 43.0826 62.1777 42.6831 60.9201 42.6629C60.2505 42.652 58.598 42.6516 55.9626 42.6617C55.9265 42.6617 55.9084 42.6797 55.9084 42.7159V56.5046C55.9084 56.5399 55.9256 56.5575 55.9601 56.5575C57.5932 56.5575 59.2256 56.555 60.857 56.5499C63.6949 56.5411 66.1271 54.5387 66.8731 51.818C67.6733 48.9007 66.9096 45.6281 64.3893 43.821Z" fill="#2B2C2E"/>
<path id="Vector_5" d="M85.885 49.2246C89.0569 50.9889 89.6239 55.1701 87.2057 57.7774C86.3656 58.6839 85.3532 59.2829 84.1687 59.5744C83.6781 59.6962 82.9199 59.7571 81.8941 59.7571C79.1545 59.7571 76.4199 59.7567 73.6904 59.7558C73.6734 59.7558 73.657 59.7491 73.645 59.737C73.6329 59.725 73.6262 59.7086 73.6262 59.6916L73.6299 39.4029C73.6299 39.3819 73.6409 39.3714 73.6627 39.3714C76.362 39.3697 79.0663 39.3706 81.7756 39.3739C84.6274 39.3765 87.4035 41.2075 87.8169 44.1588C88.1059 46.2204 87.4598 47.8796 85.8787 49.1364C85.8367 49.1692 85.8388 49.1986 85.885 49.2246ZM77.0273 42.7209V47.7238C77.0273 47.7652 77.0438 47.805 77.0731 47.8343C77.1024 47.8636 77.1422 47.88 77.1836 47.88H81.7996C82.1486 47.88 82.4942 47.8121 82.8166 47.6801C83.1391 47.5482 83.4321 47.3547 83.6789 47.1109C83.9256 46.867 84.1214 46.5775 84.255 46.2589C84.3885 45.9402 84.4573 45.5987 84.4573 45.2539V45.1909C84.4573 44.4943 84.1773 43.8264 83.6789 43.3339C83.1804 42.8414 82.5044 42.5647 81.7996 42.5647H77.1836C77.1422 42.5647 77.1024 42.5811 77.0731 42.6104C77.0438 42.6397 77.0273 42.6795 77.0273 42.7209ZM77.0147 51.062L77.0349 56.5059C77.0349 56.538 77.0476 56.5687 77.0703 56.5914C77.093 56.6141 77.1238 56.6268 77.1559 56.6268L82.4019 56.6092C83.1616 56.6065 83.889 56.3093 84.4243 55.783C84.9596 55.2567 85.2588 54.5444 85.2562 53.8028V53.7096C85.2549 53.3423 85.1795 52.9789 85.0344 52.6402C84.8892 52.3014 84.6771 51.9939 84.4102 51.7351C84.1433 51.4764 83.8268 51.2716 83.4787 51.1323C83.1307 50.993 82.7579 50.922 82.3818 50.9233L77.1357 50.941C77.1036 50.941 77.0729 50.9537 77.0502 50.9764C77.0275 50.9991 77.0147 51.0299 77.0147 51.062Z" fill="#2B2C2E"/>
<path id="Vector_6" d="M110.83 52.4192L110.82 59.6954C110.82 59.7114 110.814 59.7268 110.802 59.7381C110.79 59.7495 110.775 59.7558 110.758 59.7558L107.483 59.7571C107.44 59.7571 107.419 59.7353 107.419 59.6916V39.4055C107.419 39.3958 107.423 39.3865 107.43 39.3796C107.437 39.3728 107.446 39.3689 107.455 39.3689C110.255 39.3664 113.058 39.3744 115.865 39.3929C117.464 39.4038 118.865 39.9385 120.066 40.997C123.734 44.2281 122.822 49.9795 118.307 51.8496C118.301 51.8522 118.296 51.8559 118.291 51.8606C118.287 51.8653 118.284 51.8708 118.282 51.8767C118.28 51.8826 118.279 51.8889 118.28 51.8951C118.28 51.9013 118.282 51.9072 118.285 51.9126L122.935 59.6853C122.94 59.6923 122.942 59.7003 122.942 59.7084C122.942 59.7166 122.94 59.7247 122.936 59.7318C122.932 59.739 122.926 59.7449 122.919 59.7491C122.912 59.7534 122.904 59.7557 122.896 59.7558L119.208 59.7571C119.174 59.7571 119.149 59.7424 119.131 59.713L114.821 52.3977C114.808 52.3755 114.789 52.3571 114.767 52.3443C114.744 52.3314 114.719 52.3247 114.693 52.3247L110.915 52.3347C110.858 52.3347 110.83 52.3629 110.83 52.4192ZM110.835 42.6705L110.813 49.2108C110.813 49.2419 110.825 49.2717 110.847 49.2937C110.869 49.3156 110.899 49.328 110.93 49.328L115.541 49.3444C115.976 49.3459 116.407 49.2616 116.81 49.0964C117.213 48.9313 117.579 48.6884 117.888 48.3817C118.196 48.075 118.442 47.7104 118.61 47.3089C118.778 46.9074 118.865 46.4767 118.866 46.0415V45.8953C118.868 45.4601 118.784 45.0288 118.618 44.6261C118.453 44.2235 118.21 43.8573 117.904 43.5485C117.597 43.2396 117.232 42.9943 116.831 42.8263C116.429 42.6584 115.999 42.5712 115.563 42.5697L110.952 42.5533C110.921 42.5533 110.892 42.5657 110.87 42.5877C110.848 42.6096 110.835 42.6395 110.835 42.6705Z" fill="#2B2C2E"/>
<path id="Vector_7" d="M146.863 39.418V59.7092C146.863 59.7216 146.858 59.7334 146.85 59.7422C146.841 59.7509 146.829 59.7558 146.817 59.7558H143.487C143.475 59.7558 143.463 59.7509 143.454 59.7422C143.446 59.7334 143.441 59.7216 143.441 59.7092L143.444 39.4155C143.444 39.4031 143.449 39.3913 143.458 39.3825C143.467 39.3738 143.479 39.3689 143.491 39.3689L146.817 39.3714C146.829 39.3714 146.841 39.3763 146.85 39.3851C146.858 39.3938 146.863 39.4057 146.863 39.418Z" fill="#2B2C2E"/>
<path id="Vector_8" d="M34.1289 39.374H30.8147C30.7729 39.374 30.7391 39.4078 30.7391 39.4496V59.6803C30.7391 59.722 30.7729 59.7559 30.8147 59.7559H34.1289C34.1707 59.7559 34.2045 59.722 34.2045 59.6803V39.4496C34.2045 39.4078 34.1707 39.374 34.1289 39.374Z" fill="#2B2C2E"/>
<path id="Vector_9" d="M95.2522 51.1159V56.4817C95.2522 56.4954 95.2577 56.5086 95.2674 56.5182C95.2771 56.5279 95.2902 56.5334 95.3039 56.5334L104.363 56.5346C104.377 56.5346 104.39 56.5401 104.4 56.5498C104.409 56.5595 104.415 56.5726 104.415 56.5863L104.414 59.7039C104.414 59.7177 104.408 59.7308 104.398 59.7405C104.389 59.7502 104.376 59.7556 104.362 59.7556H91.9015C91.8878 59.7556 91.8746 59.7502 91.8649 59.7405C91.8552 59.7308 91.8498 59.7177 91.8498 59.7039L91.88 39.4216C91.88 39.4148 91.8814 39.4081 91.884 39.4018C91.8866 39.3956 91.8904 39.3899 91.8952 39.3851C91.9 39.3803 91.9057 39.3765 91.9119 39.3739C91.9182 39.3713 91.9249 39.3699 91.9317 39.3699L104.202 39.3737C104.216 39.3737 104.229 39.3792 104.238 39.3889C104.248 39.3985 104.254 39.4117 104.254 39.4254L104.245 42.5468C104.245 42.5605 104.239 42.5737 104.23 42.5833C104.22 42.593 104.207 42.5985 104.193 42.5985H95.3039C95.2902 42.5985 95.2771 42.6039 95.2674 42.6136C95.2577 42.6233 95.2522 42.6364 95.2522 42.6501V47.7929C95.2522 47.8066 95.2577 47.8197 95.2674 47.8294C95.2771 47.8391 95.2902 47.8445 95.3039 47.8445H103.461C103.475 47.8445 103.488 47.85 103.497 47.8597C103.507 47.8694 103.513 47.8825 103.513 47.8962V51.0126C103.513 51.0263 103.507 51.0394 103.497 51.0491C103.488 51.0588 103.475 51.0643 103.461 51.0643H95.3039C95.2971 51.0643 95.2904 51.0656 95.2841 51.0682C95.2779 51.0708 95.2722 51.0746 95.2674 51.0794C95.2626 51.0842 95.2588 51.0899 95.2562 51.0962C95.2536 51.1024 95.2522 51.1091 95.2522 51.1159Z" fill="#2B2C2E"/>
<path id="Vector_10" d="M128.974 52.3246C128.962 52.3246 128.951 52.3269 128.941 52.3312C128.93 52.3356 128.92 52.342 128.912 52.3501C128.904 52.3582 128.898 52.3677 128.894 52.3783C128.889 52.3888 128.887 52.4001 128.887 52.4116L128.889 59.7142C128.889 59.7256 128.885 59.7365 128.877 59.7445C128.868 59.7525 128.857 59.7571 128.845 59.7571L125.542 59.7558C125.532 59.7558 125.522 59.7515 125.514 59.744C125.506 59.7364 125.502 59.7262 125.502 59.7155L125.511 39.4331C125.511 39.4158 125.518 39.3991 125.53 39.3868C125.542 39.3745 125.559 39.3676 125.576 39.3676C128.383 39.3693 131.195 39.3781 134.011 39.3941C135.218 39.4016 136.3 39.7074 137.257 40.3115C141.815 43.1897 141.364 49.672 136.41 51.8332C136.401 51.8368 136.394 51.8423 136.387 51.8493C136.381 51.8563 136.376 51.8645 136.373 51.8735C136.37 51.8824 136.37 51.8919 136.371 51.9013C136.372 51.9106 136.375 51.9196 136.38 51.9277C137.895 54.4665 139.41 57.0099 140.924 59.558C140.948 59.5991 140.97 59.6306 140.99 59.6525C140.998 59.6611 141.003 59.6719 141.005 59.6835C141.007 59.6952 141.006 59.7072 141.001 59.718C140.996 59.7289 140.989 59.7382 140.979 59.7446C140.969 59.7511 140.957 59.7546 140.945 59.7545L137.283 59.7571C137.239 59.7571 137.205 59.7377 137.183 59.6991L132.898 52.3964C132.886 52.3765 132.869 52.36 132.849 52.3485C132.829 52.337 132.806 52.331 132.783 52.3309L128.974 52.3246ZM128.892 42.5999L128.879 49.2561C128.879 49.2665 128.881 49.2768 128.885 49.2864C128.889 49.296 128.895 49.3048 128.902 49.3122C128.909 49.3196 128.918 49.3254 128.927 49.3294C128.937 49.3334 128.947 49.3355 128.958 49.3355L133.577 49.3431C134.021 49.3439 134.461 49.2573 134.871 49.0881C135.281 48.919 135.655 48.6706 135.969 48.3572C136.283 48.0439 136.533 47.6716 136.704 47.2617C136.874 46.8518 136.963 46.4124 136.963 45.9684V45.9179C136.964 45.4739 136.878 45.0341 136.708 44.6236C136.539 44.2131 136.291 43.8399 135.978 43.5254C135.665 43.2108 135.293 42.9611 134.883 42.7904C134.473 42.6197 134.034 42.5314 133.59 42.5306L128.97 42.5231C128.95 42.5231 128.93 42.5311 128.915 42.5455C128.901 42.5599 128.892 42.5794 128.892 42.5999Z" fill="#2B2C2E"/>
<path id="Vector_11" d="M154.289 47.8445H162.453C162.466 47.8445 162.478 47.8497 162.487 47.8589C162.497 47.8682 162.502 47.8807 162.502 47.8937L162.501 51.0151C162.501 51.0282 162.495 51.0407 162.486 51.0499C162.477 51.0591 162.465 51.0643 162.451 51.0643H154.287C154.274 51.0643 154.261 51.0694 154.252 51.0787C154.243 51.0879 154.238 51.1004 154.238 51.1134L154.242 56.4855C154.242 56.4985 154.247 56.511 154.256 56.5202C154.265 56.5295 154.278 56.5346 154.291 56.5346L163.326 56.5334C163.339 56.5334 163.352 56.5386 163.361 56.5478C163.37 56.557 163.375 56.5695 163.375 56.5825L163.378 59.7065C163.378 59.7195 163.373 59.732 163.363 59.7412C163.354 59.7504 163.342 59.7556 163.329 59.7556H150.864C150.858 59.7556 150.851 59.7543 150.845 59.7519C150.839 59.7494 150.834 59.7458 150.83 59.7412C150.825 59.7367 150.821 59.7312 150.819 59.7253C150.816 59.7193 150.815 59.7129 150.815 59.7065L150.818 39.4191C150.818 39.4126 150.819 39.4062 150.821 39.4003C150.824 39.3943 150.827 39.3889 150.832 39.3843C150.837 39.3798 150.842 39.3761 150.848 39.3737C150.854 39.3712 150.86 39.3699 150.867 39.3699L163.19 39.3725C163.203 39.3725 163.215 39.3776 163.225 39.3869C163.234 39.3961 163.239 39.4086 163.239 39.4216L163.242 42.5481C163.242 42.5611 163.236 42.5736 163.227 42.5828C163.218 42.592 163.205 42.5972 163.192 42.5972L154.284 42.5997C154.271 42.5997 154.259 42.6049 154.25 42.6141C154.24 42.6234 154.235 42.6359 154.235 42.6489L154.24 47.7954C154.24 47.8084 154.245 47.8209 154.255 47.8301C154.264 47.8394 154.276 47.8445 154.289 47.8445Z" fill="#2B2C2E"/>
</g>
</g>
</svg>
