<svg width="119" height="47" viewBox="0 0 119 47" fill="none" xmlns="http://www.w3.org/2000/svg">
<g id="Group 46">
<g id="Vector">
<path d="M25.1821 26.81C25.1821 23.6927 22.6197 21.1657 19.4588 21.1657C16.298 21.1657 13.7356 23.6927 13.7356 26.81C13.7356 29.9273 16.298 32.4544 19.4588 32.4544C22.6197 32.4544 25.1821 29.9273 25.1821 26.81Z" fill="#2B2C2E"/>
<path d="M26.0408 4.23325C26.0408 1.89529 24.1191 0 21.7484 0C19.3778 0 17.456 1.89529 17.456 4.23325C17.456 6.57121 19.3778 8.4665 21.7484 8.4665C24.1191 8.4665 26.0408 6.57121 26.0408 4.23325Z" fill="#2B2C2E"/>
<path d="M8.58487 31.0435C8.58487 28.7055 6.66308 26.8102 4.29244 26.8102C1.92179 26.8102 0 28.7055 0 31.0435C0 33.3814 1.92179 35.2767 4.29244 35.2767C6.66308 35.2767 8.58487 33.3814 8.58487 31.0435Z" fill="#2B2C2E"/>
<path d="M38.0595 42.0516C38.0595 39.7136 36.1377 37.8183 33.767 37.8183C31.3964 37.8183 29.4746 39.7136 29.4746 42.0516C29.4746 44.3895 31.3964 46.2848 33.767 46.2848C36.1377 46.2848 38.0595 44.3895 38.0595 42.0516Z" fill="#2B2C2E"/>
<path fill-rule="evenodd" clip-rule="evenodd" d="M15.1667 28.5055L6.29568 31.0455L5.81696 29.4194L14.688 26.8794L15.1667 28.5055Z" fill="#2B2C2E"/>
<path fill-rule="evenodd" clip-rule="evenodd" d="M22.6071 28.5051L33.7673 40.3582L32.5091 41.5104L21.3489 29.6573L22.6071 28.5051Z" fill="#2B2C2E"/>
<path fill-rule="evenodd" clip-rule="evenodd" d="M22.4169 6.15476L20.7462 22.2459L19.0381 22.0734L20.7089 5.98227L22.4169 6.15476Z" fill="#2B2C2E"/>
</g>
<path id="Vector_2" d="M44.817 24.7279V23.273H54.5536V24.7279H44.817ZM50.7733 14.4709L57.5777 28.1105H55.6968L49.298 15.0529H50.2201L43.8027 28.1105H41.9218L48.7263 14.4709H50.7733ZM60.6591 20.9089H66.5968C67.5066 20.9089 68.2319 20.6846 68.7728 20.236C69.3261 19.7874 69.6026 19.1873 69.6026 18.4356C69.6026 17.6717 69.3261 17.0716 68.7728 16.6351C68.2319 16.1865 67.5066 15.9622 66.5968 15.9622H60.4194L61.1937 15.0529V28.1105H59.4604V14.4709H66.6521C67.5865 14.4709 68.404 14.6407 69.1047 14.9802C69.8054 15.3075 70.3525 15.7682 70.7459 16.3623C71.1517 16.9564 71.3545 17.6474 71.3545 18.4356C71.3545 19.2114 71.1517 19.8964 70.7459 20.4905C70.3525 21.0846 69.8054 21.5514 69.1047 21.8909C68.404 22.2183 67.5865 22.3819 66.6521 22.3819H60.6591V20.9089ZM63.7202 21.7273H65.8592L71.631 28.1105H69.4736L63.7202 21.7273ZM76.2981 14.4709V27.0376L75.2101 26.001H85.629V28.1105H73.864V14.4709H76.2981ZM89.6173 25.2372V22.7274H99.2061V25.2372H89.6173ZM96.4954 14.4709L102.968 28.1105H99.6303L93.9691 15.7258H95.0018L89.3406 28.1105H86.0029L92.4755 14.4709H96.4954ZM113.327 21.3816L113.622 20.7634C114.691 20.7877 115.576 20.9573 116.277 21.2725C116.978 21.5756 117.494 21.994 117.826 22.5274C118.158 23.0488 118.324 23.6489 118.324 24.3278C118.324 25.0552 118.146 25.7039 117.789 26.2737C117.445 26.8435 116.935 27.2921 116.259 27.6195C115.583 27.9469 114.734 28.1105 113.714 28.1105H104.014L105.084 21.1089L104.014 14.4709H113.364C114.642 14.4709 115.632 14.768 116.332 15.3621C117.045 15.944 117.402 16.7503 117.402 17.7808C117.402 18.3385 117.267 18.878 116.996 19.3995C116.738 19.9207 116.308 20.3633 115.705 20.727C115.115 21.0787 114.322 21.2968 113.327 21.3816ZM107.112 27.3285L105.914 25.8372H113.069C113.732 25.8372 114.242 25.6858 114.599 25.3826C114.968 25.0674 115.152 24.6309 115.152 24.0732C115.152 23.5034 114.943 23.0548 114.525 22.7274C114.107 22.3881 113.493 22.2183 112.681 22.2183H106.854V19.9995H112.312C112.866 19.9995 113.321 19.8481 113.677 19.5449C114.046 19.2297 114.23 18.7932 114.23 18.2355C114.23 17.8112 114.077 17.4595 113.769 17.1807C113.462 16.8897 113.019 16.7442 112.442 16.7442H105.914L107.112 15.2529L108.09 21.1089L107.112 27.3285Z" fill="#2B2C2E"/>
</g>
</svg>
